G75*
G70*
%OFA0B0*%
%FSLAX24Y24*%
%IPPOS*%
%LPD*%
%AMOC8*
5,1,8,0,0,1.08239X$1,22.5*
%
%ADD10C,0.0520*%
%ADD11OC8,0.0520*%
%ADD12C,0.0520*%
%ADD13OC8,0.0630*%
%ADD14C,0.0630*%
%ADD15C,0.0114*%
%ADD16R,0.1169X0.5067*%
%ADD17C,0.0600*%
%ADD18C,0.0660*%
%ADD19C,0.0660*%
%ADD20OC8,0.0480*%
%ADD21C,0.0480*%
%ADD22OC8,0.0600*%
%ADD23C,0.1306*%
%ADD24C,0.0700*%
%ADD25C,0.0515*%
%ADD26R,0.0630X0.0460*%
%ADD27C,0.0320*%
%ADD28OC8,0.1185*%
%ADD29C,0.0886*%
%ADD30C,0.1700*%
%ADD31C,0.0160*%
%ADD32C,0.0356*%
%ADD33C,0.0700*%
%ADD34C,0.0500*%
%ADD35C,0.0591*%
%ADD36C,0.0472*%
%ADD37C,0.0240*%
%ADD38C,0.0860*%
%ADD39C,0.1000*%
%ADD40C,0.1900*%
%ADD41C,0.0760*%
%ADD42C,0.1500*%
%ADD43C,0.1250*%
D10*
X022641Y004901D02*
X023161Y004901D01*
X023161Y005901D02*
X022641Y005901D01*
X022641Y006901D02*
X023161Y006901D01*
X023161Y007901D02*
X022641Y007901D01*
X022641Y008901D02*
X023161Y008901D01*
X023161Y009901D02*
X022641Y009901D01*
X022641Y010901D02*
X023161Y010901D01*
X025641Y010901D02*
X026161Y010901D01*
X026161Y009901D02*
X025641Y009901D01*
X025641Y008901D02*
X026161Y008901D01*
X026161Y007901D02*
X025641Y007901D01*
X025641Y006901D02*
X026161Y006901D01*
X026161Y005901D02*
X025641Y005901D01*
X025641Y004901D02*
X026161Y004901D01*
X029391Y004901D02*
X029911Y004901D01*
X029911Y005901D02*
X029391Y005901D01*
X029391Y006901D02*
X029911Y006901D01*
X029911Y007901D02*
X029391Y007901D01*
X029391Y008901D02*
X029911Y008901D01*
X029911Y009901D02*
X029391Y009901D01*
X029391Y010901D02*
X029911Y010901D01*
X032391Y010901D02*
X032911Y010901D01*
X032911Y009901D02*
X032391Y009901D01*
X032391Y008901D02*
X032911Y008901D01*
X032911Y007901D02*
X032391Y007901D01*
X032391Y006901D02*
X032911Y006901D01*
X032911Y005901D02*
X032391Y005901D01*
X032391Y004901D02*
X032911Y004901D01*
X037891Y004901D02*
X038411Y004901D01*
X040891Y004901D02*
X041411Y004901D01*
X041411Y005901D02*
X040891Y005901D01*
X040891Y006901D02*
X041411Y006901D01*
X041411Y007901D02*
X040891Y007901D01*
X038411Y007901D02*
X037891Y007901D01*
X037891Y006901D02*
X038411Y006901D01*
X038411Y005901D02*
X037891Y005901D01*
X037891Y008901D02*
X038411Y008901D01*
X038411Y009901D02*
X037891Y009901D01*
X037891Y010901D02*
X038411Y010901D01*
X040891Y010901D02*
X041411Y010901D01*
X041411Y009901D02*
X040891Y009901D01*
X040891Y008901D02*
X041411Y008901D01*
X045641Y008901D02*
X046161Y008901D01*
X046161Y009901D02*
X045641Y009901D01*
X045641Y010901D02*
X046161Y010901D01*
X048641Y010901D02*
X049161Y010901D01*
X049161Y009901D02*
X048641Y009901D01*
X048641Y008901D02*
X049161Y008901D01*
X049161Y007901D02*
X048641Y007901D01*
X048641Y006901D02*
X049161Y006901D01*
X049161Y005901D02*
X048641Y005901D01*
X048641Y004901D02*
X049161Y004901D01*
X046161Y004901D02*
X045641Y004901D01*
X045641Y005901D02*
X046161Y005901D01*
X046161Y006901D02*
X045641Y006901D01*
X045641Y007901D02*
X046161Y007901D01*
X055141Y007901D02*
X055661Y007901D01*
X055661Y006901D02*
X055141Y006901D01*
X055141Y005901D02*
X055661Y005901D01*
X055661Y004901D02*
X055141Y004901D01*
X058141Y004901D02*
X058661Y004901D01*
X058661Y005901D02*
X058141Y005901D01*
X058141Y006901D02*
X058661Y006901D01*
X058661Y007901D02*
X058141Y007901D01*
X058141Y008901D02*
X058661Y008901D01*
X058661Y009901D02*
X058141Y009901D01*
X058141Y010901D02*
X058661Y010901D01*
X055661Y010901D02*
X055141Y010901D01*
X055141Y009901D02*
X055661Y009901D01*
X055661Y008901D02*
X055141Y008901D01*
X064641Y008901D02*
X065161Y008901D01*
X065161Y009901D02*
X064641Y009901D01*
X064641Y010901D02*
X065161Y010901D01*
X067641Y010901D02*
X068161Y010901D01*
X068161Y009901D02*
X067641Y009901D01*
X067641Y008901D02*
X068161Y008901D01*
X068161Y007901D02*
X067641Y007901D01*
X067641Y006901D02*
X068161Y006901D01*
X068161Y005901D02*
X067641Y005901D01*
X067641Y004901D02*
X068161Y004901D01*
X068161Y003901D02*
X067641Y003901D01*
X065161Y003901D02*
X064641Y003901D01*
X064641Y004901D02*
X065161Y004901D01*
X065161Y005901D02*
X064641Y005901D01*
X064641Y006901D02*
X065161Y006901D01*
X065161Y007901D02*
X064641Y007901D01*
X065641Y014401D02*
X066161Y014401D01*
X068391Y014401D02*
X068911Y014401D01*
X071391Y014401D02*
X071911Y014401D01*
X071911Y015401D02*
X071391Y015401D01*
X071391Y016401D02*
X071911Y016401D01*
X071911Y017401D02*
X071391Y017401D01*
X071391Y018401D02*
X071911Y018401D01*
X071911Y019401D02*
X071391Y019401D01*
X068911Y019401D02*
X068391Y019401D01*
X068391Y018401D02*
X068911Y018401D01*
X068911Y017401D02*
X068391Y017401D01*
X066161Y017401D02*
X065641Y017401D01*
X065641Y018401D02*
X066161Y018401D01*
X066161Y019401D02*
X065641Y019401D01*
X065641Y020401D02*
X066161Y020401D01*
X066161Y021401D02*
X065641Y021401D01*
X068391Y021401D02*
X068911Y021401D01*
X068911Y020401D02*
X068391Y020401D01*
X071391Y020401D02*
X071911Y020401D01*
X071911Y021401D02*
X071391Y021401D01*
X071391Y022401D02*
X071911Y022401D01*
X071911Y023401D02*
X071391Y023401D01*
X068911Y023401D02*
X068391Y023401D01*
X068391Y022401D02*
X068911Y022401D01*
X066161Y022401D02*
X065641Y022401D01*
X065641Y023401D02*
X066161Y023401D01*
X063161Y023401D02*
X062641Y023401D01*
X062641Y022401D02*
X063161Y022401D01*
X063161Y021401D02*
X062641Y021401D01*
X062641Y020401D02*
X063161Y020401D01*
X063161Y019401D02*
X062641Y019401D01*
X062641Y018401D02*
X063161Y018401D01*
X063161Y017401D02*
X062641Y017401D01*
X062641Y016401D02*
X063161Y016401D01*
X063161Y015401D02*
X062641Y015401D01*
X062641Y014401D02*
X063161Y014401D01*
X065641Y015401D02*
X066161Y015401D01*
X066161Y016401D02*
X065641Y016401D01*
X068391Y016401D02*
X068911Y016401D01*
X068911Y015401D02*
X068391Y015401D01*
X075891Y019651D02*
X076411Y019651D01*
X076411Y020651D02*
X075891Y020651D01*
X075891Y021651D02*
X076411Y021651D01*
X076411Y022651D02*
X075891Y022651D01*
X075891Y023651D02*
X076411Y023651D01*
X076411Y024651D02*
X075891Y024651D01*
X075891Y025651D02*
X076411Y025651D01*
X076411Y026651D02*
X075891Y026651D01*
X078891Y026651D02*
X079411Y026651D01*
X079411Y025651D02*
X078891Y025651D01*
X078891Y024651D02*
X079411Y024651D01*
X079411Y023651D02*
X078891Y023651D01*
X078891Y022651D02*
X079411Y022651D01*
X079411Y021651D02*
X078891Y021651D01*
X078891Y020651D02*
X079411Y020651D01*
X079411Y019651D02*
X078891Y019651D01*
X081391Y019401D02*
X081911Y019401D01*
X081911Y018401D02*
X081391Y018401D01*
X081391Y017401D02*
X081911Y017401D01*
X084391Y017401D02*
X084911Y017401D01*
X084911Y018401D02*
X084391Y018401D01*
X084391Y019401D02*
X084911Y019401D01*
X087141Y019651D02*
X087661Y019651D01*
X087661Y020651D02*
X087141Y020651D01*
X087141Y021651D02*
X087661Y021651D01*
X087661Y022651D02*
X087141Y022651D01*
X087141Y023651D02*
X087661Y023651D01*
X087661Y024651D02*
X087141Y024651D01*
X087141Y025651D02*
X087661Y025651D01*
X087661Y026651D02*
X087141Y026651D01*
X084911Y023401D02*
X084391Y023401D01*
X084391Y022401D02*
X084911Y022401D01*
X084911Y021401D02*
X084391Y021401D01*
X084391Y020401D02*
X084911Y020401D01*
X081911Y020401D02*
X081391Y020401D01*
X081391Y021401D02*
X081911Y021401D01*
X081911Y022401D02*
X081391Y022401D01*
X081391Y023401D02*
X081911Y023401D01*
X087141Y018651D02*
X087661Y018651D01*
X087661Y017651D02*
X087141Y017651D01*
X087141Y016651D02*
X087661Y016651D01*
X087661Y015651D02*
X087141Y015651D01*
X084911Y015401D02*
X084391Y015401D01*
X084391Y016401D02*
X084911Y016401D01*
X081911Y016401D02*
X081391Y016401D01*
X081391Y015401D02*
X081911Y015401D01*
X081911Y014401D02*
X081391Y014401D01*
X084391Y014401D02*
X084911Y014401D01*
X084661Y010901D02*
X084141Y010901D01*
X081661Y010901D02*
X081141Y010901D01*
X081141Y009901D02*
X081661Y009901D01*
X081661Y008901D02*
X081141Y008901D01*
X081141Y007901D02*
X081661Y007901D01*
X081661Y006901D02*
X081141Y006901D01*
X081141Y005901D02*
X081661Y005901D01*
X084141Y005901D02*
X084661Y005901D01*
X084661Y006901D02*
X084141Y006901D01*
X084141Y007901D02*
X084661Y007901D01*
X084661Y008901D02*
X084141Y008901D01*
X084141Y009901D02*
X084661Y009901D01*
X090141Y009901D02*
X090661Y009901D01*
X090661Y008901D02*
X090141Y008901D01*
X090141Y007901D02*
X090661Y007901D01*
X090661Y006901D02*
X090141Y006901D01*
X090141Y005901D02*
X090661Y005901D01*
X090661Y004901D02*
X090141Y004901D01*
X093141Y004901D02*
X093661Y004901D01*
X093661Y005901D02*
X093141Y005901D01*
X093141Y006901D02*
X093661Y006901D01*
X093661Y007901D02*
X093141Y007901D01*
X093141Y008901D02*
X093661Y008901D01*
X093661Y009901D02*
X093141Y009901D01*
X093141Y010901D02*
X093661Y010901D01*
X090661Y010901D02*
X090141Y010901D01*
X098391Y010901D02*
X098911Y010901D01*
X101391Y010901D02*
X101911Y010901D01*
X101911Y009901D02*
X101391Y009901D01*
X101391Y008901D02*
X101911Y008901D01*
X098911Y008901D02*
X098391Y008901D01*
X098391Y009901D02*
X098911Y009901D01*
X098911Y007901D02*
X098391Y007901D01*
X098391Y006901D02*
X098911Y006901D01*
X098911Y005901D02*
X098391Y005901D01*
X098391Y004901D02*
X098911Y004901D01*
X101391Y004901D02*
X101911Y004901D01*
X101911Y005901D02*
X101391Y005901D01*
X101391Y006901D02*
X101911Y006901D01*
X101911Y007901D02*
X101391Y007901D01*
X084661Y004901D02*
X084141Y004901D01*
X081661Y004901D02*
X081141Y004901D01*
X093141Y015651D02*
X093661Y015651D01*
X093661Y016651D02*
X093141Y016651D01*
X093141Y017651D02*
X093661Y017651D01*
X093661Y018651D02*
X093141Y018651D01*
X093141Y019651D02*
X093661Y019651D01*
X093661Y020651D02*
X093141Y020651D01*
X093141Y021651D02*
X093661Y021651D01*
X093661Y022651D02*
X093141Y022651D01*
X093141Y023651D02*
X093661Y023651D01*
X093661Y024651D02*
X093141Y024651D01*
X093141Y025651D02*
X093661Y025651D01*
X093661Y026651D02*
X093141Y026651D01*
X098391Y026651D02*
X098911Y026651D01*
X098911Y025651D02*
X098391Y025651D01*
X098391Y024651D02*
X098911Y024651D01*
X101391Y024651D02*
X101911Y024651D01*
X101911Y025651D02*
X101391Y025651D01*
X101391Y026651D02*
X101911Y026651D01*
X101911Y023651D02*
X101391Y023651D01*
X101391Y022651D02*
X101911Y022651D01*
X098911Y022651D02*
X098391Y022651D01*
X098391Y023651D02*
X098911Y023651D01*
X098911Y021651D02*
X098391Y021651D01*
X098391Y020651D02*
X098911Y020651D01*
X098911Y019651D02*
X098391Y019651D01*
X098391Y018651D02*
X098911Y018651D01*
X098911Y017651D02*
X098391Y017651D01*
X101391Y017651D02*
X101911Y017651D01*
X101911Y018651D02*
X101391Y018651D01*
X101391Y019651D02*
X101911Y019651D01*
X101911Y020651D02*
X101391Y020651D01*
X101391Y021651D02*
X101911Y021651D01*
X114891Y022401D02*
X115411Y022401D01*
X115411Y023401D02*
X114891Y023401D01*
X114891Y024401D02*
X115411Y024401D01*
X115411Y025401D02*
X114891Y025401D01*
X114891Y026401D02*
X115411Y026401D01*
X115411Y027401D02*
X114891Y027401D01*
X114891Y028401D02*
X115411Y028401D01*
X120891Y028401D02*
X121411Y028401D01*
X121411Y029401D02*
X120891Y029401D01*
X123891Y029401D02*
X124411Y029401D01*
X124411Y028401D02*
X123891Y028401D01*
X123891Y027401D02*
X124411Y027401D01*
X124411Y026401D02*
X123891Y026401D01*
X123891Y025401D02*
X124411Y025401D01*
X124411Y024401D02*
X123891Y024401D01*
X123891Y023401D02*
X124411Y023401D01*
X121411Y023401D02*
X120891Y023401D01*
X120891Y024401D02*
X121411Y024401D01*
X121411Y025401D02*
X120891Y025401D01*
X120891Y026401D02*
X121411Y026401D01*
X121411Y027401D02*
X120891Y027401D01*
X113161Y031401D02*
X112641Y031401D01*
X112641Y032401D02*
X113161Y032401D01*
X113161Y033401D02*
X112641Y033401D01*
X112641Y034401D02*
X113161Y034401D01*
X113161Y035401D02*
X112641Y035401D01*
X112641Y036401D02*
X113161Y036401D01*
X113161Y037401D02*
X112641Y037401D01*
X110161Y037401D02*
X109641Y037401D01*
X109641Y036401D02*
X110161Y036401D01*
X110161Y035401D02*
X109641Y035401D01*
X109641Y034401D02*
X110161Y034401D01*
X110161Y033401D02*
X109641Y033401D01*
X109641Y032401D02*
X110161Y032401D01*
X110161Y031401D02*
X109641Y031401D01*
X101911Y031401D02*
X101391Y031401D01*
X101391Y032401D02*
X101911Y032401D01*
X098911Y032401D02*
X098391Y032401D01*
X098391Y031401D02*
X098911Y031401D01*
X098911Y033401D02*
X098391Y033401D01*
X098391Y034401D02*
X098911Y034401D01*
X101391Y034401D02*
X101911Y034401D01*
X101911Y033401D02*
X101391Y033401D01*
X101391Y035401D02*
X101911Y035401D01*
X101911Y036401D02*
X101391Y036401D01*
X101391Y037401D02*
X101911Y037401D01*
X098911Y037401D02*
X098391Y037401D01*
X098391Y036401D02*
X098911Y036401D01*
X098911Y035401D02*
X098391Y035401D01*
X098391Y038401D02*
X098911Y038401D01*
X101391Y038401D02*
X101911Y038401D01*
X109641Y038401D02*
X110161Y038401D01*
X112641Y038401D02*
X113161Y038401D01*
X120891Y038401D02*
X121411Y038401D01*
X121411Y039401D02*
X120891Y039401D01*
X123891Y039401D02*
X124411Y039401D01*
X124411Y038401D02*
X123891Y038401D01*
X123891Y037401D02*
X124411Y037401D01*
X124411Y036401D02*
X123891Y036401D01*
X123891Y035401D02*
X124411Y035401D01*
X124411Y034401D02*
X123891Y034401D01*
X123891Y033401D02*
X124411Y033401D01*
X121411Y033401D02*
X120891Y033401D01*
X120891Y034401D02*
X121411Y034401D01*
X121411Y035401D02*
X120891Y035401D01*
X120891Y036401D02*
X121411Y036401D01*
X121411Y037401D02*
X120891Y037401D01*
X132391Y037401D02*
X132911Y037401D01*
X132911Y036401D02*
X132391Y036401D01*
X132391Y035401D02*
X132911Y035401D01*
X135391Y035401D02*
X135911Y035401D01*
X135911Y036401D02*
X135391Y036401D01*
X135391Y037401D02*
X135911Y037401D01*
X135911Y038401D02*
X135391Y038401D01*
X135391Y039401D02*
X135911Y039401D01*
X132911Y039401D02*
X132391Y039401D01*
X132391Y038401D02*
X132911Y038401D01*
X132911Y034401D02*
X132391Y034401D01*
X132391Y033401D02*
X132911Y033401D01*
X135391Y033401D02*
X135911Y033401D01*
X135911Y034401D02*
X135391Y034401D01*
X143391Y034401D02*
X143911Y034401D01*
X143911Y033401D02*
X143391Y033401D01*
X146391Y033401D02*
X146911Y033401D01*
X146911Y034401D02*
X146391Y034401D01*
X146391Y035401D02*
X146911Y035401D01*
X146911Y036401D02*
X146391Y036401D01*
X146391Y037401D02*
X146911Y037401D01*
X146911Y038401D02*
X146391Y038401D01*
X146391Y039401D02*
X146911Y039401D01*
X143911Y039401D02*
X143391Y039401D01*
X143391Y038401D02*
X143911Y038401D01*
X143911Y037401D02*
X143391Y037401D01*
X143391Y036401D02*
X143911Y036401D01*
X143911Y035401D02*
X143391Y035401D01*
X143391Y026651D02*
X143911Y026651D01*
X143911Y025651D02*
X143391Y025651D01*
X143391Y024651D02*
X143911Y024651D01*
X146391Y024651D02*
X146911Y024651D01*
X146911Y025651D02*
X146391Y025651D01*
X146391Y026651D02*
X146911Y026651D01*
X146911Y023651D02*
X146391Y023651D01*
X146391Y022651D02*
X146911Y022651D01*
X146911Y021651D02*
X146391Y021651D01*
X146391Y020651D02*
X146911Y020651D01*
X143911Y020651D02*
X143391Y020651D01*
X143391Y021651D02*
X143911Y021651D01*
X143911Y022651D02*
X143391Y022651D01*
X143391Y023651D02*
X143911Y023651D01*
X135661Y023651D02*
X135141Y023651D01*
X135141Y022651D02*
X135661Y022651D01*
X135661Y021651D02*
X135141Y021651D01*
X135141Y020651D02*
X135661Y020651D01*
X132661Y020651D02*
X132141Y020651D01*
X132141Y021651D02*
X132661Y021651D01*
X132661Y022651D02*
X132141Y022651D01*
X132141Y023651D02*
X132661Y023651D01*
X132661Y024651D02*
X132141Y024651D01*
X132141Y025651D02*
X132661Y025651D01*
X132661Y026651D02*
X132141Y026651D01*
X135141Y026651D02*
X135661Y026651D01*
X135661Y025651D02*
X135141Y025651D01*
X135141Y024651D02*
X135661Y024651D01*
X124411Y021651D02*
X123891Y021651D01*
X123891Y020651D02*
X124411Y020651D01*
X124411Y019651D02*
X123891Y019651D01*
X121411Y019651D02*
X120891Y019651D01*
X120891Y020651D02*
X121411Y020651D01*
X121411Y021651D02*
X120891Y021651D01*
X120891Y018651D02*
X121411Y018651D01*
X121411Y017651D02*
X120891Y017651D01*
X120891Y016651D02*
X121411Y016651D01*
X123891Y016651D02*
X124411Y016651D01*
X124411Y017651D02*
X123891Y017651D01*
X123891Y018651D02*
X124411Y018651D01*
X124411Y015651D02*
X123891Y015651D01*
X123891Y014651D02*
X124411Y014651D01*
X121411Y014651D02*
X120891Y014651D01*
X120891Y015651D02*
X121411Y015651D01*
X121411Y010901D02*
X120891Y010901D01*
X120891Y009901D02*
X121411Y009901D01*
X121411Y008901D02*
X120891Y008901D01*
X120891Y007901D02*
X121411Y007901D01*
X121411Y006901D02*
X120891Y006901D01*
X120891Y005901D02*
X121411Y005901D01*
X123891Y005901D02*
X124411Y005901D01*
X124411Y006901D02*
X123891Y006901D01*
X123891Y007901D02*
X124411Y007901D01*
X124411Y008901D02*
X123891Y008901D01*
X123891Y009901D02*
X124411Y009901D01*
X124411Y010901D02*
X123891Y010901D01*
X128391Y010901D02*
X128911Y010901D01*
X128911Y009901D02*
X128391Y009901D01*
X128391Y008901D02*
X128911Y008901D01*
X128911Y007901D02*
X128391Y007901D01*
X128391Y006901D02*
X128911Y006901D01*
X128911Y005901D02*
X128391Y005901D01*
X128391Y004901D02*
X128911Y004901D01*
X131391Y004901D02*
X131911Y004901D01*
X131911Y005901D02*
X131391Y005901D01*
X131391Y006901D02*
X131911Y006901D01*
X131911Y007901D02*
X131391Y007901D01*
X131391Y008901D02*
X131911Y008901D01*
X131911Y009901D02*
X131391Y009901D01*
X131391Y010901D02*
X131911Y010901D01*
X135891Y010901D02*
X136411Y010901D01*
X136411Y009901D02*
X135891Y009901D01*
X135891Y008901D02*
X136411Y008901D01*
X136411Y007901D02*
X135891Y007901D01*
X135891Y006901D02*
X136411Y006901D01*
X136411Y005901D02*
X135891Y005901D01*
X135891Y004901D02*
X136411Y004901D01*
X138891Y004901D02*
X139411Y004901D01*
X139411Y005901D02*
X138891Y005901D01*
X138891Y006901D02*
X139411Y006901D01*
X139411Y007901D02*
X138891Y007901D01*
X138891Y008901D02*
X139411Y008901D01*
X139411Y009901D02*
X138891Y009901D01*
X138891Y010901D02*
X139411Y010901D01*
X143391Y010901D02*
X143911Y010901D01*
X146391Y010901D02*
X146911Y010901D01*
X146911Y009901D02*
X146391Y009901D01*
X146391Y008901D02*
X146911Y008901D01*
X146911Y007901D02*
X146391Y007901D01*
X146391Y006901D02*
X146911Y006901D01*
X146911Y005901D02*
X146391Y005901D01*
X143911Y005901D02*
X143391Y005901D01*
X143391Y006901D02*
X143911Y006901D01*
X143911Y007901D02*
X143391Y007901D01*
X143391Y008901D02*
X143911Y008901D01*
X143911Y009901D02*
X143391Y009901D01*
X143391Y004901D02*
X143911Y004901D01*
X146391Y004901D02*
X146911Y004901D01*
X124411Y004901D02*
X123891Y004901D01*
X121411Y004901D02*
X120891Y004901D01*
X090411Y031401D02*
X089891Y031401D01*
X089891Y032401D02*
X090411Y032401D01*
X090411Y033401D02*
X089891Y033401D01*
X089891Y034401D02*
X090411Y034401D01*
X090411Y035401D02*
X089891Y035401D01*
X089891Y036401D02*
X090411Y036401D01*
X090411Y037401D02*
X089891Y037401D01*
X087411Y037401D02*
X086891Y037401D01*
X086891Y036401D02*
X087411Y036401D01*
X087411Y035401D02*
X086891Y035401D01*
X086891Y034401D02*
X087411Y034401D01*
X087411Y033401D02*
X086891Y033401D01*
X086891Y032401D02*
X087411Y032401D01*
X087411Y031401D02*
X086891Y031401D01*
X079411Y031401D02*
X078891Y031401D01*
X078891Y032401D02*
X079411Y032401D01*
X079411Y033401D02*
X078891Y033401D01*
X078891Y034401D02*
X079411Y034401D01*
X079411Y035401D02*
X078891Y035401D01*
X078891Y036401D02*
X079411Y036401D01*
X079411Y037401D02*
X078891Y037401D01*
X076411Y037401D02*
X075891Y037401D01*
X075891Y036401D02*
X076411Y036401D01*
X076411Y035401D02*
X075891Y035401D01*
X075891Y034401D02*
X076411Y034401D01*
X076411Y033401D02*
X075891Y033401D01*
X075891Y032401D02*
X076411Y032401D01*
X076411Y031401D02*
X075891Y031401D01*
X068161Y038151D02*
X067641Y038151D01*
X067641Y039151D02*
X068161Y039151D01*
X068161Y040151D02*
X067641Y040151D01*
X067641Y041151D02*
X068161Y041151D01*
X068161Y042151D02*
X067641Y042151D01*
X067641Y043151D02*
X068161Y043151D01*
X068161Y044151D02*
X067641Y044151D01*
X067641Y045151D02*
X068161Y045151D01*
X065161Y045151D02*
X064641Y045151D01*
X064641Y044151D02*
X065161Y044151D01*
X065161Y043151D02*
X064641Y043151D01*
X064641Y042151D02*
X065161Y042151D01*
X065161Y041151D02*
X064641Y041151D01*
X064641Y040151D02*
X065161Y040151D01*
X065161Y039151D02*
X064641Y039151D01*
X064641Y038151D02*
X065161Y038151D01*
X059911Y038151D02*
X059391Y038151D01*
X059391Y037151D02*
X059911Y037151D01*
X059911Y036151D02*
X059391Y036151D01*
X059391Y039151D02*
X059911Y039151D01*
X059911Y040151D02*
X059391Y040151D01*
X059391Y041151D02*
X059911Y041151D01*
X059911Y042151D02*
X059391Y042151D01*
X059391Y043151D02*
X059911Y043151D01*
X059911Y044151D02*
X059391Y044151D01*
X059391Y045151D02*
X059911Y045151D01*
X059911Y046151D02*
X059391Y046151D01*
X059391Y047151D02*
X059911Y047151D01*
X059911Y048151D02*
X059391Y048151D01*
X059391Y049151D02*
X059911Y049151D01*
X059911Y050151D02*
X059391Y050151D01*
X059391Y051151D02*
X059911Y051151D01*
X059911Y052151D02*
X059391Y052151D01*
X059391Y053151D02*
X059911Y053151D01*
X059911Y054151D02*
X059391Y054151D01*
X059391Y055151D02*
X059911Y055151D01*
X064641Y054151D02*
X065161Y054151D01*
X065161Y053151D02*
X064641Y053151D01*
X064641Y052151D02*
X065161Y052151D01*
X065161Y051151D02*
X064641Y051151D01*
X064641Y050151D02*
X065161Y050151D01*
X065161Y049151D02*
X064641Y049151D01*
X064641Y048151D02*
X065161Y048151D01*
X065161Y047151D02*
X064641Y047151D01*
X067641Y047151D02*
X068161Y047151D01*
X068161Y048151D02*
X067641Y048151D01*
X067641Y049151D02*
X068161Y049151D01*
X068161Y050151D02*
X067641Y050151D01*
X067641Y051151D02*
X068161Y051151D01*
X068161Y052151D02*
X067641Y052151D01*
X067641Y053151D02*
X068161Y053151D01*
X068161Y054151D02*
X067641Y054151D01*
X075391Y054151D02*
X075911Y054151D01*
X075911Y053151D02*
X075391Y053151D01*
X078391Y053151D02*
X078911Y053151D01*
X078911Y054151D02*
X078391Y054151D01*
X078391Y055151D02*
X078911Y055151D01*
X078911Y056151D02*
X078391Y056151D01*
X078391Y057151D02*
X078911Y057151D01*
X078911Y058151D02*
X078391Y058151D01*
X078391Y059151D02*
X078911Y059151D01*
X078911Y060151D02*
X078391Y060151D01*
X075911Y060151D02*
X075391Y060151D01*
X075391Y059151D02*
X075911Y059151D01*
X075911Y058151D02*
X075391Y058151D01*
X075391Y057151D02*
X075911Y057151D01*
X075911Y056151D02*
X075391Y056151D01*
X075391Y055151D02*
X075911Y055151D01*
X086891Y049401D02*
X087411Y049401D01*
X087411Y048401D02*
X086891Y048401D01*
X086891Y047401D02*
X087411Y047401D01*
X087411Y046401D02*
X086891Y046401D01*
X086891Y045401D02*
X087411Y045401D01*
X087411Y044401D02*
X086891Y044401D01*
X086891Y043401D02*
X087411Y043401D01*
X087411Y042401D02*
X086891Y042401D01*
X086891Y041401D02*
X087411Y041401D01*
X087411Y040401D02*
X086891Y040401D01*
X089891Y040401D02*
X090411Y040401D01*
X090411Y041401D02*
X089891Y041401D01*
X089891Y042401D02*
X090411Y042401D01*
X090411Y043401D02*
X089891Y043401D01*
X089891Y044401D02*
X090411Y044401D01*
X090411Y045401D02*
X089891Y045401D01*
X089891Y046401D02*
X090411Y046401D01*
X090411Y047401D02*
X089891Y047401D01*
X089891Y048401D02*
X090411Y048401D01*
X090411Y049401D02*
X089891Y049401D01*
X095141Y049401D02*
X095661Y049401D01*
X095661Y048401D02*
X095141Y048401D01*
X095141Y047401D02*
X095661Y047401D01*
X095661Y046401D02*
X095141Y046401D01*
X095141Y045401D02*
X095661Y045401D01*
X095661Y044401D02*
X095141Y044401D01*
X095141Y043401D02*
X095661Y043401D01*
X098141Y043401D02*
X098661Y043401D01*
X098661Y044401D02*
X098141Y044401D01*
X098141Y045401D02*
X098661Y045401D01*
X098661Y046401D02*
X098141Y046401D01*
X098141Y047401D02*
X098661Y047401D01*
X098661Y048401D02*
X098141Y048401D01*
X098141Y049401D02*
X098661Y049401D01*
X102641Y049401D02*
X103161Y049401D01*
X103161Y048401D02*
X102641Y048401D01*
X102641Y047401D02*
X103161Y047401D01*
X103161Y046401D02*
X102641Y046401D01*
X102641Y045401D02*
X103161Y045401D01*
X103161Y044401D02*
X102641Y044401D01*
X102641Y043401D02*
X103161Y043401D01*
X105641Y043401D02*
X106161Y043401D01*
X106161Y044401D02*
X105641Y044401D01*
X105641Y045401D02*
X106161Y045401D01*
X106161Y046401D02*
X105641Y046401D01*
X105641Y047401D02*
X106161Y047401D01*
X106161Y048401D02*
X105641Y048401D01*
X105641Y049401D02*
X106161Y049401D01*
X109641Y049401D02*
X110161Y049401D01*
X110161Y048401D02*
X109641Y048401D01*
X109641Y047401D02*
X110161Y047401D01*
X110161Y046401D02*
X109641Y046401D01*
X109641Y045401D02*
X110161Y045401D01*
X110161Y044401D02*
X109641Y044401D01*
X109641Y043401D02*
X110161Y043401D01*
X112641Y043401D02*
X113161Y043401D01*
X113161Y044401D02*
X112641Y044401D01*
X112641Y045401D02*
X113161Y045401D01*
X113161Y046401D02*
X112641Y046401D01*
X112641Y047401D02*
X113161Y047401D01*
X113161Y048401D02*
X112641Y048401D01*
X112641Y049401D02*
X113161Y049401D01*
X124651Y049161D02*
X124651Y048641D01*
X125651Y048641D02*
X125651Y049161D01*
X126651Y049161D02*
X126651Y048641D01*
X127651Y048641D02*
X127651Y049161D01*
X128651Y049161D02*
X128651Y048641D01*
X129651Y048641D02*
X129651Y049161D01*
X130651Y049161D02*
X130651Y048641D01*
X130651Y046161D02*
X130651Y045641D01*
X129651Y045641D02*
X129651Y046161D01*
X128651Y046161D02*
X128651Y045641D01*
X127651Y045641D02*
X127651Y046161D01*
X126651Y046161D02*
X126651Y045641D01*
X125651Y045641D02*
X125651Y046161D01*
X124651Y046161D02*
X124651Y045641D01*
X098911Y060651D02*
X098391Y060651D01*
X095911Y060651D02*
X095391Y060651D01*
X095391Y061651D02*
X095911Y061651D01*
X095911Y062651D02*
X095391Y062651D01*
X095391Y063651D02*
X095911Y063651D01*
X095911Y064651D02*
X095391Y064651D01*
X095391Y065651D02*
X095911Y065651D01*
X098391Y065651D02*
X098911Y065651D01*
X098911Y064651D02*
X098391Y064651D01*
X098391Y063651D02*
X098911Y063651D01*
X098911Y062651D02*
X098391Y062651D01*
X098391Y061651D02*
X098911Y061651D01*
X098911Y066651D02*
X098391Y066651D01*
X095911Y066651D02*
X095391Y066651D01*
X066651Y066411D02*
X066651Y065891D01*
X065651Y065891D02*
X065651Y066411D01*
X064651Y066411D02*
X064651Y065891D01*
X063651Y065891D02*
X063651Y066411D01*
X062651Y066411D02*
X062651Y065891D01*
X061651Y065891D02*
X061651Y066411D01*
X060651Y066411D02*
X060651Y065891D01*
X059651Y065891D02*
X059651Y066411D01*
X059651Y063411D02*
X059651Y062891D01*
X060651Y062891D02*
X060651Y063411D01*
X061651Y063411D02*
X061651Y062891D01*
X062651Y062891D02*
X062651Y063411D01*
X063651Y063411D02*
X063651Y062891D01*
X064651Y062891D02*
X064651Y063411D01*
X065651Y063411D02*
X065651Y062891D01*
X066651Y062891D02*
X066651Y063411D01*
X053911Y055151D02*
X053391Y055151D01*
X053391Y054151D02*
X053911Y054151D01*
X053911Y053151D02*
X053391Y053151D01*
X053391Y052151D02*
X053911Y052151D01*
X053911Y051151D02*
X053391Y051151D01*
X053391Y050151D02*
X053911Y050151D01*
X053911Y049151D02*
X053391Y049151D01*
X053391Y048151D02*
X053911Y048151D01*
X053911Y047151D02*
X053391Y047151D01*
X053391Y046151D02*
X053911Y046151D01*
X053911Y045151D02*
X053391Y045151D01*
X053391Y044151D02*
X053911Y044151D01*
X053911Y043151D02*
X053391Y043151D01*
X053391Y042151D02*
X053911Y042151D01*
X053911Y041151D02*
X053391Y041151D01*
X053391Y040151D02*
X053911Y040151D01*
X053911Y039151D02*
X053391Y039151D01*
X053391Y038151D02*
X053911Y038151D01*
X053911Y037151D02*
X053391Y037151D01*
X053391Y036151D02*
X053911Y036151D01*
X046161Y036151D02*
X045641Y036151D01*
X045641Y037151D02*
X046161Y037151D01*
X046161Y038151D02*
X045641Y038151D01*
X045641Y039151D02*
X046161Y039151D01*
X046161Y040151D02*
X045641Y040151D01*
X045641Y041151D02*
X046161Y041151D01*
X046161Y042151D02*
X045641Y042151D01*
X045641Y043151D02*
X046161Y043151D01*
X046161Y044151D02*
X045641Y044151D01*
X045641Y045151D02*
X046161Y045151D01*
X046161Y046151D02*
X045641Y046151D01*
X045641Y047151D02*
X046161Y047151D01*
X046161Y048151D02*
X045641Y048151D01*
X045641Y049151D02*
X046161Y049151D01*
X046161Y050151D02*
X045641Y050151D01*
X045641Y051151D02*
X046161Y051151D01*
X046161Y052151D02*
X045641Y052151D01*
X045641Y053151D02*
X046161Y053151D01*
X046161Y054151D02*
X045641Y054151D01*
X045641Y055151D02*
X046161Y055151D01*
X040161Y055151D02*
X039641Y055151D01*
X039641Y054151D02*
X040161Y054151D01*
X040161Y053151D02*
X039641Y053151D01*
X039641Y052151D02*
X040161Y052151D01*
X040161Y051151D02*
X039641Y051151D01*
X039641Y050151D02*
X040161Y050151D01*
X040161Y049151D02*
X039641Y049151D01*
X039641Y048151D02*
X040161Y048151D01*
X040161Y047151D02*
X039641Y047151D01*
X039641Y046151D02*
X040161Y046151D01*
X040161Y045151D02*
X039641Y045151D01*
X039641Y044151D02*
X040161Y044151D01*
X040161Y043151D02*
X039641Y043151D01*
X039641Y042151D02*
X040161Y042151D01*
X040161Y041151D02*
X039641Y041151D01*
X039641Y040151D02*
X040161Y040151D01*
X040161Y039151D02*
X039641Y039151D01*
X039641Y038151D02*
X040161Y038151D01*
X040161Y037151D02*
X039641Y037151D01*
X039641Y036151D02*
X040161Y036151D01*
X039151Y034161D02*
X039151Y033641D01*
X038151Y033641D02*
X038151Y034161D01*
X037151Y034161D02*
X037151Y033641D01*
X036151Y033641D02*
X036151Y034161D01*
X035151Y034161D02*
X035151Y033641D01*
X034151Y033641D02*
X034151Y034161D01*
X033151Y034161D02*
X033151Y033641D01*
X033151Y031161D02*
X033151Y030641D01*
X034151Y030641D02*
X034151Y031161D01*
X035151Y031161D02*
X035151Y030641D01*
X036151Y030641D02*
X036151Y031161D01*
X037151Y031161D02*
X037151Y030641D01*
X038151Y030641D02*
X038151Y031161D01*
X039151Y031161D02*
X039151Y030641D01*
X039641Y028651D02*
X040161Y028651D01*
X040161Y027651D02*
X039641Y027651D01*
X039641Y026651D02*
X040161Y026651D01*
X040161Y025651D02*
X039641Y025651D01*
X039641Y024651D02*
X040161Y024651D01*
X040161Y023651D02*
X039641Y023651D01*
X039641Y022651D02*
X040161Y022651D01*
X040161Y021651D02*
X039641Y021651D01*
X039641Y020651D02*
X040161Y020651D01*
X040161Y019651D02*
X039641Y019651D01*
X039641Y018651D02*
X040161Y018651D01*
X040161Y017651D02*
X039641Y017651D01*
X039641Y016651D02*
X040161Y016651D01*
X040161Y015651D02*
X039641Y015651D01*
X045641Y015651D02*
X046161Y015651D01*
X046161Y016651D02*
X045641Y016651D01*
X045641Y017651D02*
X046161Y017651D01*
X046161Y018651D02*
X045641Y018651D01*
X045641Y019651D02*
X046161Y019651D01*
X046161Y020651D02*
X045641Y020651D01*
X045641Y021651D02*
X046161Y021651D01*
X046161Y022651D02*
X045641Y022651D01*
X045641Y023651D02*
X046161Y023651D01*
X046161Y024651D02*
X045641Y024651D01*
X045641Y025651D02*
X046161Y025651D01*
X046161Y026651D02*
X045641Y026651D01*
X045641Y027651D02*
X046161Y027651D01*
X046161Y028651D02*
X045641Y028651D01*
X050641Y028651D02*
X051161Y028651D01*
X051161Y027651D02*
X050641Y027651D01*
X050641Y026651D02*
X051161Y026651D01*
X051161Y025651D02*
X050641Y025651D01*
X050641Y024651D02*
X051161Y024651D01*
X051161Y023651D02*
X050641Y023651D01*
X050641Y022651D02*
X051161Y022651D01*
X051161Y021651D02*
X050641Y021651D01*
X050641Y020651D02*
X051161Y020651D01*
X051161Y019651D02*
X050641Y019651D01*
X050641Y018651D02*
X051161Y018651D01*
X051161Y017651D02*
X050641Y017651D01*
X050641Y016651D02*
X051161Y016651D01*
X051161Y015651D02*
X050641Y015651D01*
X056641Y015651D02*
X057161Y015651D01*
X057161Y016651D02*
X056641Y016651D01*
X056641Y017651D02*
X057161Y017651D01*
X057161Y018651D02*
X056641Y018651D01*
X056641Y019651D02*
X057161Y019651D01*
X057161Y020651D02*
X056641Y020651D01*
X056641Y021651D02*
X057161Y021651D01*
X057161Y022651D02*
X056641Y022651D01*
X056641Y023651D02*
X057161Y023651D01*
X057161Y024651D02*
X056641Y024651D01*
X056641Y025651D02*
X057161Y025651D01*
X057161Y026651D02*
X056641Y026651D01*
X056641Y027651D02*
X057161Y027651D01*
X057161Y028651D02*
X056641Y028651D01*
X032411Y036151D02*
X031891Y036151D01*
X031891Y037151D02*
X032411Y037151D01*
X032411Y038151D02*
X031891Y038151D01*
X031891Y039151D02*
X032411Y039151D01*
X032411Y040151D02*
X031891Y040151D01*
X031891Y041151D02*
X032411Y041151D01*
X032411Y042151D02*
X031891Y042151D01*
X031891Y043151D02*
X032411Y043151D01*
X032411Y044151D02*
X031891Y044151D01*
X031891Y045151D02*
X032411Y045151D01*
X032411Y046151D02*
X031891Y046151D01*
X031891Y047151D02*
X032411Y047151D01*
X032411Y048151D02*
X031891Y048151D01*
X031891Y049151D02*
X032411Y049151D01*
X032411Y050151D02*
X031891Y050151D01*
X031891Y051151D02*
X032411Y051151D01*
X032411Y052151D02*
X031891Y052151D01*
X031891Y053151D02*
X032411Y053151D01*
X032411Y054151D02*
X031891Y054151D01*
X031891Y055151D02*
X032411Y055151D01*
X026411Y055151D02*
X025891Y055151D01*
X025891Y054151D02*
X026411Y054151D01*
X026411Y053151D02*
X025891Y053151D01*
X025891Y052151D02*
X026411Y052151D01*
X026411Y051151D02*
X025891Y051151D01*
X025891Y050151D02*
X026411Y050151D01*
X026411Y049151D02*
X025891Y049151D01*
X025891Y048151D02*
X026411Y048151D01*
X026411Y047151D02*
X025891Y047151D01*
X025891Y046151D02*
X026411Y046151D01*
X026411Y045151D02*
X025891Y045151D01*
X025891Y044151D02*
X026411Y044151D01*
X026411Y043151D02*
X025891Y043151D01*
X025891Y042151D02*
X026411Y042151D01*
X026411Y041151D02*
X025891Y041151D01*
X025891Y040151D02*
X026411Y040151D01*
X026411Y039151D02*
X025891Y039151D01*
X025891Y038151D02*
X026411Y038151D01*
X026411Y037151D02*
X025891Y037151D01*
X025891Y036151D02*
X026411Y036151D01*
X020661Y036151D02*
X020141Y036151D01*
X020141Y037151D02*
X020661Y037151D01*
X020661Y038151D02*
X020141Y038151D01*
X020141Y039151D02*
X020661Y039151D01*
X020661Y040151D02*
X020141Y040151D01*
X020141Y041151D02*
X020661Y041151D01*
X020661Y042151D02*
X020141Y042151D01*
X020141Y043151D02*
X020661Y043151D01*
X020661Y044151D02*
X020141Y044151D01*
X020141Y045151D02*
X020661Y045151D01*
X020661Y046151D02*
X020141Y046151D01*
X020141Y047151D02*
X020661Y047151D01*
X020661Y048151D02*
X020141Y048151D01*
X020141Y049151D02*
X020661Y049151D01*
X020661Y050151D02*
X020141Y050151D01*
X020141Y051151D02*
X020661Y051151D01*
X020661Y052151D02*
X020141Y052151D01*
X020141Y053151D02*
X020661Y053151D01*
X020661Y054151D02*
X020141Y054151D01*
X020141Y055151D02*
X020661Y055151D01*
X014661Y055151D02*
X014141Y055151D01*
X014141Y054151D02*
X014661Y054151D01*
X014661Y053151D02*
X014141Y053151D01*
X014141Y052151D02*
X014661Y052151D01*
X014661Y051151D02*
X014141Y051151D01*
X014141Y050151D02*
X014661Y050151D01*
X014661Y049151D02*
X014141Y049151D01*
X014141Y048151D02*
X014661Y048151D01*
X014661Y047151D02*
X014141Y047151D01*
X014141Y046151D02*
X014661Y046151D01*
X014661Y045151D02*
X014141Y045151D01*
X014141Y044151D02*
X014661Y044151D01*
X014661Y043151D02*
X014141Y043151D01*
X014141Y042151D02*
X014661Y042151D01*
X014661Y041151D02*
X014141Y041151D01*
X014141Y040151D02*
X014661Y040151D01*
X014661Y039151D02*
X014141Y039151D01*
X014141Y038151D02*
X014661Y038151D01*
X014661Y037151D02*
X014141Y037151D01*
X014141Y036151D02*
X014661Y036151D01*
X015401Y032661D02*
X015401Y032141D01*
X016401Y032141D02*
X016401Y032661D01*
X017401Y032661D02*
X017401Y032141D01*
X018401Y032141D02*
X018401Y032661D01*
X019401Y032661D02*
X019401Y032141D01*
X020401Y032141D02*
X020401Y032661D01*
X021401Y032661D02*
X021401Y032141D01*
X022401Y032141D02*
X022401Y032661D01*
X023401Y032661D02*
X023401Y032141D01*
X024401Y032141D02*
X024401Y032661D01*
X024401Y029661D02*
X024401Y029141D01*
X023401Y029141D02*
X023401Y029661D01*
X022401Y029661D02*
X022401Y029141D01*
X021401Y029141D02*
X021401Y029661D01*
X020401Y029661D02*
X020401Y029141D01*
X019401Y029141D02*
X019401Y029661D01*
X018401Y029661D02*
X018401Y029141D01*
X017401Y029141D02*
X017401Y029661D01*
X016401Y029661D02*
X016401Y029141D01*
X015401Y029141D02*
X015401Y029661D01*
X012401Y029661D02*
X012401Y029141D01*
X011401Y029141D02*
X011401Y029661D01*
X010401Y029661D02*
X010401Y029141D01*
X009401Y029141D02*
X009401Y029661D01*
X008401Y029661D02*
X008401Y029141D01*
X007401Y029141D02*
X007401Y029661D01*
X006401Y029661D02*
X006401Y029141D01*
X005401Y029141D02*
X005401Y029661D01*
X004401Y029661D02*
X004401Y029141D01*
X003401Y029141D02*
X003401Y029661D01*
X003401Y032141D02*
X003401Y032661D01*
X004401Y032661D02*
X004401Y032141D01*
X005401Y032141D02*
X005401Y032661D01*
X006401Y032661D02*
X006401Y032141D01*
X007401Y032141D02*
X007401Y032661D01*
X008401Y032661D02*
X008401Y032141D01*
X009401Y032141D02*
X009401Y032661D01*
X010401Y032661D02*
X010401Y032141D01*
X011401Y032141D02*
X011401Y032661D01*
X012401Y032661D02*
X012401Y032141D01*
X012641Y022401D02*
X013161Y022401D01*
X013161Y021401D02*
X012641Y021401D01*
X012641Y020401D02*
X013161Y020401D01*
X013161Y019401D02*
X012641Y019401D01*
X012641Y018401D02*
X013161Y018401D01*
X013161Y017401D02*
X012641Y017401D01*
X010651Y018141D02*
X010651Y018661D01*
X009651Y018661D02*
X009651Y018141D01*
X008651Y018141D02*
X008651Y018661D01*
X007651Y018661D02*
X007651Y018141D01*
X006651Y018141D02*
X006651Y018661D01*
X005651Y018661D02*
X005651Y018141D01*
X004651Y018141D02*
X004651Y018661D01*
X004651Y015661D02*
X004651Y015141D01*
X005651Y015141D02*
X005651Y015661D01*
X006651Y015661D02*
X006651Y015141D01*
X007651Y015141D02*
X007651Y015661D01*
X008651Y015661D02*
X008651Y015141D01*
X009651Y015141D02*
X009651Y015661D01*
X010651Y015661D02*
X010651Y015141D01*
X012641Y015401D02*
X013161Y015401D01*
X013161Y016401D02*
X012641Y016401D01*
X012641Y014401D02*
X013161Y014401D01*
X013161Y013401D02*
X012641Y013401D01*
X012641Y012401D02*
X013161Y012401D01*
X013161Y011401D02*
X012641Y011401D01*
X018641Y011401D02*
X019161Y011401D01*
X019161Y012401D02*
X018641Y012401D01*
X018641Y013401D02*
X019161Y013401D01*
X019161Y014401D02*
X018641Y014401D01*
X018641Y015401D02*
X019161Y015401D01*
X019161Y016401D02*
X018641Y016401D01*
X018641Y017401D02*
X019161Y017401D01*
X019161Y018401D02*
X018641Y018401D01*
X018641Y019401D02*
X019161Y019401D01*
X019161Y020401D02*
X018641Y020401D01*
X018641Y021401D02*
X019161Y021401D01*
X019161Y022401D02*
X018641Y022401D01*
X006661Y048151D02*
X006141Y048151D01*
X003661Y048151D02*
X003141Y048151D01*
X003141Y049151D02*
X003661Y049151D01*
X003661Y050151D02*
X003141Y050151D01*
X003141Y051151D02*
X003661Y051151D01*
X006141Y051151D02*
X006661Y051151D01*
X006661Y050151D02*
X006141Y050151D01*
X006141Y049151D02*
X006661Y049151D01*
X006661Y052151D02*
X006141Y052151D01*
X006141Y053151D02*
X006661Y053151D01*
X006661Y054151D02*
X006141Y054151D01*
X003661Y054151D02*
X003141Y054151D01*
X003141Y053151D02*
X003661Y053151D01*
X003661Y052151D02*
X003141Y052151D01*
X038651Y060391D02*
X038651Y060911D01*
X039651Y060911D02*
X039651Y060391D01*
X040651Y060391D02*
X040651Y060911D01*
X041651Y060911D02*
X041651Y060391D01*
X042651Y060391D02*
X042651Y060911D01*
X043651Y060911D02*
X043651Y060391D01*
X044651Y060391D02*
X044651Y060911D01*
X045651Y060911D02*
X045651Y060391D01*
X046651Y060391D02*
X046651Y060911D01*
X074641Y046651D02*
X075161Y046651D01*
X075161Y045651D02*
X074641Y045651D01*
X074641Y044651D02*
X075161Y044651D01*
X075161Y043651D02*
X074641Y043651D01*
X074641Y042651D02*
X075161Y042651D01*
X077641Y042651D02*
X078161Y042651D01*
X078161Y043651D02*
X077641Y043651D01*
X077641Y044651D02*
X078161Y044651D01*
X078161Y045651D02*
X077641Y045651D01*
X077641Y046651D02*
X078161Y046651D01*
X078161Y041651D02*
X077641Y041651D01*
X077641Y040651D02*
X078161Y040651D01*
X075161Y040651D02*
X074641Y040651D01*
X074641Y041651D02*
X075161Y041651D01*
D11*
X071401Y040151D03*
X071401Y036151D03*
X064937Y036154D03*
X064937Y035154D03*
X071401Y032651D03*
X079151Y029651D03*
X079151Y028651D03*
X071401Y028651D03*
X058401Y028651D03*
X058401Y029651D03*
X052401Y034401D03*
X052401Y035401D03*
X046401Y034151D03*
X042401Y034151D03*
X041459Y034689D03*
X040459Y034689D03*
X031901Y034401D03*
X031901Y033401D03*
X032401Y029651D03*
X033401Y029651D03*
X025401Y033901D03*
X025401Y034901D03*
X013901Y032651D03*
X013901Y031651D03*
X002151Y032401D03*
X001151Y032401D03*
X010651Y022901D03*
X011651Y022901D03*
X003151Y018401D03*
X003151Y017401D03*
X005651Y013151D03*
X007651Y013151D03*
X009651Y012651D03*
X010651Y012651D03*
X018901Y008901D03*
X019901Y008901D03*
X016651Y008401D03*
X017901Y006901D03*
X017901Y005901D03*
X018901Y004901D03*
X019901Y004901D03*
X019401Y003901D03*
X018401Y003901D03*
X011901Y005401D03*
X011901Y006401D03*
X012651Y008401D03*
X010651Y008651D03*
X009651Y008651D03*
X027151Y011651D03*
X027151Y012651D03*
X033651Y012651D03*
X033651Y011651D03*
X042401Y011651D03*
X042401Y012651D03*
X049901Y012651D03*
X049901Y011651D03*
X059524Y011666D03*
X059524Y012666D03*
X062151Y012651D03*
X062151Y011651D03*
X063401Y010901D03*
X068901Y011651D03*
X068901Y012651D03*
X076651Y011651D03*
X080151Y011651D03*
X080151Y012651D03*
X085651Y012651D03*
X085651Y011651D03*
X095151Y011651D03*
X095151Y012651D03*
X102901Y012651D03*
X102901Y011651D03*
X119901Y011651D03*
X119901Y012651D03*
X125401Y012651D03*
X125401Y011651D03*
X125651Y010901D03*
X132901Y011651D03*
X132901Y012651D03*
X140401Y012651D03*
X140401Y011651D03*
X147901Y011651D03*
X147901Y012651D03*
X125651Y006901D03*
X095151Y027901D03*
X094151Y027901D03*
X102651Y028651D03*
X102651Y029651D03*
X115901Y029651D03*
X115901Y030651D03*
X125151Y030401D03*
X125151Y031401D03*
X126151Y030401D03*
X131651Y030401D03*
X131651Y031401D03*
X135401Y031401D03*
X135401Y030401D03*
X126151Y034401D03*
X124151Y040651D03*
X124151Y041651D03*
X126901Y042901D03*
X127401Y044151D03*
X125401Y044151D03*
X123401Y044151D03*
X120651Y045401D03*
X119401Y045401D03*
X118151Y045401D03*
X119401Y044151D03*
X123151Y046901D03*
X123151Y047901D03*
X120651Y049401D03*
X119401Y049401D03*
X118151Y049401D03*
X110401Y050901D03*
X110401Y051901D03*
X105901Y051901D03*
X105901Y050901D03*
X098401Y050901D03*
X098401Y051901D03*
X090151Y051901D03*
X090151Y050901D03*
X076901Y047901D03*
X075901Y047901D03*
X069901Y045901D03*
X068901Y045901D03*
X073401Y053151D03*
X074401Y053151D03*
X067901Y058901D03*
X066651Y058901D03*
X065901Y059401D03*
X066651Y059901D03*
X061151Y059151D03*
X061151Y055151D03*
X067901Y062901D03*
X073401Y064151D03*
X074651Y064151D03*
X075401Y064651D03*
X074651Y065151D03*
X073401Y065151D03*
X073401Y066651D03*
X069401Y066651D03*
X059651Y067401D03*
X058651Y067401D03*
X027651Y061651D03*
X026651Y061651D03*
X026651Y057651D03*
X027651Y057651D03*
X012151Y054151D03*
X012151Y053151D03*
X012151Y052151D03*
X012151Y051151D03*
X012151Y050151D03*
X012151Y049151D03*
X012151Y048151D03*
X012151Y046901D03*
X013151Y046901D03*
X008151Y048151D03*
X008151Y049151D03*
X008151Y050151D03*
X008151Y051151D03*
X008151Y052151D03*
X008151Y053151D03*
X008151Y054151D03*
X007151Y055151D03*
X007151Y056151D03*
X047151Y028651D03*
X048151Y028651D03*
X080652Y037620D03*
X081652Y037620D03*
X091151Y038651D03*
X091151Y039651D03*
X101651Y040651D03*
X101651Y041651D03*
X112901Y041651D03*
X112901Y040651D03*
X129651Y044151D03*
X130651Y044151D03*
X130901Y042901D03*
X140151Y044151D03*
X140151Y045151D03*
X140151Y047151D03*
X143651Y047151D03*
X143651Y045151D03*
X143651Y044151D03*
X143651Y051151D03*
X140151Y051151D03*
X105151Y063401D03*
X104151Y063401D03*
X103151Y063401D03*
X102151Y064151D03*
X101151Y064151D03*
X103151Y067401D03*
X104151Y067401D03*
X105151Y067401D03*
X102151Y068151D03*
X101151Y068151D03*
X098151Y067901D03*
X098151Y068901D03*
X143401Y031401D03*
X143401Y030401D03*
X146651Y030401D03*
X146651Y031401D03*
X076651Y007651D03*
X063401Y006901D03*
D12*
X016651Y006901D03*
X016651Y005901D03*
X016651Y004901D03*
X016651Y003901D03*
X013651Y003901D03*
X013651Y004901D03*
X013651Y005901D03*
X013651Y006901D03*
X006401Y005551D03*
X005451Y011651D03*
X007351Y011651D03*
D13*
X021151Y003651D03*
X136901Y055901D03*
D14*
X137901Y055901D03*
X021151Y004651D03*
D15*
X020518Y066773D02*
X020518Y067419D01*
X020784Y067419D01*
X020784Y066773D01*
X020518Y066773D01*
X020518Y066886D02*
X020784Y066886D01*
X020784Y066999D02*
X020518Y066999D01*
X020518Y067112D02*
X020784Y067112D01*
X020784Y067225D02*
X020518Y067225D01*
X020518Y067338D02*
X020784Y067338D01*
X022018Y067419D02*
X022018Y066773D01*
X022018Y067419D02*
X022284Y067419D01*
X022284Y066773D01*
X022018Y066773D01*
X022018Y066886D02*
X022284Y066886D01*
X022284Y066999D02*
X022018Y066999D01*
X022018Y067112D02*
X022284Y067112D01*
X022284Y067225D02*
X022018Y067225D01*
X022018Y067338D02*
X022284Y067338D01*
X023518Y067419D02*
X023518Y066773D01*
X023518Y067419D02*
X023784Y067419D01*
X023784Y066773D01*
X023518Y066773D01*
X023518Y066886D02*
X023784Y066886D01*
X023784Y066999D02*
X023518Y066999D01*
X023518Y067112D02*
X023784Y067112D01*
X023784Y067225D02*
X023518Y067225D01*
X023518Y067338D02*
X023784Y067338D01*
X025018Y067419D02*
X025018Y066773D01*
X025018Y067419D02*
X025284Y067419D01*
X025284Y066773D01*
X025018Y066773D01*
X025018Y066886D02*
X025284Y066886D01*
X025284Y066999D02*
X025018Y066999D01*
X025018Y067112D02*
X025284Y067112D01*
X025284Y067225D02*
X025018Y067225D01*
X025018Y067338D02*
X025284Y067338D01*
X026784Y067419D02*
X026784Y066773D01*
X026518Y066773D01*
X026518Y067419D01*
X026784Y067419D01*
X026784Y066886D02*
X026518Y066886D01*
X026518Y066999D02*
X026784Y066999D01*
X026784Y067112D02*
X026518Y067112D01*
X026518Y067225D02*
X026784Y067225D01*
X026784Y067338D02*
X026518Y067338D01*
X018768Y067419D02*
X018768Y066773D01*
X018768Y067419D02*
X019034Y067419D01*
X019034Y066773D01*
X018768Y066773D01*
X018768Y066886D02*
X019034Y066886D01*
X019034Y066999D02*
X018768Y066999D01*
X018768Y067112D02*
X019034Y067112D01*
X019034Y067225D02*
X018768Y067225D01*
X018768Y067338D02*
X019034Y067338D01*
X017268Y067419D02*
X017268Y066773D01*
X017268Y067419D02*
X017534Y067419D01*
X017534Y066773D01*
X017268Y066773D01*
X017268Y066886D02*
X017534Y066886D01*
X017534Y066999D02*
X017268Y066999D01*
X017268Y067112D02*
X017534Y067112D01*
X017534Y067225D02*
X017268Y067225D01*
X017268Y067338D02*
X017534Y067338D01*
X015768Y067419D02*
X015768Y066773D01*
X015768Y067419D02*
X016034Y067419D01*
X016034Y066773D01*
X015768Y066773D01*
X015768Y066886D02*
X016034Y066886D01*
X016034Y066999D02*
X015768Y066999D01*
X015768Y067112D02*
X016034Y067112D01*
X016034Y067225D02*
X015768Y067225D01*
X015768Y067338D02*
X016034Y067338D01*
X014268Y067419D02*
X014268Y066773D01*
X014268Y067419D02*
X014534Y067419D01*
X014534Y066773D01*
X014268Y066773D01*
X014268Y066886D02*
X014534Y066886D01*
X014534Y066999D02*
X014268Y066999D01*
X014268Y067112D02*
X014534Y067112D01*
X014534Y067225D02*
X014268Y067225D01*
X014268Y067338D02*
X014534Y067338D01*
X012518Y067419D02*
X012518Y066773D01*
X012518Y067419D02*
X012784Y067419D01*
X012784Y066773D01*
X012518Y066773D01*
X012518Y066886D02*
X012784Y066886D01*
X012784Y066999D02*
X012518Y066999D01*
X012518Y067112D02*
X012784Y067112D01*
X012784Y067225D02*
X012518Y067225D01*
X012518Y067338D02*
X012784Y067338D01*
X011018Y067419D02*
X011018Y066773D01*
X011018Y067419D02*
X011284Y067419D01*
X011284Y066773D01*
X011018Y066773D01*
X011018Y066886D02*
X011284Y066886D01*
X011284Y066999D02*
X011018Y066999D01*
X011018Y067112D02*
X011284Y067112D01*
X011284Y067225D02*
X011018Y067225D01*
X011018Y067338D02*
X011284Y067338D01*
X009518Y067419D02*
X009518Y066773D01*
X009518Y067419D02*
X009784Y067419D01*
X009784Y066773D01*
X009518Y066773D01*
X009518Y066886D02*
X009784Y066886D01*
X009784Y066999D02*
X009518Y066999D01*
X009518Y067112D02*
X009784Y067112D01*
X009784Y067225D02*
X009518Y067225D01*
X009518Y067338D02*
X009784Y067338D01*
X043268Y067169D02*
X043268Y066523D01*
X043268Y067169D02*
X043534Y067169D01*
X043534Y066523D01*
X043268Y066523D01*
X043268Y066636D02*
X043534Y066636D01*
X043534Y066749D02*
X043268Y066749D01*
X043268Y066862D02*
X043534Y066862D01*
X043534Y066975D02*
X043268Y066975D01*
X043268Y067088D02*
X043534Y067088D01*
X044768Y067169D02*
X044768Y066523D01*
X044768Y067169D02*
X045034Y067169D01*
X045034Y066523D01*
X044768Y066523D01*
X044768Y066636D02*
X045034Y066636D01*
X045034Y066749D02*
X044768Y066749D01*
X044768Y066862D02*
X045034Y066862D01*
X045034Y066975D02*
X044768Y066975D01*
X044768Y067088D02*
X045034Y067088D01*
X046268Y067169D02*
X046268Y066523D01*
X046268Y067169D02*
X046534Y067169D01*
X046534Y066523D01*
X046268Y066523D01*
X046268Y066636D02*
X046534Y066636D01*
X046534Y066749D02*
X046268Y066749D01*
X046268Y066862D02*
X046534Y066862D01*
X046534Y066975D02*
X046268Y066975D01*
X046268Y067088D02*
X046534Y067088D01*
X047518Y067169D02*
X047518Y066523D01*
X047518Y067169D02*
X047784Y067169D01*
X047784Y066523D01*
X047518Y066523D01*
X047518Y066636D02*
X047784Y066636D01*
X047784Y066749D02*
X047518Y066749D01*
X047518Y066862D02*
X047784Y066862D01*
X047784Y066975D02*
X047518Y066975D01*
X047518Y067088D02*
X047784Y067088D01*
X049518Y067169D02*
X049518Y066523D01*
X049518Y067169D02*
X049784Y067169D01*
X049784Y066523D01*
X049518Y066523D01*
X049518Y066636D02*
X049784Y066636D01*
X049784Y066749D02*
X049518Y066749D01*
X049518Y066862D02*
X049784Y066862D01*
X049784Y066975D02*
X049518Y066975D01*
X049518Y067088D02*
X049784Y067088D01*
X051018Y067169D02*
X051018Y066523D01*
X051018Y067169D02*
X051284Y067169D01*
X051284Y066523D01*
X051018Y066523D01*
X051018Y066636D02*
X051284Y066636D01*
X051284Y066749D02*
X051018Y066749D01*
X051018Y066862D02*
X051284Y066862D01*
X051284Y066975D02*
X051018Y066975D01*
X051018Y067088D02*
X051284Y067088D01*
X116768Y066773D02*
X116768Y067419D01*
X117034Y067419D01*
X117034Y066773D01*
X116768Y066773D01*
X116768Y066886D02*
X117034Y066886D01*
X117034Y066999D02*
X116768Y066999D01*
X116768Y067112D02*
X117034Y067112D01*
X117034Y067225D02*
X116768Y067225D01*
X116768Y067338D02*
X117034Y067338D01*
X118268Y067419D02*
X118268Y066773D01*
X118268Y067419D02*
X118534Y067419D01*
X118534Y066773D01*
X118268Y066773D01*
X118268Y066886D02*
X118534Y066886D01*
X118534Y066999D02*
X118268Y066999D01*
X118268Y067112D02*
X118534Y067112D01*
X118534Y067225D02*
X118268Y067225D01*
X118268Y067338D02*
X118534Y067338D01*
X119768Y067419D02*
X119768Y066773D01*
X119768Y067419D02*
X120034Y067419D01*
X120034Y066773D01*
X119768Y066773D01*
X119768Y066886D02*
X120034Y066886D01*
X120034Y066999D02*
X119768Y066999D01*
X119768Y067112D02*
X120034Y067112D01*
X120034Y067225D02*
X119768Y067225D01*
X119768Y067338D02*
X120034Y067338D01*
X121518Y067419D02*
X121518Y066773D01*
X121518Y067419D02*
X121784Y067419D01*
X121784Y066773D01*
X121518Y066773D01*
X121518Y066886D02*
X121784Y066886D01*
X121784Y066999D02*
X121518Y066999D01*
X121518Y067112D02*
X121784Y067112D01*
X121784Y067225D02*
X121518Y067225D01*
X121518Y067338D02*
X121784Y067338D01*
X123018Y067419D02*
X123018Y066773D01*
X123018Y067419D02*
X123284Y067419D01*
X123284Y066773D01*
X123018Y066773D01*
X123018Y066886D02*
X123284Y066886D01*
X123284Y066999D02*
X123018Y066999D01*
X123018Y067112D02*
X123284Y067112D01*
X123284Y067225D02*
X123018Y067225D01*
X123018Y067338D02*
X123284Y067338D01*
X124518Y067419D02*
X124518Y066773D01*
X124518Y067419D02*
X124784Y067419D01*
X124784Y066773D01*
X124518Y066773D01*
X124518Y066886D02*
X124784Y066886D01*
X124784Y066999D02*
X124518Y066999D01*
X124518Y067112D02*
X124784Y067112D01*
X124784Y067225D02*
X124518Y067225D01*
X124518Y067338D02*
X124784Y067338D01*
X126018Y067419D02*
X126018Y066773D01*
X126018Y067419D02*
X126284Y067419D01*
X126284Y066773D01*
X126018Y066773D01*
X126018Y066886D02*
X126284Y066886D01*
X126284Y066999D02*
X126018Y066999D01*
X126018Y067112D02*
X126284Y067112D01*
X126284Y067225D02*
X126018Y067225D01*
X126018Y067338D02*
X126284Y067338D01*
X127768Y067419D02*
X127768Y066773D01*
X127768Y067419D02*
X128034Y067419D01*
X128034Y066773D01*
X127768Y066773D01*
X127768Y066886D02*
X128034Y066886D01*
X128034Y066999D02*
X127768Y066999D01*
X127768Y067112D02*
X128034Y067112D01*
X128034Y067225D02*
X127768Y067225D01*
X127768Y067338D02*
X128034Y067338D01*
X129268Y067419D02*
X129268Y066773D01*
X129268Y067419D02*
X129534Y067419D01*
X129534Y066773D01*
X129268Y066773D01*
X129268Y066886D02*
X129534Y066886D01*
X129534Y066999D02*
X129268Y066999D01*
X129268Y067112D02*
X129534Y067112D01*
X129534Y067225D02*
X129268Y067225D01*
X129268Y067338D02*
X129534Y067338D01*
X130768Y067419D02*
X130768Y066773D01*
X130768Y067419D02*
X131034Y067419D01*
X131034Y066773D01*
X130768Y066773D01*
X130768Y066886D02*
X131034Y066886D01*
X131034Y066999D02*
X130768Y066999D01*
X130768Y067112D02*
X131034Y067112D01*
X131034Y067225D02*
X130768Y067225D01*
X130768Y067338D02*
X131034Y067338D01*
X132268Y067419D02*
X132268Y066773D01*
X132268Y067419D02*
X132534Y067419D01*
X132534Y066773D01*
X132268Y066773D01*
X132268Y066886D02*
X132534Y066886D01*
X132534Y066999D02*
X132268Y066999D01*
X132268Y067112D02*
X132534Y067112D01*
X132534Y067225D02*
X132268Y067225D01*
X132268Y067338D02*
X132534Y067338D01*
X134034Y067419D02*
X134034Y066773D01*
X133768Y066773D01*
X133768Y067419D01*
X134034Y067419D01*
X134034Y066886D02*
X133768Y066886D01*
X133768Y066999D02*
X134034Y066999D01*
X134034Y067112D02*
X133768Y067112D01*
X133768Y067225D02*
X134034Y067225D01*
X134034Y067338D02*
X133768Y067338D01*
D16*
X133976Y068791D03*
X132417Y068791D03*
X130858Y068791D03*
X129299Y068791D03*
X127740Y068791D03*
X126181Y068791D03*
X124622Y068791D03*
X123063Y068791D03*
X121504Y068791D03*
X119944Y068791D03*
X118385Y068791D03*
X116826Y068791D03*
X050976Y068791D03*
X049417Y068791D03*
X047858Y068791D03*
X046299Y068791D03*
X044740Y068791D03*
X043181Y068791D03*
X026726Y068791D03*
X025167Y068791D03*
X023608Y068791D03*
X022049Y068791D03*
X020490Y068791D03*
X018931Y068791D03*
X017372Y068791D03*
X015813Y068791D03*
X014254Y068791D03*
X012694Y068791D03*
X011135Y068791D03*
X009576Y068791D03*
D17*
X039651Y059326D02*
X039651Y058726D01*
X040651Y058726D02*
X040651Y059326D01*
X041651Y059326D02*
X041651Y058726D01*
X042651Y058726D02*
X042651Y059326D01*
X043651Y059326D02*
X043651Y058726D01*
X044651Y058726D02*
X044651Y059326D01*
X045651Y059326D02*
X045651Y058726D01*
X046651Y058726D02*
X046651Y059326D01*
X047651Y059326D02*
X047651Y058726D01*
X048651Y058726D02*
X048651Y059326D01*
X049651Y059326D02*
X049651Y058726D01*
X050651Y058726D02*
X050651Y059326D01*
X051651Y059326D02*
X051651Y058726D01*
X052651Y058726D02*
X052651Y059326D01*
X053651Y059326D02*
X053651Y058726D01*
X054651Y058726D02*
X054651Y059326D01*
X055651Y059326D02*
X055651Y058726D01*
X056651Y058726D02*
X056651Y059326D01*
X058651Y059326D02*
X058651Y058726D01*
X028201Y032901D02*
X027601Y032901D01*
X026851Y032901D02*
X026251Y032901D01*
X026251Y031901D02*
X026851Y031901D01*
X027601Y031901D02*
X028201Y031901D01*
X028201Y030901D02*
X027601Y030901D01*
X026851Y030901D02*
X026251Y030901D01*
X060901Y031851D02*
X060901Y032451D01*
X061901Y032451D02*
X061901Y031851D01*
X062901Y031851D02*
X062901Y032451D01*
X053201Y007901D02*
X052601Y007901D01*
X052601Y006901D02*
X053201Y006901D01*
X053201Y005901D02*
X052601Y005901D01*
X010701Y005401D02*
X010101Y005401D01*
X010101Y006401D02*
X010701Y006401D01*
X132351Y042901D02*
X132951Y042901D01*
X132951Y043901D02*
X132351Y043901D01*
X132351Y044901D02*
X132951Y044901D01*
X132951Y045901D02*
X132351Y045901D01*
X132351Y046901D02*
X132951Y046901D01*
X132951Y047901D02*
X132351Y047901D01*
X132351Y048901D02*
X132951Y048901D01*
X136101Y045151D02*
X136701Y045151D01*
X136701Y044151D02*
X136101Y044151D01*
X141401Y059851D02*
X141401Y060451D01*
X142401Y060451D02*
X142401Y059851D01*
X143401Y059851D02*
X143401Y060451D01*
D18*
X077481Y064151D02*
X076821Y064151D01*
X076821Y065151D02*
X077481Y065151D01*
X077481Y066151D02*
X076821Y066151D01*
D19*
X068901Y062901D03*
X068901Y058901D03*
X121901Y049401D03*
X121901Y045401D03*
X139151Y058401D03*
X139151Y062401D03*
D20*
X136301Y062401D03*
D21*
X137001Y062401D03*
D22*
X129651Y051901D03*
X128651Y051901D03*
X127651Y051901D03*
X126651Y051901D03*
X125651Y051901D03*
X124651Y051901D03*
X123651Y051901D03*
X122651Y051901D03*
X121651Y051901D03*
X135151Y049651D03*
X136151Y049651D03*
X137151Y049651D03*
X150151Y046401D03*
X151151Y046401D03*
X117401Y028401D03*
X116401Y028401D03*
X116401Y027401D03*
X116401Y026401D03*
X116401Y025401D03*
X117401Y025401D03*
X117401Y026401D03*
X117401Y027401D03*
X117401Y024401D03*
X116401Y024401D03*
X116401Y023401D03*
X117401Y023401D03*
X037651Y048651D03*
X023151Y041651D03*
X014401Y060651D03*
X012651Y060651D03*
X025901Y063151D03*
X002401Y008401D03*
X002401Y007401D03*
D23*
X090244Y065329D03*
X091701Y066786D03*
X093158Y065329D03*
D24*
X067135Y032401D03*
X065167Y032401D03*
D25*
X034409Y028651D02*
X033894Y028651D01*
X033894Y027651D02*
X034409Y027651D01*
X034409Y026651D02*
X033894Y026651D01*
X033894Y025651D02*
X034409Y025651D01*
X034409Y024651D02*
X033894Y024651D01*
X033894Y023651D02*
X034409Y023651D01*
X034409Y022651D02*
X033894Y022651D01*
X033894Y021651D02*
X034409Y021651D01*
X034409Y020651D02*
X033894Y020651D01*
X033894Y019651D02*
X034409Y019651D01*
X034409Y018651D02*
X033894Y018651D01*
X033894Y017651D02*
X034409Y017651D01*
X034409Y016651D02*
X033894Y016651D01*
X033894Y015651D02*
X034409Y015651D01*
X034409Y014651D02*
X033894Y014651D01*
X033894Y013651D02*
X034409Y013651D01*
X028409Y013651D02*
X027894Y013651D01*
X027894Y014651D02*
X028409Y014651D01*
X028409Y015651D02*
X027894Y015651D01*
X027894Y016651D02*
X028409Y016651D01*
X028409Y017651D02*
X027894Y017651D01*
X027894Y018651D02*
X028409Y018651D01*
X028409Y019651D02*
X027894Y019651D01*
X027894Y020651D02*
X028409Y020651D01*
X028409Y021651D02*
X027894Y021651D01*
X027894Y022651D02*
X028409Y022651D01*
X028409Y023651D02*
X027894Y023651D01*
X027894Y024651D02*
X028409Y024651D01*
X028409Y025651D02*
X027894Y025651D01*
X027894Y026651D02*
X028409Y026651D01*
X028409Y027651D02*
X027894Y027651D01*
X027894Y028651D02*
X028409Y028651D01*
X107394Y028901D02*
X107909Y028901D01*
X107909Y027901D02*
X107394Y027901D01*
X107394Y026901D02*
X107909Y026901D01*
X107909Y025901D02*
X107394Y025901D01*
X107394Y024901D02*
X107909Y024901D01*
X107909Y023901D02*
X107394Y023901D01*
X107394Y022901D02*
X107909Y022901D01*
X107909Y021901D02*
X107394Y021901D01*
X107394Y020901D02*
X107909Y020901D01*
X107909Y019901D02*
X107394Y019901D01*
X107394Y018901D02*
X107909Y018901D01*
X107909Y017901D02*
X107394Y017901D01*
X107394Y016901D02*
X107909Y016901D01*
X107909Y015901D02*
X107394Y015901D01*
X107394Y014901D02*
X107909Y014901D01*
X107909Y013901D02*
X107394Y013901D01*
X113394Y013901D02*
X113909Y013901D01*
X113909Y014901D02*
X113394Y014901D01*
X113394Y015901D02*
X113909Y015901D01*
X113909Y016901D02*
X113394Y016901D01*
X113394Y017901D02*
X113909Y017901D01*
X113909Y018901D02*
X113394Y018901D01*
X113394Y019901D02*
X113909Y019901D01*
X113909Y020901D02*
X113394Y020901D01*
X113394Y021901D02*
X113909Y021901D01*
X113909Y022901D02*
X113394Y022901D01*
X113394Y023901D02*
X113909Y023901D01*
X113909Y024901D02*
X113394Y024901D01*
X113394Y025901D02*
X113909Y025901D01*
X113909Y026901D02*
X113394Y026901D01*
X113394Y027901D02*
X113909Y027901D01*
X113909Y028901D02*
X113394Y028901D01*
D26*
X112151Y028501D03*
X112151Y027901D03*
X112151Y027301D03*
X032901Y027501D03*
X032901Y026901D03*
X032901Y026301D03*
D27*
X032901Y026901D02*
X033401Y026901D01*
X033651Y026651D01*
X034151Y026651D01*
X032901Y026901D02*
X032901Y027401D01*
X032901Y027501D02*
X033501Y027501D01*
X033651Y027651D01*
X034151Y027651D01*
X036651Y061651D02*
X027651Y061651D01*
X026651Y061651D01*
X047401Y063151D02*
X047901Y062651D01*
X056151Y062651D01*
X057901Y064401D01*
X057901Y067651D01*
X058901Y068651D01*
X076151Y068651D01*
X077151Y065151D02*
X079151Y065151D01*
X081901Y062401D01*
X093401Y062401D01*
X071101Y063551D02*
X070501Y063551D01*
X070151Y063901D01*
X066901Y063901D01*
X066651Y063651D01*
X066651Y063151D01*
X047651Y065401D02*
X047401Y065151D01*
X047401Y063151D01*
X047651Y065401D02*
X047651Y065651D01*
X047651Y066846D01*
X113901Y050901D02*
X135901Y050901D01*
X137151Y049651D01*
X112151Y029651D02*
X112151Y028501D01*
X112151Y028401D02*
X112151Y027901D01*
X112651Y027901D01*
X112901Y027651D01*
X112901Y027151D01*
X113151Y026901D01*
X113651Y026901D01*
D28*
X145121Y053111D03*
X146701Y053111D03*
X148281Y053111D03*
X148281Y054991D03*
X146701Y054991D03*
X145121Y054991D03*
D29*
X153201Y055051D03*
X153201Y053051D03*
D30*
X152120Y061401D03*
X150939Y063252D03*
X149757Y061401D03*
D31*
X133951Y057701D02*
X133901Y057751D01*
X133901Y067096D01*
X132401Y067096D02*
X132401Y059151D01*
X131651Y058401D01*
X108151Y058401D01*
X104901Y055151D01*
X086151Y055151D01*
X081151Y050151D01*
X073151Y050151D01*
X071401Y048401D01*
X071401Y045651D01*
X068901Y043151D01*
X067901Y043151D01*
X067901Y042151D02*
X068401Y042151D01*
X068651Y041901D01*
X068651Y040901D01*
X068401Y040651D01*
X058651Y040651D01*
X058151Y041151D01*
X053651Y041151D01*
X053151Y040651D02*
X058151Y040651D01*
X058651Y040151D01*
X059651Y040151D01*
X059651Y039151D02*
X058651Y039151D01*
X058151Y039651D01*
X050651Y039651D01*
X050151Y039151D01*
X049651Y039151D02*
X045901Y039151D01*
X045901Y040151D02*
X052651Y040151D01*
X053151Y040651D01*
X052651Y041151D02*
X045901Y041151D01*
X043401Y041151D01*
X042901Y041651D01*
X038901Y041651D01*
X038401Y041151D01*
X032151Y041151D01*
X030151Y041151D01*
X028651Y039651D01*
X025151Y039651D01*
X023651Y041151D01*
X020401Y041151D01*
X020401Y042151D02*
X023901Y042151D01*
X025401Y040651D01*
X028901Y040651D01*
X030401Y042151D01*
X032151Y042151D01*
X038401Y042151D01*
X038901Y042651D01*
X043151Y042651D01*
X043651Y042151D01*
X045901Y042151D01*
X052651Y042151D01*
X053151Y042651D01*
X058151Y042651D01*
X058651Y042151D01*
X059651Y042151D01*
X059651Y043151D02*
X058651Y043151D01*
X058151Y043651D01*
X053151Y043651D01*
X052651Y043151D01*
X045901Y043151D01*
X043651Y043151D01*
X043151Y043651D01*
X038901Y043651D01*
X038401Y043151D01*
X032151Y043151D01*
X030651Y043151D01*
X029151Y041651D01*
X025151Y041651D01*
X023651Y043151D01*
X020401Y043151D01*
X020401Y044151D02*
X023651Y044151D01*
X025151Y042651D01*
X029401Y042651D01*
X030901Y044151D01*
X032151Y044151D01*
X038401Y044151D01*
X038901Y044651D01*
X043401Y044651D01*
X043901Y044151D01*
X045901Y044151D01*
X052651Y044151D01*
X053151Y044651D01*
X058151Y044651D01*
X058651Y044151D01*
X059651Y044151D01*
X059651Y045151D02*
X058651Y045151D01*
X058151Y045651D01*
X053151Y045651D01*
X052651Y045151D01*
X045901Y045151D01*
X044151Y045151D01*
X043651Y045651D01*
X038901Y045651D01*
X038401Y045151D01*
X032151Y045151D01*
X030901Y045151D01*
X029401Y043651D01*
X025151Y043651D01*
X023651Y045151D01*
X020401Y045151D01*
X020401Y046151D02*
X023651Y046151D01*
X025151Y044651D01*
X029651Y044651D01*
X030651Y045651D01*
X031151Y046151D01*
X032151Y046151D01*
X038651Y046151D01*
X039151Y046651D01*
X043651Y046651D01*
X044151Y046151D01*
X045901Y046151D01*
X052651Y046151D01*
X053151Y046651D01*
X058151Y046651D01*
X058651Y046151D01*
X059651Y046151D01*
X058651Y045651D02*
X063401Y045651D01*
X064401Y046651D01*
X065651Y046651D01*
X066151Y047151D01*
X066901Y047151D01*
X066401Y046651D02*
X065901Y046151D01*
X064651Y046151D01*
X063151Y044651D01*
X058651Y044651D01*
X058151Y045151D01*
X053651Y045151D01*
X053651Y044151D02*
X058151Y044151D01*
X058651Y043651D01*
X062651Y043651D01*
X063151Y042651D02*
X058651Y042651D01*
X058151Y043151D01*
X053651Y043151D01*
X053651Y042151D02*
X058151Y042151D01*
X058651Y041651D01*
X066651Y041651D01*
X067151Y041401D02*
X067401Y041151D01*
X067901Y041151D01*
X067151Y041401D02*
X067151Y041901D01*
X066901Y042151D01*
X064901Y042151D01*
X064901Y040151D02*
X066901Y040151D01*
X067401Y039651D01*
X068651Y039651D01*
X069151Y040151D01*
X069151Y042651D01*
X071901Y045401D01*
X071901Y048151D01*
X073401Y049651D01*
X081401Y049651D01*
X086401Y054651D01*
X105151Y054651D01*
X108401Y057901D01*
X128401Y057901D01*
X129651Y059901D02*
X107401Y059901D01*
X104151Y056651D01*
X085401Y056651D01*
X080901Y052151D01*
X071151Y052151D01*
X068651Y049651D01*
X067151Y049651D01*
X066651Y049151D01*
X064901Y049151D01*
X065401Y048651D02*
X064151Y048651D01*
X062651Y050151D01*
X060651Y050151D01*
X059651Y050151D02*
X058651Y050151D01*
X058151Y050651D01*
X053151Y050651D01*
X052651Y050151D01*
X049151Y050151D01*
X045901Y050151D01*
X045151Y050151D01*
X044651Y050651D01*
X034401Y050651D01*
X032901Y052151D01*
X032151Y052151D01*
X032151Y053151D02*
X031901Y053151D01*
X027401Y048651D01*
X024401Y048651D01*
X023401Y049651D01*
X016401Y049651D01*
X015901Y048651D02*
X015901Y041401D01*
X016651Y040651D01*
X023151Y040651D01*
X025151Y038651D01*
X028401Y038651D01*
X029901Y040151D01*
X032151Y040151D01*
X038151Y040151D01*
X038651Y040651D01*
X042401Y040651D01*
X042901Y040151D01*
X045901Y040151D01*
X048651Y039651D02*
X031401Y039651D01*
X030401Y038651D01*
X029151Y038651D01*
X030901Y038151D02*
X027151Y038151D01*
X026651Y037651D01*
X025151Y037651D01*
X024901Y037151D02*
X024401Y037651D01*
X018901Y037651D01*
X017901Y038651D01*
X018901Y038651D02*
X024401Y038651D01*
X024901Y038151D01*
X026151Y038151D01*
X026151Y037151D02*
X024901Y037151D01*
X026151Y037151D02*
X026651Y037151D01*
X027151Y037651D01*
X033401Y037651D01*
X033901Y037151D01*
X038651Y037151D01*
X039901Y037151D02*
X044401Y037151D01*
X044901Y037651D01*
X051651Y037651D01*
X052151Y037151D02*
X052651Y037651D01*
X058151Y037651D01*
X058651Y037151D01*
X059651Y037151D01*
X059651Y036151D02*
X058651Y036151D01*
X058151Y036651D01*
X052651Y036651D01*
X052151Y036151D01*
X045901Y036151D01*
X041401Y036151D01*
X040901Y036651D01*
X033651Y036651D01*
X033151Y037151D01*
X032151Y037151D01*
X027401Y037151D01*
X026901Y036651D01*
X016151Y036651D01*
X015401Y037401D01*
X015401Y049151D01*
X014901Y049651D01*
X007901Y049651D01*
X007401Y049151D01*
X006401Y049151D01*
X006401Y048151D02*
X008151Y048151D01*
X012151Y050151D02*
X014401Y050151D01*
X015151Y050651D02*
X012651Y050651D01*
X012151Y051151D01*
X010401Y051651D02*
X019401Y051651D01*
X019901Y051151D01*
X020401Y051151D01*
X019651Y050651D02*
X021151Y050651D01*
X021401Y050401D01*
X023901Y050401D01*
X024651Y049651D01*
X027651Y049651D01*
X031651Y053651D01*
X033151Y053651D01*
X032651Y053151D02*
X032151Y053151D01*
X032651Y053151D02*
X034151Y051651D01*
X044651Y051651D01*
X045151Y051151D01*
X045901Y051151D01*
X052401Y051151D01*
X052901Y051651D01*
X058151Y051651D01*
X058651Y051151D01*
X059651Y051151D01*
X058901Y051651D02*
X065651Y051651D01*
X065901Y051151D02*
X064901Y051151D01*
X065901Y051151D02*
X066901Y052151D01*
X067401Y052651D01*
X069651Y052651D01*
X069901Y052901D01*
X070151Y052151D02*
X067901Y052151D01*
X066901Y052151D02*
X066901Y050651D01*
X067401Y050151D01*
X067901Y050151D01*
X065901Y050651D02*
X058651Y050651D01*
X058151Y051151D01*
X053651Y051151D01*
X053651Y050151D02*
X058151Y050151D01*
X058651Y049651D01*
X061901Y049651D01*
X062151Y049401D01*
X062151Y048651D01*
X060901Y048151D02*
X063651Y048151D01*
X064151Y047651D02*
X058651Y047651D01*
X058151Y048151D01*
X053651Y048151D01*
X053151Y047651D02*
X052651Y047151D01*
X045901Y047151D01*
X044401Y047151D01*
X043901Y047651D01*
X039151Y047651D01*
X038651Y047151D01*
X032151Y047151D01*
X031151Y047151D01*
X030151Y046151D01*
X029651Y045651D01*
X025151Y045651D01*
X023651Y047151D01*
X020401Y047151D01*
X020401Y048151D02*
X023401Y048151D01*
X024901Y046651D01*
X029651Y046651D01*
X031151Y048151D01*
X032151Y048151D01*
X038651Y048151D01*
X039151Y048651D01*
X044401Y048651D01*
X044901Y048151D01*
X045901Y048151D01*
X052651Y048151D01*
X053151Y048651D01*
X058151Y048651D01*
X058651Y048151D01*
X059651Y048151D01*
X060401Y048651D02*
X058651Y048651D01*
X058151Y049151D01*
X053651Y049151D01*
X053151Y049651D02*
X058151Y049651D01*
X058651Y049151D01*
X059651Y049151D01*
X060401Y048651D02*
X060901Y048151D01*
X059651Y047151D02*
X058651Y047151D01*
X058151Y047651D01*
X053151Y047651D01*
X053651Y047151D02*
X058151Y047151D01*
X058651Y046651D01*
X061651Y046651D01*
X058651Y045651D02*
X058151Y046151D01*
X053651Y046151D01*
X050901Y046651D02*
X044401Y046651D01*
X043901Y047151D01*
X039901Y047151D01*
X039901Y048151D02*
X044151Y048151D01*
X044651Y047651D01*
X050151Y047651D01*
X052651Y049151D02*
X045901Y049151D01*
X044901Y049151D01*
X044401Y049651D01*
X039151Y049651D01*
X038651Y049151D01*
X032151Y049151D01*
X032151Y051151D02*
X031901Y051151D01*
X028401Y047651D01*
X024901Y047651D01*
X023901Y048651D01*
X016901Y048651D01*
X015401Y049151D02*
X020401Y049151D01*
X019651Y050651D02*
X019151Y051151D01*
X015651Y051151D01*
X015151Y050651D01*
X015901Y050651D02*
X018901Y050651D01*
X021651Y050901D02*
X021651Y054151D01*
X021401Y054401D01*
X021401Y056901D01*
X016901Y061401D01*
X013151Y061401D01*
X012651Y061901D01*
X012651Y067096D01*
X011151Y067096D02*
X011151Y061151D01*
X017151Y055151D01*
X018401Y055151D02*
X018401Y058151D01*
X018901Y058151D02*
X018901Y055151D01*
X019401Y054651D02*
X019901Y055151D01*
X020401Y055151D01*
X019401Y054651D02*
X007901Y054651D01*
X007651Y054276D01*
X007651Y052651D01*
X007151Y052151D01*
X006401Y052151D01*
X006901Y051151D02*
X007401Y051651D01*
X008901Y051651D01*
X009401Y052151D01*
X011401Y052151D01*
X011901Y052651D01*
X020901Y052651D01*
X021151Y052901D01*
X021151Y053901D01*
X020901Y054151D01*
X020401Y054151D01*
X020401Y053151D02*
X015651Y053151D01*
X015151Y053651D01*
X013901Y053651D01*
X013401Y053151D01*
X012151Y053151D01*
X012151Y052151D02*
X014401Y052151D01*
X014401Y054151D02*
X012151Y054151D01*
X006901Y051151D02*
X006401Y051151D01*
X018401Y044651D02*
X023651Y044651D01*
X025151Y043151D01*
X026151Y043151D01*
X029401Y043151D01*
X030901Y044651D01*
X037151Y044651D01*
X037651Y048651D02*
X038651Y048651D01*
X039151Y049151D01*
X039901Y049151D01*
X039901Y051151D02*
X044651Y051151D01*
X045151Y050651D01*
X052401Y050651D01*
X053151Y049651D02*
X052651Y049151D01*
X058401Y052151D02*
X058901Y051651D01*
X058901Y052151D02*
X059651Y052151D01*
X058901Y052151D02*
X058401Y052651D01*
X052901Y052651D01*
X052401Y052151D01*
X045901Y052151D01*
X045151Y052651D02*
X048401Y052651D01*
X048151Y053651D02*
X044901Y053651D01*
X044401Y053151D01*
X039901Y053151D01*
X039901Y052151D02*
X044651Y052151D01*
X045151Y052651D01*
X045151Y053151D02*
X044651Y052651D01*
X033901Y052651D01*
X032151Y054151D02*
X031651Y054151D01*
X031151Y053651D01*
X026901Y053651D01*
X026151Y053151D02*
X025651Y053151D01*
X024401Y054401D01*
X024401Y060901D01*
X022151Y063151D01*
X022151Y067096D01*
X020651Y067096D02*
X020651Y063151D01*
X023901Y059901D01*
X023901Y054401D01*
X024151Y054151D01*
X024151Y053401D01*
X025401Y052151D01*
X026151Y052151D01*
X026901Y052651D02*
X029401Y052651D01*
X026151Y051151D02*
X024651Y051151D01*
X023651Y052151D01*
X023651Y054151D01*
X023401Y054401D01*
X023401Y057901D01*
X018901Y062651D01*
X018901Y067096D01*
X017401Y067096D02*
X017401Y063151D01*
X022901Y057651D01*
X022901Y054401D01*
X023151Y054151D01*
X023151Y051901D01*
X024901Y050151D01*
X026151Y050151D01*
X022651Y051401D02*
X022651Y054151D01*
X022401Y054401D01*
X022401Y057401D01*
X017401Y062401D01*
X016151Y062401D01*
X015901Y062651D01*
X015901Y067096D01*
X014401Y067096D02*
X014401Y062401D01*
X014901Y061901D01*
X017151Y061901D01*
X021901Y057151D01*
X021901Y054401D01*
X022151Y054151D01*
X022151Y051151D01*
X025401Y054151D02*
X024901Y054651D01*
X024901Y061151D01*
X023651Y062401D01*
X023651Y067096D01*
X025151Y067096D02*
X025151Y061651D01*
X025401Y061401D01*
X025401Y057151D01*
X027151Y057151D01*
X027651Y057651D01*
X026651Y057651D02*
X026651Y059401D01*
X028151Y060901D01*
X037401Y060901D01*
X037901Y061401D01*
X046151Y061401D01*
X046401Y061651D01*
X046401Y065651D01*
X046401Y066846D01*
X044901Y066846D02*
X044901Y065651D01*
X044901Y064401D01*
X042401Y061901D01*
X038151Y061901D01*
X039151Y062401D02*
X042151Y062401D01*
X043151Y063401D01*
X043151Y065651D01*
X043401Y065901D01*
X043401Y066846D01*
X048901Y061901D02*
X059151Y061901D01*
X059651Y062401D01*
X059651Y063151D01*
X060651Y063151D02*
X060651Y062151D01*
X059901Y061401D01*
X049401Y061401D01*
X048651Y060651D01*
X048651Y059026D01*
X047651Y059026D02*
X047651Y060651D01*
X048901Y061901D01*
X049901Y060901D02*
X060401Y060901D01*
X061651Y062151D01*
X061651Y063151D01*
X062651Y063151D02*
X062651Y061901D01*
X061151Y060401D01*
X050901Y060401D01*
X050651Y060151D01*
X050651Y059026D01*
X049651Y059026D02*
X049651Y060651D01*
X049901Y060901D01*
X051651Y059401D02*
X052151Y059901D01*
X061651Y059901D01*
X063651Y061901D01*
X063651Y063151D01*
X064151Y063651D02*
X064401Y063901D01*
X065401Y063901D01*
X065651Y063651D01*
X065651Y063151D01*
X064651Y063151D02*
X064651Y059901D01*
X062401Y057651D01*
X053401Y057651D01*
X052651Y058401D01*
X052651Y059026D01*
X051651Y059026D02*
X051651Y059401D01*
X053651Y059026D02*
X053651Y058401D01*
X053901Y058151D01*
X062151Y058151D01*
X064151Y060151D01*
X064151Y063651D01*
X064151Y064901D02*
X065401Y064901D01*
X066151Y064151D01*
X066151Y060651D01*
X062651Y057151D01*
X056901Y057151D01*
X056151Y056401D01*
X056151Y055651D01*
X055901Y054601D02*
X057401Y056151D01*
X062651Y056151D01*
X063151Y056651D01*
X069651Y056651D01*
X074651Y061651D01*
X093401Y061651D01*
X094401Y062651D01*
X095651Y062651D01*
X096401Y062151D02*
X094651Y062151D01*
X093651Y061151D01*
X074901Y061151D01*
X069901Y056151D01*
X063401Y056151D01*
X062901Y055651D01*
X063151Y055151D02*
X063651Y055651D01*
X070151Y055651D01*
X075151Y060651D01*
X093901Y060651D01*
X094901Y061651D01*
X095651Y061651D01*
X096901Y061651D01*
X097401Y062151D01*
X103651Y062151D01*
X104151Y062651D01*
X104151Y063401D01*
X105151Y063401D01*
X127651Y063401D01*
X128401Y062651D02*
X129401Y063651D01*
X129401Y067096D01*
X130901Y067096D02*
X130901Y064151D01*
X131901Y063151D01*
X131901Y059401D01*
X131401Y058901D01*
X107901Y058901D01*
X104651Y055651D01*
X085901Y055651D01*
X080901Y050651D01*
X072901Y050651D01*
X070901Y048651D01*
X070901Y045901D01*
X069651Y044651D01*
X067401Y044651D01*
X066901Y044151D01*
X064901Y044151D01*
X069651Y042401D02*
X072401Y045151D01*
X072401Y047901D01*
X073651Y049151D01*
X081651Y049151D01*
X086651Y054151D01*
X105401Y054151D01*
X108651Y057401D01*
X133401Y057151D01*
X133951Y057701D01*
X130901Y059401D02*
X107651Y059401D01*
X104401Y056151D01*
X085651Y056151D01*
X081151Y051651D01*
X071651Y051651D01*
X068151Y048151D01*
X067901Y048151D01*
X069151Y047651D02*
X066401Y047651D01*
X065401Y048651D01*
X069651Y045901D02*
X070151Y046151D01*
X069901Y045901D02*
X069651Y045901D01*
X072901Y044901D02*
X072901Y047651D01*
X073901Y048651D01*
X081901Y048651D01*
X086901Y053651D01*
X105651Y053651D01*
X108901Y056901D01*
X119651Y056901D01*
X117651Y061901D02*
X106401Y061901D01*
X103151Y058651D01*
X084401Y058651D01*
X081401Y055651D01*
X077651Y055651D01*
X077151Y055151D01*
X075651Y055151D01*
X074401Y054151D02*
X073401Y055151D01*
X063651Y055151D01*
X063151Y054651D01*
X060651Y054651D01*
X060151Y055151D01*
X059651Y055151D01*
X057901Y055651D02*
X057151Y054901D01*
X057901Y055651D02*
X061901Y055651D01*
X062401Y055151D01*
X063151Y055151D01*
X063901Y054651D02*
X071401Y054651D01*
X074401Y054151D02*
X075651Y054151D01*
X078651Y054151D02*
X080651Y054151D01*
X084651Y058151D01*
X103401Y058151D01*
X106651Y061401D01*
X126151Y061401D01*
X124651Y062401D02*
X106151Y062401D01*
X102901Y059151D01*
X079901Y059151D01*
X078901Y058151D01*
X078651Y058151D01*
X077401Y059651D02*
X076901Y059151D01*
X075651Y059151D01*
X077401Y059651D02*
X102651Y059651D01*
X105901Y062901D01*
X123151Y062901D01*
X121401Y063901D02*
X106901Y063901D01*
X106651Y064151D01*
X102151Y064151D01*
X102151Y063401D01*
X103151Y063401D01*
X102151Y063401D02*
X102151Y063151D01*
X101651Y062651D01*
X098651Y062651D01*
X097901Y063651D02*
X096401Y062151D01*
X097901Y063651D02*
X098651Y063651D01*
X101151Y063651D01*
X101151Y064151D01*
X101151Y066651D02*
X098651Y066651D01*
X101151Y066651D02*
X101151Y068151D01*
X102151Y068151D02*
X104901Y068151D01*
X105151Y067901D01*
X105151Y067401D01*
X104151Y067401D02*
X103151Y067401D01*
X103151Y067151D01*
X102651Y066651D01*
X101151Y066651D01*
X106901Y060901D02*
X130901Y060901D01*
X131401Y060401D02*
X107151Y060401D01*
X103901Y057151D01*
X085151Y057151D01*
X080651Y052651D01*
X070651Y052651D01*
X070151Y052151D01*
X067901Y053151D02*
X067151Y053151D01*
X066651Y052651D01*
X058901Y052651D01*
X058401Y053151D01*
X053651Y053151D01*
X053651Y052151D02*
X058401Y052151D01*
X059651Y054151D02*
X063401Y054151D01*
X063901Y054651D01*
X066151Y053651D02*
X054651Y053651D01*
X054151Y054151D01*
X053651Y054151D01*
X053151Y054601D02*
X052651Y054151D01*
X045901Y054151D01*
X045151Y054651D02*
X044651Y054151D01*
X039901Y054151D01*
X045151Y054651D02*
X047151Y054651D01*
X045901Y053151D02*
X045151Y053151D01*
X051151Y056651D02*
X033651Y056651D01*
X032901Y057401D01*
X029901Y057401D01*
X028651Y056151D01*
X028401Y056151D01*
X029151Y057401D02*
X029651Y057901D01*
X033151Y057901D01*
X033901Y057151D01*
X051151Y057151D01*
X051151Y057651D02*
X034151Y057651D01*
X033401Y058401D01*
X029401Y058401D01*
X029151Y058151D01*
X028651Y058401D02*
X029151Y058901D01*
X033651Y058901D01*
X034401Y058151D01*
X051151Y058151D01*
X053151Y054601D02*
X055901Y054601D01*
X064901Y053151D02*
X066401Y053151D01*
X066901Y053651D01*
X080901Y053651D01*
X084901Y057651D01*
X103651Y057651D01*
X106901Y060901D01*
X120651Y049901D02*
X120901Y050151D01*
X128151Y050151D01*
X128651Y049651D01*
X128651Y048901D01*
X127651Y048901D02*
X126651Y048901D01*
X129651Y048901D02*
X130651Y048901D01*
X132651Y048901D01*
X132651Y046901D02*
X126901Y046901D01*
X126651Y046651D01*
X126651Y045901D01*
X124901Y045151D02*
X128401Y045151D01*
X128651Y045401D01*
X128651Y045901D01*
X129651Y045901D02*
X129651Y044151D01*
X129651Y043651D01*
X128901Y042901D01*
X126901Y042901D01*
X125401Y044151D02*
X124651Y044151D01*
X123401Y045401D01*
X121901Y045401D01*
X120651Y045401D01*
X118151Y045401D02*
X118151Y046151D01*
X120651Y048651D01*
X120651Y049401D01*
X120651Y049901D01*
X119401Y049401D02*
X118151Y049401D01*
X112901Y048401D02*
X111901Y048401D01*
X111401Y048901D01*
X105401Y048901D01*
X104401Y047901D01*
X101651Y047901D01*
X100651Y048901D01*
X097151Y048901D01*
X096651Y049401D01*
X095401Y049401D01*
X095401Y048401D02*
X096151Y048401D01*
X096651Y047901D01*
X100651Y047901D01*
X101151Y047401D01*
X102401Y046901D02*
X098901Y043401D01*
X098401Y043401D01*
X097651Y043401D01*
X096151Y044901D01*
X094151Y044901D01*
X092151Y046901D01*
X088901Y046901D01*
X088651Y046651D01*
X088651Y044401D01*
X088151Y043901D01*
X083651Y043901D01*
X083151Y044901D02*
X087901Y044901D01*
X088151Y045151D01*
X088151Y047901D01*
X088651Y048401D01*
X090151Y048401D01*
X092151Y048401D01*
X093651Y046901D01*
X096151Y046901D01*
X097651Y045401D01*
X098401Y045401D01*
X098401Y044401D02*
X097401Y044401D01*
X095901Y045901D01*
X093901Y045901D01*
X092401Y047401D01*
X090151Y047401D01*
X090151Y046401D02*
X091401Y046401D01*
X091651Y046151D01*
X091651Y044651D01*
X091151Y045901D02*
X089651Y045901D01*
X089401Y045651D01*
X089401Y042151D01*
X090151Y041401D01*
X089651Y040901D02*
X091651Y040901D01*
X094651Y043901D01*
X095901Y043901D01*
X097401Y042401D01*
X100651Y042401D01*
X101401Y043151D01*
X101401Y043901D01*
X102401Y044901D01*
X106401Y044901D01*
X108401Y046901D01*
X110901Y046901D01*
X111401Y047401D01*
X112901Y047401D01*
X111401Y045901D02*
X110901Y046401D01*
X109901Y046401D01*
X108901Y046401D01*
X106901Y044401D01*
X105901Y044401D01*
X109901Y043401D02*
X111151Y043401D01*
X112151Y044401D01*
X112901Y044401D01*
X114151Y045651D02*
X113901Y045901D01*
X111401Y045901D01*
X109901Y047401D02*
X107901Y047401D01*
X107401Y046901D01*
X102401Y046901D01*
X102901Y048401D02*
X103901Y048401D01*
X104901Y049401D01*
X105901Y049401D01*
X097651Y042901D02*
X096151Y044401D01*
X095401Y044401D01*
X094151Y044401D01*
X092151Y042401D01*
X090151Y042401D01*
X089401Y041401D02*
X089401Y041151D01*
X089651Y040901D01*
X089401Y041401D02*
X088901Y041901D01*
X086401Y041901D01*
X086151Y041651D01*
X083401Y041651D01*
X083401Y040901D02*
X088151Y040901D01*
X088651Y040401D01*
X090151Y040401D01*
X088901Y041151D02*
X088651Y041401D01*
X087151Y041401D01*
X087151Y042401D02*
X088901Y042401D01*
X092901Y036901D02*
X094401Y038401D01*
X098651Y038401D01*
X099401Y038401D01*
X100901Y036901D01*
X102151Y036901D01*
X106651Y032401D01*
X109901Y032401D01*
X109901Y031401D02*
X112901Y031401D01*
X112901Y033401D02*
X115901Y033401D01*
X118901Y036401D01*
X121151Y036401D01*
X124151Y036401D01*
X124151Y035401D02*
X125401Y035401D01*
X125901Y034901D01*
X126151Y034401D01*
X125151Y033901D02*
X128151Y033901D01*
X130151Y035901D01*
X134151Y035901D01*
X134651Y036401D01*
X135651Y036401D01*
X135651Y034401D02*
X134901Y034401D01*
X134401Y033901D01*
X129901Y033901D01*
X129151Y033151D01*
X127401Y033151D01*
X128901Y032651D02*
X123401Y032651D01*
X121651Y034401D01*
X121151Y034401D01*
X124151Y034401D02*
X124651Y034401D01*
X125151Y033901D01*
X122651Y035901D02*
X128401Y035901D01*
X130401Y037901D02*
X122901Y037901D01*
X122401Y037401D01*
X121151Y037401D01*
X120401Y036901D02*
X123151Y036901D01*
X123651Y037401D01*
X124151Y037401D01*
X122651Y035901D02*
X122151Y035401D01*
X121151Y035401D01*
X130401Y037901D02*
X131401Y038901D01*
X134401Y038901D01*
X134901Y039401D01*
X135651Y039401D01*
X140151Y041651D02*
X140151Y044151D01*
X136401Y044151D01*
X136401Y045151D02*
X140151Y045151D01*
X140151Y047151D01*
X143651Y047151D02*
X143651Y045151D01*
X143651Y044151D02*
X143651Y041901D01*
X143901Y041651D01*
X136401Y042401D02*
X118401Y042401D01*
X124651Y045401D02*
X124901Y045151D01*
X124651Y045401D02*
X124651Y045901D01*
X130651Y044151D02*
X131401Y044901D01*
X132651Y044901D01*
X143651Y049651D02*
X143651Y051151D01*
X140151Y051151D02*
X140151Y051901D01*
X138526Y053526D01*
X111901Y037401D02*
X110901Y038401D01*
X109901Y038401D01*
X110651Y037901D02*
X106651Y037901D01*
X100651Y037901D01*
X099401Y039151D01*
X098401Y039151D01*
X098651Y037401D02*
X095151Y037401D01*
X094651Y036901D01*
X095401Y036901D02*
X099151Y036901D01*
X099651Y036401D01*
X101651Y036401D01*
X100401Y034901D02*
X099401Y035901D01*
X097901Y035901D01*
X097401Y036401D01*
X095651Y036401D01*
X090151Y036401D01*
X090151Y035401D02*
X096151Y035401D01*
X097651Y033901D01*
X100151Y033901D01*
X100651Y033401D01*
X101651Y033401D01*
X102651Y034901D02*
X100401Y034901D01*
X102651Y034901D02*
X104151Y033401D01*
X102901Y031901D02*
X093151Y031901D01*
X091901Y030651D01*
X089401Y030651D01*
X088151Y031901D01*
X078651Y031901D01*
X078151Y032401D01*
X077401Y032401D01*
X076901Y032901D01*
X075651Y032901D01*
X074401Y031651D01*
X064651Y031651D01*
X063151Y033151D01*
X058901Y033151D01*
X058401Y032651D01*
X051151Y032651D01*
X050651Y033151D01*
X041901Y033151D01*
X041651Y033401D01*
X040651Y033401D01*
X039401Y034651D01*
X037401Y034651D01*
X037151Y034401D01*
X037151Y033901D01*
X035151Y033901D02*
X034151Y033901D01*
X033651Y032151D02*
X043401Y032151D01*
X043651Y032401D01*
X050651Y032401D01*
X051401Y033151D02*
X050901Y033651D01*
X041901Y033651D01*
X041651Y033901D01*
X040901Y033901D01*
X042401Y034151D02*
X042401Y035151D01*
X042151Y035401D01*
X041651Y036651D02*
X051901Y036651D01*
X052151Y037151D02*
X045901Y037151D01*
X045901Y038151D02*
X044651Y038151D01*
X044151Y037651D01*
X034151Y037651D01*
X033651Y038151D01*
X032151Y038151D01*
X031401Y038651D02*
X034901Y038651D01*
X035401Y038151D01*
X039901Y038151D01*
X036651Y038651D02*
X051901Y038651D01*
X052151Y038151D02*
X052651Y038651D01*
X058151Y038651D01*
X058651Y038151D01*
X059651Y038151D01*
X058651Y037651D02*
X068651Y037651D01*
X070151Y039151D01*
X070151Y042151D01*
X072901Y044901D01*
X073401Y044651D02*
X073401Y046401D01*
X073651Y046651D01*
X074901Y046651D01*
X076401Y045651D02*
X076901Y046151D01*
X078901Y046151D01*
X080151Y044901D01*
X080151Y043401D02*
X079901Y043151D01*
X073651Y043151D01*
X074901Y043651D02*
X075651Y043651D01*
X076401Y044401D01*
X076401Y045651D01*
X074901Y044651D02*
X074401Y044651D01*
X071401Y041651D01*
X071401Y040151D01*
X069651Y039901D02*
X068901Y039151D01*
X067901Y039151D01*
X069651Y039901D02*
X069651Y042401D01*
X070651Y041901D02*
X073401Y044651D01*
X070651Y041901D02*
X070651Y038901D01*
X068901Y037151D01*
X061401Y037151D01*
X060901Y036651D01*
X058651Y036651D01*
X058151Y037151D01*
X056401Y037151D01*
X058151Y038151D02*
X058651Y037651D01*
X058151Y038151D02*
X053651Y038151D01*
X052151Y038151D02*
X045901Y038151D01*
X043151Y034651D02*
X050651Y034651D01*
X051651Y033651D01*
X058151Y033651D01*
X058651Y034151D01*
X072901Y034151D01*
X074401Y033651D02*
X058651Y033651D01*
X058151Y033151D01*
X051401Y033151D01*
X049901Y029151D02*
X040401Y029151D01*
X039901Y028651D01*
X039901Y027651D02*
X039401Y027651D01*
X037901Y029151D01*
X026651Y029151D01*
X027151Y028151D02*
X026651Y027651D01*
X004401Y027651D01*
X003401Y028401D02*
X003401Y029401D01*
X003401Y030151D01*
X004401Y031151D01*
X004401Y032401D01*
X014401Y033151D02*
X020151Y033151D01*
X020401Y032901D01*
X020401Y032401D01*
X018401Y032401D02*
X018401Y031901D01*
X018151Y031651D01*
X015901Y031651D01*
X014651Y030151D02*
X018151Y030151D01*
X018401Y029901D01*
X018401Y029401D01*
X020901Y027151D02*
X025401Y027151D01*
X026901Y025651D01*
X028151Y025651D01*
X027651Y026151D02*
X026651Y027151D01*
X026151Y027151D01*
X025401Y026651D02*
X027401Y024651D01*
X028151Y024651D01*
X029151Y024651D01*
X029651Y025151D01*
X036151Y025151D01*
X037651Y026651D01*
X039901Y026651D01*
X044651Y026651D01*
X045151Y027151D01*
X046901Y027151D01*
X047401Y026651D01*
X050901Y026651D01*
X055401Y026651D01*
X055901Y027151D01*
X058401Y027151D01*
X058651Y027401D01*
X063151Y027401D01*
X063651Y027901D01*
X086401Y027901D01*
X085651Y026401D02*
X085901Y026151D01*
X085651Y026401D02*
X080151Y026401D01*
X079901Y026151D01*
X078651Y026151D01*
X077651Y025151D01*
X075151Y025151D01*
X073901Y026401D01*
X058901Y026401D01*
X058151Y025651D01*
X056901Y025651D01*
X055901Y025651D01*
X055401Y025151D01*
X047401Y025151D01*
X046901Y025651D01*
X045901Y025651D01*
X045151Y025651D01*
X044651Y025151D01*
X037651Y025151D01*
X036151Y023651D01*
X034151Y023651D01*
X033151Y023651D01*
X032651Y023151D01*
X027401Y023151D01*
X025401Y025151D01*
X023901Y025151D01*
X020651Y025151D01*
X020401Y025401D01*
X016901Y025401D01*
X016651Y024401D02*
X009401Y024401D01*
X008901Y023901D02*
X016151Y023901D01*
X016901Y023151D01*
X019151Y023151D01*
X019651Y022651D01*
X025401Y022651D01*
X027401Y020651D01*
X028151Y020651D01*
X031651Y020651D01*
X032901Y020651D01*
X033401Y021151D01*
X036401Y021151D01*
X037901Y022651D01*
X039901Y022651D01*
X044901Y022651D01*
X045401Y023151D01*
X046901Y023151D01*
X047401Y022651D01*
X050901Y022651D01*
X055901Y022651D01*
X056401Y023151D01*
X058401Y023151D01*
X059651Y024401D01*
X072901Y024401D01*
X075651Y021651D01*
X076151Y021651D01*
X075651Y022151D02*
X077651Y022151D01*
X078651Y023151D01*
X079651Y023151D01*
X080901Y024401D01*
X085901Y024401D01*
X086151Y024151D01*
X093901Y024151D01*
X096901Y027151D01*
X099401Y027151D01*
X100401Y026151D01*
X106651Y026151D01*
X106901Y026401D01*
X114151Y026401D01*
X114401Y026151D01*
X114401Y021401D01*
X116401Y021401D01*
X118901Y023901D01*
X129901Y023901D01*
X130651Y023151D01*
X141151Y023151D01*
X142151Y022151D01*
X144401Y022151D01*
X145151Y022901D01*
X145151Y024151D01*
X145651Y024651D01*
X146651Y024651D01*
X146651Y025651D02*
X143651Y025651D01*
X142401Y025651D01*
X140901Y024151D01*
X130651Y024151D01*
X128901Y025901D01*
X122901Y025901D01*
X122401Y025401D01*
X121151Y025401D01*
X124151Y026401D02*
X129401Y026401D01*
X131151Y024651D01*
X132401Y024651D01*
X129651Y023401D02*
X131401Y021651D01*
X132401Y021651D01*
X131151Y021151D02*
X144151Y021151D01*
X144651Y021651D01*
X146651Y021651D01*
X146651Y022651D02*
X147401Y022651D01*
X147651Y022401D01*
X147651Y019901D01*
X147401Y019651D01*
X131901Y019651D01*
X129401Y022151D01*
X118651Y022151D01*
X115901Y019401D01*
X111401Y019401D01*
X109901Y017901D01*
X107651Y017901D01*
X106901Y018401D02*
X109901Y018401D01*
X111401Y019901D01*
X113651Y019901D01*
X113651Y018901D02*
X111651Y018901D01*
X110151Y017401D01*
X106651Y017401D01*
X105901Y018151D01*
X102901Y018151D01*
X102401Y018401D02*
X102401Y016151D01*
X103151Y015401D01*
X117651Y015401D01*
X119151Y013901D01*
X122901Y013901D01*
X124151Y015651D02*
X124901Y015651D01*
X125151Y015901D01*
X125151Y018901D01*
X124901Y019151D01*
X122901Y019151D01*
X121901Y020151D01*
X118401Y020151D01*
X118651Y019651D02*
X117651Y018651D01*
X114901Y018651D01*
X114651Y018401D01*
X111901Y018401D01*
X110401Y016901D01*
X107651Y016901D01*
X107651Y015901D02*
X110151Y015901D01*
X111651Y017401D01*
X115026Y017401D01*
X115401Y017776D01*
X118026Y017776D01*
X118901Y018651D01*
X121151Y018651D01*
X121151Y017651D02*
X119401Y017651D01*
X118651Y016901D01*
X115901Y016901D01*
X115401Y016401D01*
X112401Y016401D01*
X111901Y015901D01*
X115151Y016901D02*
X115651Y017401D01*
X118401Y017401D01*
X119151Y018151D01*
X122651Y018151D01*
X123151Y017651D01*
X124151Y017651D01*
X124151Y016651D02*
X123151Y016651D01*
X122651Y017151D01*
X119401Y017151D01*
X118651Y016401D01*
X116151Y016401D01*
X116651Y015901D02*
X118651Y015901D01*
X119401Y016651D01*
X121151Y016651D01*
X122901Y018651D02*
X124151Y018651D01*
X122901Y018651D02*
X122401Y019151D01*
X118901Y019151D01*
X117901Y018151D01*
X115151Y018151D01*
X114901Y017901D01*
X116401Y019151D02*
X117901Y020651D01*
X121151Y020651D01*
X122401Y020651D01*
X123401Y019651D01*
X124151Y019651D01*
X123651Y020151D02*
X129901Y020151D01*
X131401Y018651D01*
X134901Y018651D01*
X137401Y019151D02*
X131651Y019151D01*
X130151Y020651D01*
X124151Y020651D01*
X123651Y020151D02*
X122151Y021651D01*
X121151Y021651D01*
X121151Y019651D02*
X118651Y019651D01*
X116401Y020401D02*
X111401Y020401D01*
X109901Y018901D01*
X107651Y018901D01*
X106901Y018401D02*
X106151Y019151D01*
X100401Y019151D01*
X099401Y020151D01*
X095651Y020151D01*
X094651Y019151D01*
X086901Y019151D01*
X086651Y018901D01*
X079901Y018901D01*
X079776Y018776D01*
X075526Y018776D01*
X074401Y019901D01*
X074401Y020401D01*
X074901Y019901D02*
X074901Y020901D01*
X074401Y021401D01*
X071651Y021401D01*
X069401Y020901D02*
X064651Y020901D01*
X064151Y021401D01*
X062901Y021401D01*
X062901Y020401D02*
X064151Y020401D01*
X064651Y019901D01*
X069901Y019901D01*
X070651Y019901D02*
X069651Y018901D01*
X064651Y018901D01*
X064151Y019401D01*
X062901Y019401D01*
X062901Y018401D02*
X064151Y018401D01*
X064651Y017901D01*
X069901Y017901D01*
X070901Y018901D01*
X072151Y018901D01*
X073651Y017401D01*
X079901Y017401D01*
X080151Y018401D02*
X074401Y018401D01*
X072901Y019901D01*
X070651Y019901D01*
X071651Y019401D02*
X072651Y019401D01*
X073901Y017901D01*
X086401Y017901D01*
X086651Y018151D01*
X092151Y018151D01*
X092651Y018651D01*
X093401Y018651D01*
X096651Y018651D01*
X097651Y019651D01*
X098651Y019651D01*
X097651Y018651D02*
X096651Y017651D01*
X093401Y017651D01*
X092651Y017651D01*
X092151Y017151D01*
X086651Y017151D01*
X086401Y016901D01*
X072901Y016901D01*
X072401Y017401D01*
X071651Y017401D01*
X072151Y016901D02*
X072651Y016401D01*
X080651Y016401D01*
X080401Y015526D02*
X072526Y015526D01*
X072151Y015901D01*
X064651Y015901D01*
X064151Y016401D01*
X062901Y016401D01*
X062151Y015901D02*
X063901Y015901D01*
X064401Y015401D01*
X065901Y015401D01*
X065901Y016401D02*
X064651Y016401D01*
X064151Y016901D01*
X062151Y016901D01*
X062901Y017401D02*
X064151Y017401D01*
X064651Y016901D01*
X072151Y016901D01*
X072151Y016401D02*
X071651Y016401D01*
X072151Y016401D02*
X072651Y015901D01*
X086401Y015901D01*
X086901Y016151D01*
X092151Y016151D01*
X092651Y016651D01*
X093401Y016651D01*
X093401Y019651D02*
X092151Y019651D01*
X090651Y021151D01*
X086901Y021151D01*
X085651Y019901D01*
X080401Y019901D01*
X079651Y019151D01*
X075651Y019151D01*
X074901Y019901D01*
X075401Y020401D02*
X075651Y020151D01*
X077401Y020151D01*
X077901Y020651D01*
X079151Y020651D01*
X078401Y020151D02*
X077901Y019651D01*
X076151Y019651D01*
X076151Y020651D02*
X076901Y020651D01*
X078401Y022151D01*
X080151Y022151D01*
X080901Y022901D01*
X086651Y022901D01*
X086901Y022651D01*
X087401Y022651D01*
X086901Y022151D02*
X087901Y022151D01*
X088901Y023151D01*
X093901Y023151D01*
X097151Y026401D01*
X097151Y026651D01*
X098651Y025651D02*
X099651Y025651D01*
X100151Y025151D01*
X105901Y025151D01*
X106651Y024401D01*
X106901Y023901D02*
X107651Y023901D01*
X106901Y023901D02*
X105651Y022651D01*
X101651Y022651D01*
X100651Y022151D02*
X105901Y022151D01*
X106651Y022901D01*
X107651Y022901D01*
X107651Y021901D02*
X108151Y021901D01*
X108401Y022151D01*
X108401Y025151D01*
X108151Y025401D01*
X106651Y025401D01*
X106401Y025651D01*
X101651Y025651D01*
X099651Y027651D02*
X096651Y027651D01*
X094151Y025151D01*
X086651Y025151D01*
X086401Y025401D01*
X080651Y025401D01*
X079901Y024651D01*
X079151Y024651D01*
X078651Y024151D02*
X078151Y023651D01*
X076151Y023651D01*
X075651Y023151D02*
X078151Y023151D01*
X078651Y023651D01*
X079151Y023651D01*
X078651Y024151D02*
X079901Y024151D01*
X080651Y024901D01*
X086151Y024901D01*
X086401Y024651D01*
X087401Y024651D01*
X085901Y023651D02*
X085651Y023901D01*
X080901Y023901D01*
X079651Y022651D01*
X079151Y022651D01*
X080151Y021651D02*
X080401Y021901D01*
X086651Y021901D01*
X086901Y022151D01*
X086901Y021651D02*
X086151Y020901D01*
X080901Y020901D01*
X079651Y019651D01*
X079151Y019651D01*
X079151Y021651D02*
X080151Y021651D01*
X075651Y022151D02*
X075151Y022651D01*
X075151Y022901D01*
X073901Y024151D01*
X073901Y024901D02*
X075651Y023151D01*
X075151Y024151D02*
X077401Y024151D01*
X078401Y025151D01*
X079651Y025151D01*
X080401Y025901D01*
X085151Y025901D01*
X085901Y023651D02*
X087401Y023651D01*
X087401Y021651D02*
X086901Y021651D01*
X086901Y020151D02*
X090651Y020151D01*
X091151Y019651D01*
X093401Y019651D02*
X093901Y019651D01*
X095401Y021151D01*
X099151Y021151D01*
X100651Y019651D01*
X101651Y019651D01*
X100901Y020151D02*
X106651Y020151D01*
X106901Y020401D01*
X109651Y020401D01*
X112151Y022901D01*
X113651Y022901D01*
X113651Y023901D02*
X112401Y023901D01*
X109901Y021401D01*
X106901Y021401D01*
X106651Y021651D01*
X101651Y021651D01*
X100901Y021151D02*
X106151Y021151D01*
X107651Y019901D02*
X109901Y019901D01*
X111401Y021401D01*
X114401Y021401D01*
X113651Y020901D02*
X116401Y020901D01*
X118901Y023401D01*
X121151Y023401D01*
X124151Y023401D02*
X129651Y023401D01*
X129651Y022651D02*
X131151Y021151D01*
X129651Y022651D02*
X118651Y022651D01*
X116401Y020401D01*
X117401Y023401D02*
X117401Y024401D01*
X117401Y025401D01*
X117401Y026401D01*
X117401Y027401D01*
X117401Y028401D01*
X117401Y028931D01*
X116561Y029771D01*
X113651Y028901D02*
X113651Y027901D01*
X112151Y027301D02*
X111251Y027301D01*
X109901Y028651D01*
X103651Y030401D02*
X103651Y031151D01*
X102901Y031901D01*
X098651Y034401D02*
X098151Y034401D01*
X096651Y035901D01*
X088901Y035901D01*
X088401Y036401D01*
X087151Y036401D01*
X084651Y036401D01*
X084151Y036151D02*
X084901Y035401D01*
X087151Y035401D01*
X088401Y034901D02*
X084401Y034901D01*
X083401Y035901D01*
X078651Y035901D01*
X078151Y035401D01*
X078151Y033651D01*
X078401Y033401D01*
X079151Y033401D01*
X077901Y032901D02*
X085151Y032901D01*
X085651Y033401D01*
X087151Y033401D01*
X087901Y033401D01*
X089401Y034901D01*
X092651Y034901D01*
X093401Y034901D02*
X090901Y032401D01*
X090151Y032401D01*
X090651Y032901D02*
X091151Y033401D01*
X091151Y034151D01*
X090901Y034401D01*
X090151Y034401D01*
X090651Y032901D02*
X085901Y032901D01*
X085401Y032401D01*
X079151Y032401D01*
X079151Y031401D02*
X078401Y031401D01*
X077901Y031901D01*
X075651Y031901D01*
X075401Y031651D01*
X075401Y031151D01*
X075151Y030901D01*
X070151Y030901D01*
X069901Y031151D01*
X040151Y031151D01*
X040651Y030651D02*
X067901Y030651D01*
X071401Y032651D02*
X074651Y032651D01*
X075401Y033401D01*
X076151Y033401D01*
X077401Y033401D02*
X077901Y032901D01*
X077401Y033401D02*
X077401Y036651D01*
X076651Y037401D01*
X076151Y037401D01*
X076651Y037901D02*
X072151Y037901D01*
X069651Y035401D01*
X066151Y035401D01*
X063151Y038651D02*
X058651Y038651D01*
X058151Y039151D01*
X053651Y039151D01*
X053651Y040151D02*
X058151Y040151D01*
X058651Y039651D01*
X064151Y039651D01*
X059651Y041151D02*
X058651Y041151D01*
X058151Y041651D01*
X053151Y041651D01*
X052651Y041151D01*
X043901Y031651D02*
X036401Y031651D01*
X036151Y031401D01*
X036151Y030901D01*
X038401Y028151D02*
X032151Y028151D01*
X027151Y028151D01*
X027651Y026151D02*
X029151Y026151D01*
X029301Y026301D01*
X032901Y026301D01*
X032651Y025651D02*
X034151Y025651D01*
X035901Y025651D01*
X037651Y027151D01*
X038651Y027151D01*
X039401Y027151D02*
X038401Y028151D01*
X039401Y027151D02*
X043651Y027151D01*
X044651Y027151D01*
X045151Y027651D01*
X045901Y027651D01*
X046901Y027651D01*
X047401Y027151D01*
X054901Y027151D01*
X055901Y028151D01*
X057651Y028151D01*
X057901Y027901D01*
X062901Y027901D01*
X063401Y026901D02*
X058901Y026901D01*
X057901Y026151D01*
X055901Y026151D01*
X055401Y025651D01*
X050901Y025651D01*
X047401Y025651D01*
X046901Y026151D01*
X045151Y026151D01*
X044651Y025651D01*
X041901Y025651D01*
X039901Y025651D01*
X037651Y025651D01*
X036151Y024151D01*
X032901Y024151D01*
X032401Y023651D01*
X028151Y023651D01*
X027401Y023651D01*
X025401Y025651D01*
X020901Y025651D01*
X020651Y025901D01*
X011151Y025901D01*
X011651Y026651D02*
X025401Y026651D01*
X025401Y026151D02*
X027401Y024151D01*
X029401Y024151D01*
X029901Y024651D01*
X034151Y024651D01*
X036151Y024651D01*
X037651Y026151D01*
X044651Y026151D01*
X045151Y026651D01*
X045901Y026651D01*
X046901Y026651D01*
X047401Y026151D01*
X055401Y026151D01*
X055901Y026651D01*
X056901Y026651D01*
X058151Y025151D02*
X058901Y025901D01*
X073901Y025901D01*
X075151Y024651D01*
X076151Y024651D01*
X075151Y024151D02*
X073901Y025401D01*
X058901Y025401D01*
X058151Y024651D01*
X056901Y024651D01*
X055901Y024651D01*
X055401Y024151D01*
X047401Y024151D01*
X046901Y024651D01*
X045901Y024651D01*
X045151Y024651D01*
X044651Y024151D01*
X037901Y024151D01*
X036401Y022651D01*
X034151Y022651D01*
X033401Y022651D01*
X032901Y022151D01*
X027401Y022151D01*
X025401Y024151D01*
X020151Y024151D01*
X019901Y024401D01*
X017401Y024401D01*
X017151Y023901D02*
X016651Y024401D01*
X017151Y023901D02*
X019651Y023901D01*
X019901Y023651D01*
X025401Y023651D01*
X027401Y021651D01*
X028151Y021651D01*
X032901Y021651D01*
X033401Y022151D01*
X036401Y022151D01*
X037901Y023651D01*
X039901Y023651D01*
X044651Y023651D01*
X045151Y024151D01*
X046901Y024151D01*
X047401Y023651D01*
X050901Y023651D01*
X055651Y023651D01*
X056151Y024151D01*
X058401Y024151D01*
X059151Y024901D01*
X073901Y024901D01*
X072651Y023901D02*
X075401Y021151D01*
X075401Y020401D01*
X068651Y021401D02*
X067901Y021401D01*
X067401Y021901D01*
X064651Y021901D01*
X064151Y022401D01*
X062901Y022401D01*
X062901Y023401D02*
X064401Y023401D01*
X064901Y022901D01*
X067651Y022901D01*
X068151Y023401D01*
X068651Y023401D01*
X065901Y022401D02*
X064651Y022401D01*
X064151Y022901D01*
X059651Y022901D01*
X059401Y022651D01*
X059401Y020151D01*
X058901Y019651D01*
X056901Y019651D01*
X056151Y019651D01*
X055651Y019151D01*
X047151Y019151D01*
X046651Y019651D01*
X045901Y019651D01*
X045401Y019651D01*
X044901Y019151D01*
X038151Y019151D01*
X036651Y017651D01*
X034151Y017651D01*
X033651Y018151D02*
X033151Y017651D01*
X028151Y017651D01*
X027151Y017651D01*
X024901Y019901D01*
X008401Y019901D01*
X008401Y020901D02*
X024901Y020901D01*
X027151Y018651D01*
X028151Y018651D01*
X033151Y018651D01*
X033651Y019151D01*
X036401Y019151D01*
X037901Y020651D01*
X039901Y020651D01*
X044901Y020651D01*
X045401Y021151D01*
X047151Y021151D01*
X047651Y020651D01*
X050901Y020651D01*
X050901Y019651D02*
X047401Y019651D01*
X046901Y020151D01*
X045401Y020151D01*
X044901Y019651D01*
X039901Y019651D01*
X038151Y019651D01*
X036651Y018151D01*
X033651Y018151D01*
X032651Y018151D02*
X027151Y018151D01*
X024901Y020401D01*
X022151Y020401D01*
X020651Y021401D02*
X025151Y021401D01*
X027401Y019151D01*
X032901Y019151D01*
X033401Y019651D01*
X034151Y019651D01*
X036401Y019651D01*
X037901Y021151D01*
X044901Y021151D01*
X045401Y021651D01*
X045901Y021651D01*
X047151Y021651D01*
X047651Y021151D01*
X055901Y021151D01*
X056401Y021651D01*
X056901Y021651D01*
X058401Y021651D01*
X058151Y022151D02*
X056401Y022151D01*
X055901Y021651D01*
X050901Y021651D01*
X047651Y021651D01*
X047151Y022151D01*
X045401Y022151D01*
X044901Y021651D01*
X039901Y021651D01*
X037901Y021651D01*
X036401Y020151D01*
X033151Y020151D01*
X032651Y019651D01*
X028151Y019651D01*
X027401Y019651D01*
X025151Y021901D01*
X008901Y021901D01*
X009901Y024901D02*
X020151Y024901D01*
X020401Y024651D01*
X025401Y024651D01*
X027401Y022651D01*
X028151Y022651D01*
X032901Y022651D01*
X033401Y023151D01*
X036151Y023151D01*
X037651Y024651D01*
X039901Y024651D01*
X044651Y024651D01*
X045151Y025151D01*
X046901Y025151D01*
X047401Y024651D01*
X050901Y024651D01*
X055401Y024651D01*
X055901Y025151D01*
X058151Y025151D01*
X059901Y023901D02*
X072651Y023901D01*
X074901Y026151D02*
X077901Y026151D01*
X076151Y026651D02*
X075651Y026651D01*
X075401Y026901D01*
X064151Y026901D01*
X063901Y027401D02*
X089401Y027401D01*
X089651Y027651D01*
X093401Y022651D02*
X093901Y022651D01*
X094151Y022401D01*
X094151Y020901D01*
X093901Y020651D01*
X093401Y020651D01*
X098651Y021651D02*
X100401Y021651D01*
X100901Y021151D01*
X100651Y022151D02*
X100151Y022651D01*
X098651Y022651D01*
X101651Y018651D02*
X102151Y018651D01*
X102401Y018401D01*
X099151Y013901D02*
X098151Y013901D01*
X097901Y014401D02*
X117401Y014401D01*
X121151Y010901D02*
X104651Y010901D01*
X105651Y010401D02*
X097901Y010401D01*
X097401Y010901D01*
X094651Y010901D01*
X097151Y010401D02*
X033651Y010401D01*
X035151Y008901D02*
X035651Y009401D01*
X041901Y009401D01*
X042401Y009901D01*
X045901Y009901D01*
X047151Y008401D02*
X046651Y007901D01*
X045901Y007901D01*
X044651Y007901D01*
X044151Y008401D01*
X036651Y008401D01*
X035651Y007401D01*
X030651Y007401D01*
X030151Y007901D01*
X029651Y007901D01*
X029151Y007901D01*
X028651Y007401D01*
X024901Y007401D01*
X024401Y006901D01*
X022901Y006901D01*
X022151Y007401D02*
X021401Y006651D01*
X021151Y007401D02*
X022151Y008401D01*
X024151Y008401D01*
X024651Y008901D01*
X025151Y008401D02*
X024151Y007401D01*
X022151Y007401D01*
X021151Y007401D02*
X015901Y007401D01*
X014901Y006401D01*
X014901Y005401D01*
X014401Y004901D01*
X013651Y004901D01*
X013651Y003901D02*
X014401Y003901D01*
X015401Y004901D01*
X015401Y005901D01*
X016401Y006901D01*
X016651Y006901D01*
X016651Y005901D02*
X016651Y004901D01*
X018901Y004901D01*
X019401Y004401D01*
X020901Y004401D01*
X021151Y004651D01*
X020901Y003901D02*
X019401Y003901D01*
X018401Y003901D02*
X016651Y003901D01*
X015651Y003151D02*
X026651Y003151D01*
X026901Y003401D01*
X047401Y003401D01*
X060651Y003401D01*
X061151Y004401D02*
X050401Y004401D01*
X050901Y004901D02*
X054151Y004901D01*
X054651Y005401D01*
X063401Y005401D01*
X064401Y004401D01*
X066401Y004401D01*
X066901Y004901D02*
X067401Y004401D01*
X070901Y004401D01*
X070401Y005401D02*
X067401Y005401D01*
X066401Y006401D01*
X062901Y006401D01*
X062401Y006901D01*
X058401Y006901D01*
X058401Y007901D02*
X056651Y007901D01*
X056151Y007401D01*
X054651Y007401D01*
X054151Y007901D01*
X052901Y007901D01*
X052901Y006901D02*
X052651Y006901D01*
X052151Y006401D01*
X045401Y006401D01*
X043401Y004401D01*
X028151Y004401D01*
X026651Y005901D01*
X025901Y005901D01*
X024651Y005901D02*
X023651Y004901D01*
X022901Y004901D01*
X021151Y003651D02*
X020901Y003901D01*
X019901Y004901D02*
X019901Y005901D01*
X018901Y006901D01*
X017901Y006901D01*
X020651Y007901D02*
X022151Y009401D01*
X028401Y009401D01*
X028901Y009901D01*
X029651Y009901D01*
X030901Y008401D02*
X025151Y008401D01*
X024151Y006401D02*
X023651Y005901D01*
X022901Y005901D01*
X024151Y006401D02*
X034151Y006401D01*
X036901Y006401D01*
X036401Y006901D02*
X032651Y006901D01*
X032651Y007901D02*
X031401Y007901D01*
X030901Y008401D01*
X032651Y008901D02*
X035151Y008901D01*
X036901Y007401D02*
X046651Y007401D01*
X053901Y007401D01*
X054401Y006901D01*
X055401Y006901D01*
X056901Y006901D01*
X057401Y007401D01*
X066401Y007401D01*
X067401Y006401D01*
X068901Y006401D01*
X069401Y006901D01*
X079901Y006901D01*
X080401Y007401D01*
X081901Y007401D01*
X083901Y005401D01*
X087901Y005401D01*
X088901Y006401D01*
X096151Y006401D01*
X096901Y006901D01*
X098651Y006901D01*
X098651Y005901D02*
X097901Y005901D01*
X096151Y004151D01*
X084151Y004151D01*
X081901Y006401D01*
X071401Y006401D01*
X070401Y005401D01*
X072901Y005901D02*
X080401Y005901D01*
X080901Y005401D01*
X082401Y005401D01*
X084026Y003776D01*
X094901Y003776D01*
X119026Y003776D01*
X119401Y003401D01*
X133901Y003401D01*
X133401Y003901D02*
X134901Y005401D01*
X137901Y005401D01*
X138401Y005901D01*
X139151Y005901D01*
X136151Y006901D02*
X135151Y006901D01*
X134651Y006401D01*
X130901Y006401D01*
X129901Y005401D01*
X125901Y005401D01*
X125401Y005901D01*
X124151Y005901D01*
X124151Y006901D02*
X125651Y006901D01*
X127651Y006901D01*
X128151Y006401D01*
X130151Y006401D01*
X130651Y006901D01*
X131651Y006901D01*
X131651Y005901D02*
X134901Y005901D01*
X135401Y006401D01*
X145401Y006401D01*
X145901Y005901D01*
X146651Y005901D01*
X147151Y005901D01*
X147401Y006151D01*
X147401Y008651D01*
X147151Y008901D01*
X146651Y008901D01*
X146651Y009901D02*
X145901Y009901D01*
X145401Y010401D01*
X128151Y010401D01*
X127651Y009901D01*
X126651Y009901D01*
X124151Y009901D01*
X121151Y009901D01*
X121151Y008901D02*
X119651Y008901D01*
X119151Y009401D01*
X116651Y009401D01*
X097401Y009401D01*
X096901Y009901D01*
X094651Y009901D01*
X096651Y009401D02*
X097651Y008401D01*
X129651Y008401D01*
X130401Y009151D01*
X130901Y008901D02*
X130901Y009651D01*
X131151Y009901D01*
X131651Y009901D01*
X130901Y008901D02*
X129401Y007401D01*
X105151Y007401D01*
X088401Y007401D01*
X086901Y005901D01*
X084401Y005901D01*
X084401Y006901D02*
X086651Y006901D01*
X087651Y007901D01*
X090401Y007901D01*
X087401Y008401D02*
X086401Y007401D01*
X083401Y007401D01*
X082401Y008401D01*
X080151Y008401D01*
X079901Y008651D01*
X069151Y008651D01*
X068901Y008401D01*
X047151Y008401D01*
X045901Y006901D02*
X043651Y006901D01*
X044651Y006401D02*
X039651Y006401D01*
X039151Y006901D01*
X038151Y006901D01*
X036901Y007401D02*
X036401Y006901D01*
X030901Y005401D02*
X042901Y005401D01*
X043901Y003901D02*
X027651Y003901D01*
X026651Y004901D01*
X025901Y004901D01*
X027151Y002901D02*
X047901Y002901D01*
X074401Y002901D01*
X076651Y005151D01*
X079651Y005151D01*
X081401Y003401D01*
X083151Y003401D01*
X084026Y003276D02*
X085651Y003276D01*
X086901Y002651D02*
X081651Y002651D01*
X079526Y004776D01*
X077026Y004776D01*
X074651Y002401D01*
X051401Y002401D01*
X028401Y002401D01*
X027151Y002901D02*
X026901Y002651D01*
X015151Y002651D01*
X011901Y006401D02*
X010401Y006401D01*
X011401Y007901D02*
X020651Y007901D01*
X029651Y005901D02*
X030401Y005901D01*
X030901Y005401D01*
X042901Y009401D02*
X056901Y009401D01*
X057401Y009901D01*
X058401Y009901D01*
X059901Y009401D02*
X083151Y009401D01*
X083651Y008901D01*
X084401Y008901D01*
X083401Y008401D02*
X082901Y008901D01*
X081401Y008901D01*
X081401Y009901D02*
X073401Y009901D01*
X075651Y008151D02*
X069151Y008151D01*
X068401Y007401D01*
X067401Y007401D01*
X066901Y007901D01*
X064901Y007901D01*
X064901Y006901D02*
X063401Y006901D01*
X063651Y005901D02*
X061151Y005901D01*
X062151Y006401D02*
X054901Y006401D01*
X053901Y005401D01*
X047651Y005401D01*
X047151Y005901D01*
X045901Y005901D01*
X044651Y004651D02*
X043901Y003901D01*
X044651Y003901D02*
X057401Y003901D01*
X058401Y004901D02*
X062401Y004901D01*
X063901Y003401D01*
X071651Y003401D01*
X074651Y003901D02*
X067901Y003901D01*
X067901Y004901D02*
X067401Y004901D01*
X066901Y005401D01*
X064151Y005401D01*
X063651Y005901D01*
X064901Y004901D02*
X066901Y004901D01*
X067901Y006901D02*
X068651Y006901D01*
X069151Y007401D01*
X075651Y007401D01*
X076401Y008151D01*
X077651Y008151D01*
X078401Y007401D01*
X079776Y005526D02*
X076276Y005526D01*
X074651Y003901D01*
X079776Y005526D02*
X080901Y004401D01*
X082901Y004401D01*
X084026Y003276D01*
X084401Y004901D02*
X089401Y004901D01*
X089901Y005401D01*
X096651Y005401D01*
X096651Y005901D02*
X097151Y006401D01*
X119401Y006401D01*
X119901Y006901D02*
X120401Y006401D01*
X127151Y006401D01*
X125151Y005401D02*
X104151Y005401D01*
X101651Y004901D02*
X118651Y004901D01*
X119401Y004151D01*
X124651Y004151D01*
X124901Y004901D02*
X124151Y004901D01*
X124901Y004901D02*
X125901Y003901D01*
X133401Y003901D01*
X132901Y002901D02*
X118901Y002901D01*
X118151Y003401D01*
X093401Y003401D01*
X092651Y003151D02*
X087401Y003151D01*
X086901Y002651D01*
X093401Y005901D02*
X096651Y005901D01*
X097401Y007901D02*
X098651Y007901D01*
X097401Y007901D02*
X096901Y008401D01*
X087401Y008401D01*
X086651Y008401D02*
X087651Y009401D01*
X096651Y009401D01*
X097651Y009901D02*
X097151Y010401D01*
X097651Y009901D02*
X098651Y009901D01*
X101651Y006901D02*
X119901Y006901D01*
X116151Y005901D02*
X101651Y005901D01*
X086651Y008401D02*
X083401Y008401D01*
X082901Y013901D02*
X097401Y013901D01*
X097901Y014401D01*
X098651Y013401D02*
X062651Y013401D01*
X062526Y013276D01*
X046526Y013276D01*
X046276Y013526D01*
X044401Y013526D01*
X041901Y013526D01*
X041651Y014151D02*
X046401Y014151D01*
X046901Y013651D01*
X061901Y013651D01*
X062401Y013901D02*
X078401Y013901D01*
X080401Y014401D02*
X071651Y014401D01*
X072151Y014901D02*
X061401Y014901D01*
X061151Y014651D01*
X047151Y014651D01*
X046651Y015151D01*
X041151Y015151D01*
X040401Y014401D01*
X036151Y014401D01*
X035651Y014901D01*
X035276Y015276D02*
X034651Y014651D01*
X034151Y014651D01*
X033651Y014151D02*
X034901Y014151D01*
X035151Y013901D01*
X040651Y013901D01*
X041401Y014651D01*
X046401Y014651D01*
X046901Y014151D01*
X062151Y014151D01*
X062401Y013901D01*
X060901Y015651D02*
X056901Y015651D01*
X056151Y015651D01*
X055651Y015151D01*
X047151Y015151D01*
X046651Y015651D01*
X045901Y015651D01*
X040901Y015651D01*
X040151Y014901D01*
X036651Y014901D01*
X037526Y015276D02*
X035276Y015276D01*
X035151Y015611D02*
X034651Y015151D01*
X029901Y015151D01*
X029151Y014651D02*
X033151Y014651D01*
X033651Y014151D01*
X032901Y014151D02*
X020151Y014151D01*
X019901Y014401D01*
X018901Y014401D01*
X019651Y014901D02*
X019901Y015151D01*
X028651Y015151D01*
X029151Y014651D01*
X028151Y015651D02*
X033151Y015651D01*
X033651Y016151D01*
X034651Y016151D01*
X034776Y016276D01*
X037026Y016276D01*
X038401Y017651D01*
X039901Y017651D01*
X044901Y017651D01*
X045401Y018151D01*
X046651Y018151D01*
X047151Y017651D01*
X050901Y017651D01*
X055651Y017651D01*
X056151Y018151D01*
X059901Y018151D01*
X060151Y017651D02*
X056901Y017651D01*
X056151Y017651D01*
X055651Y017151D01*
X047151Y017151D01*
X046651Y017651D01*
X045901Y017651D01*
X045401Y017651D01*
X044901Y017151D01*
X038401Y017151D01*
X037151Y015901D01*
X034901Y015901D01*
X034651Y015651D01*
X034151Y015651D01*
X035151Y015611D02*
X037401Y015611D01*
X038401Y016651D01*
X039901Y016651D01*
X044901Y016651D01*
X045401Y017151D01*
X046651Y017151D01*
X047151Y016651D01*
X050901Y016651D01*
X055651Y016651D01*
X056151Y017151D01*
X059401Y017151D01*
X060151Y017651D02*
X060401Y017901D01*
X060401Y020651D01*
X060651Y020901D01*
X064151Y020901D01*
X064651Y020401D01*
X065901Y020401D01*
X065901Y021401D02*
X064651Y021401D01*
X064151Y021901D01*
X060151Y021901D01*
X059901Y021651D01*
X059901Y019151D01*
X059401Y018651D01*
X056901Y018651D01*
X056151Y018651D01*
X055651Y018151D01*
X047151Y018151D01*
X046651Y018651D01*
X045901Y018651D01*
X045401Y018651D01*
X044901Y018151D01*
X038401Y018151D01*
X036901Y016651D01*
X034151Y016651D01*
X033151Y016401D02*
X032901Y016151D01*
X021651Y016151D01*
X019401Y018401D01*
X018901Y018401D01*
X019651Y014901D02*
X012401Y014901D01*
X011151Y016151D01*
X007901Y016151D01*
X007651Y015901D01*
X007651Y015401D01*
X008651Y015401D02*
X008651Y014151D01*
X008151Y017401D02*
X007651Y017901D01*
X007651Y018401D01*
X008151Y017401D02*
X009151Y017401D01*
X009651Y017901D01*
X009651Y018401D01*
X019901Y023151D02*
X025401Y023151D01*
X027401Y021151D01*
X030651Y021151D01*
X032901Y021151D01*
X033401Y021651D01*
X034151Y021651D01*
X036401Y021651D01*
X037901Y023151D01*
X044651Y023151D01*
X045151Y023651D01*
X045901Y023651D01*
X046901Y023651D01*
X047401Y023151D01*
X053651Y023151D01*
X055651Y023151D01*
X056151Y023651D01*
X056901Y023651D01*
X056901Y022651D02*
X056401Y022651D01*
X055901Y022151D01*
X047901Y022151D01*
X045901Y022651D02*
X045401Y022651D01*
X044901Y022151D01*
X039151Y022151D01*
X038651Y022151D02*
X037901Y022151D01*
X036401Y020651D01*
X034151Y020651D01*
X036401Y018651D02*
X037901Y020151D01*
X039151Y020151D01*
X038401Y018651D02*
X036901Y017151D01*
X032651Y017151D01*
X032151Y016651D01*
X028151Y016651D01*
X025151Y013651D02*
X025651Y013211D01*
X035901Y013211D01*
X036151Y013401D01*
X040901Y013401D01*
X041651Y014151D01*
X038401Y016151D02*
X037526Y015276D01*
X038401Y016151D02*
X044901Y016151D01*
X045401Y016651D01*
X045901Y016651D01*
X046651Y016651D01*
X047151Y016151D01*
X055651Y016151D01*
X056151Y016651D01*
X056901Y016651D01*
X060401Y016651D01*
X060901Y017151D01*
X060901Y019651D01*
X061151Y019901D01*
X064151Y019901D01*
X064651Y019401D01*
X065901Y019401D01*
X065901Y018401D02*
X064651Y018401D01*
X064151Y018901D01*
X061651Y018901D01*
X061401Y018651D01*
X061401Y016151D01*
X060901Y015651D01*
X058901Y016151D02*
X056151Y016151D01*
X055651Y015651D01*
X052651Y015651D01*
X050901Y018651D02*
X047151Y018651D01*
X046651Y019151D01*
X045401Y019151D01*
X044901Y018651D01*
X039901Y018651D01*
X038401Y018651D01*
X036401Y018651D02*
X035901Y018651D01*
X043151Y020151D02*
X044901Y020151D01*
X045401Y020651D01*
X045901Y020651D01*
X050901Y018651D02*
X055651Y018651D01*
X056151Y019151D01*
X058901Y019151D01*
X062151Y017901D02*
X064151Y017901D01*
X064651Y017401D01*
X065901Y017401D01*
X072151Y014901D02*
X072276Y014776D01*
X081026Y014776D01*
X081151Y014901D01*
X083901Y014901D01*
X084651Y014401D02*
X082651Y014401D01*
X082151Y013901D01*
X080901Y013901D01*
X080401Y014401D01*
X080901Y015151D02*
X072526Y015151D01*
X080901Y015151D02*
X081151Y015401D01*
X081651Y015401D01*
X084651Y015401D02*
X086151Y015401D01*
X086401Y017401D02*
X084651Y017401D01*
X086401Y017401D02*
X086651Y017651D01*
X087401Y017651D01*
X086151Y019401D02*
X084651Y019401D01*
X086151Y019401D02*
X086901Y020151D01*
X099151Y013901D02*
X099651Y013401D01*
X129901Y013401D01*
X128651Y011651D02*
X128651Y010901D01*
X125651Y010901D02*
X125651Y011651D01*
X125151Y005401D02*
X126151Y004401D01*
X129901Y004401D01*
X130401Y004901D01*
X131651Y004901D01*
X139151Y008901D02*
X142151Y008901D01*
X143151Y009901D01*
X143651Y009901D01*
X144401Y009901D01*
X145151Y009151D01*
X145151Y008401D01*
X145651Y007901D01*
X146651Y007901D01*
X142151Y009901D02*
X139151Y009901D01*
X142151Y020151D02*
X144151Y020151D01*
X144901Y020901D01*
X144901Y021151D01*
X143651Y022651D02*
X142401Y022651D01*
X141401Y023651D01*
X135401Y023651D01*
X135401Y020651D02*
X141651Y020651D01*
X142151Y020151D01*
X143651Y026651D02*
X146651Y026651D01*
X139901Y031401D02*
X139651Y031651D01*
X146651Y033401D02*
X147651Y033401D01*
X147901Y033151D01*
X126901Y028901D02*
X122901Y028901D01*
X122401Y028401D01*
X121151Y028401D01*
X112901Y036401D02*
X112151Y036401D01*
X110651Y037901D01*
X111901Y037401D02*
X112901Y037401D01*
X100151Y043401D02*
X099651Y042901D01*
X097651Y042901D01*
X100151Y043401D02*
X100651Y043401D01*
X092901Y036901D02*
X077651Y036901D01*
X076651Y037901D01*
X079151Y036401D02*
X083901Y036401D01*
X084151Y036151D01*
X083151Y035401D02*
X084151Y034401D01*
X087151Y034401D01*
X083151Y035401D02*
X079151Y035401D01*
X077901Y041651D02*
X074901Y041651D01*
X086026Y050276D02*
X086901Y049401D01*
X087151Y049401D01*
X068901Y058901D02*
X067901Y058901D01*
X066651Y058901D01*
X066651Y059901D02*
X068151Y059901D01*
X068901Y060651D01*
X068901Y062901D01*
X072651Y064901D02*
X073401Y064151D01*
X074651Y064151D01*
X075901Y064151D01*
X076901Y065151D01*
X077151Y065151D01*
X077151Y066151D02*
X076151Y066151D01*
X075151Y065151D01*
X074651Y065151D01*
X075401Y064651D02*
X073651Y064651D01*
X073401Y064901D01*
X073401Y065151D01*
X072651Y064901D02*
X072651Y066151D01*
X073151Y066651D01*
X073401Y066651D01*
X064151Y064901D02*
X063651Y065401D01*
X063651Y066151D01*
X032151Y055151D02*
X031401Y055151D01*
X030901Y054601D01*
X025651Y054601D01*
X025401Y054901D01*
X025401Y057151D01*
X028401Y058901D02*
X028401Y060401D01*
X026151Y054151D02*
X025401Y054151D01*
X031401Y038651D02*
X030901Y038151D01*
X032151Y036151D02*
X027401Y036151D01*
X026901Y035651D01*
X018651Y035651D01*
X018151Y036151D01*
X021401Y026151D02*
X025401Y026151D01*
X039901Y027651D02*
X044651Y027651D01*
X045151Y028151D01*
X046901Y028151D01*
X047401Y027651D01*
X050901Y027651D01*
X050901Y028651D02*
X050401Y028651D01*
X049901Y029151D01*
X058151Y022151D02*
X059901Y023901D01*
X063401Y026901D02*
X063901Y027401D01*
X055401Y010901D02*
X051151Y010901D01*
X052651Y009901D02*
X048901Y009901D01*
X048901Y006901D02*
X051901Y006901D01*
X052901Y005901D02*
X049901Y005901D01*
X010651Y008651D02*
X009651Y008651D01*
D32*
X011401Y007901D03*
X015651Y003151D03*
X015151Y002651D03*
X021401Y006651D03*
X024651Y008901D03*
X021901Y012651D03*
X025151Y013651D03*
X029901Y015151D03*
X032901Y014151D03*
X035651Y014901D03*
X036651Y014901D03*
X033151Y016401D03*
X032651Y018151D03*
X035901Y018651D03*
X039151Y020151D03*
X039151Y022151D03*
X038651Y022151D03*
X043151Y020151D03*
X047901Y022151D03*
X053651Y023151D03*
X058401Y021651D03*
X058901Y019151D03*
X059901Y018151D03*
X059401Y017151D03*
X058901Y016151D03*
X062151Y015901D03*
X062151Y016901D03*
X062151Y017901D03*
X069401Y020901D03*
X069901Y019901D03*
X074401Y020401D03*
X078401Y020151D03*
X080151Y018401D03*
X079901Y017401D03*
X080651Y016401D03*
X080401Y015526D03*
X078401Y013901D03*
X082901Y013901D03*
X083901Y014901D03*
X086151Y015401D03*
X091151Y019651D03*
X097651Y018651D03*
X100901Y020151D03*
X102901Y018151D03*
X106151Y021151D03*
X106651Y024401D03*
X099651Y027651D03*
X097151Y026651D03*
X089651Y027651D03*
X086401Y027901D03*
X085901Y026151D03*
X085151Y025901D03*
X077901Y026151D03*
X074901Y026151D03*
X073901Y024151D03*
X064151Y026901D03*
X062901Y027901D03*
X067901Y030651D03*
X074401Y033651D03*
X072901Y034151D03*
X066151Y035401D03*
X063151Y038651D03*
X064151Y039651D03*
X066651Y041651D03*
X063151Y042651D03*
X062651Y043651D03*
X061651Y046651D03*
X063651Y048151D03*
X064151Y047651D03*
X066401Y046651D03*
X066901Y047151D03*
X069151Y047651D03*
X062151Y048651D03*
X060651Y050151D03*
X065651Y051651D03*
X065901Y050651D03*
X069901Y052901D03*
X071401Y054651D03*
X066151Y053651D03*
X062901Y055651D03*
X057151Y054901D03*
X056151Y055651D03*
X051151Y056651D03*
X051151Y057151D03*
X051151Y057651D03*
X051151Y058151D03*
X047151Y054651D03*
X048151Y053651D03*
X048401Y052651D03*
X052401Y050651D03*
X049151Y050151D03*
X050151Y047651D03*
X050901Y046651D03*
X037151Y044651D03*
X030651Y045651D03*
X030151Y046151D03*
X029651Y046651D03*
X022151Y051151D03*
X021651Y050901D03*
X022651Y051401D03*
X026901Y052651D03*
X026901Y053651D03*
X029401Y052651D03*
X033151Y053651D03*
X033901Y052651D03*
X028401Y056151D03*
X029151Y057401D03*
X029151Y058151D03*
X028651Y058401D03*
X028401Y058901D03*
X028401Y060401D03*
X018901Y058151D03*
X018401Y058151D03*
X018401Y055151D03*
X018901Y055151D03*
X017151Y055151D03*
X010401Y051651D03*
X015901Y050651D03*
X016401Y049651D03*
X015901Y048651D03*
X016901Y048651D03*
X018901Y050651D03*
X018401Y044651D03*
X017901Y038651D03*
X018901Y038651D03*
X018151Y036151D03*
X025151Y037651D03*
X029151Y038651D03*
X034151Y037651D03*
X036651Y038651D03*
X038651Y037151D03*
X041651Y036651D03*
X043151Y034651D03*
X040901Y033901D03*
X040151Y031151D03*
X040651Y030651D03*
X043901Y031651D03*
X050651Y032401D03*
X051901Y036651D03*
X051651Y037651D03*
X051901Y038651D03*
X050151Y039151D03*
X049651Y039151D03*
X048651Y039651D03*
X056401Y037151D03*
X073651Y043151D03*
X080151Y043401D03*
X080151Y044901D03*
X083151Y044901D03*
X083651Y043901D03*
X083401Y041651D03*
X083401Y040901D03*
X088901Y041151D03*
X088901Y042401D03*
X091651Y044651D03*
X091151Y045901D03*
X100651Y043401D03*
X100651Y041651D03*
X098401Y039151D03*
X095401Y036901D03*
X095651Y036401D03*
X094651Y036901D03*
X093401Y034901D03*
X092651Y034901D03*
X088401Y034901D03*
X084651Y036401D03*
X084151Y036151D03*
X100901Y029651D03*
X103651Y030401D03*
X109901Y028651D03*
X104151Y033401D03*
X106651Y037901D03*
X118401Y042401D03*
X119401Y041651D03*
X120401Y036901D03*
X128401Y035901D03*
X127401Y033151D03*
X128901Y032651D03*
X126901Y028901D03*
X144901Y021151D03*
X137401Y019151D03*
X134901Y018651D03*
X129901Y013401D03*
X136151Y012651D03*
X142151Y009901D03*
X130401Y009151D03*
X126651Y009901D03*
X127151Y006401D03*
X124651Y004151D03*
X119401Y006401D03*
X116151Y005901D03*
X116651Y009401D03*
X117651Y012651D03*
X117401Y014401D03*
X116651Y015901D03*
X116151Y016401D03*
X115151Y016901D03*
X114901Y017901D03*
X116401Y019151D03*
X118401Y020151D03*
X111901Y015901D03*
X104651Y010901D03*
X105651Y010401D03*
X105151Y007401D03*
X104151Y005401D03*
X096651Y005401D03*
X094901Y003776D03*
X093401Y003401D03*
X092651Y003151D03*
X085651Y003276D03*
X083151Y003401D03*
X078401Y007401D03*
X075651Y008151D03*
X073401Y009901D03*
X072901Y005901D03*
X070901Y004401D03*
X071651Y003401D03*
X066401Y004401D03*
X062151Y006401D03*
X061151Y005901D03*
X061151Y004401D03*
X060651Y003401D03*
X057401Y003901D03*
X051401Y002401D03*
X047901Y002901D03*
X047401Y003401D03*
X044651Y003901D03*
X044651Y004651D03*
X044651Y006401D03*
X043651Y006901D03*
X042901Y005401D03*
X046651Y007401D03*
X049901Y005901D03*
X051901Y006901D03*
X050901Y004901D03*
X050401Y004401D03*
X052651Y009901D03*
X051151Y010901D03*
X044401Y013526D03*
X041901Y013526D03*
X042901Y009401D03*
X036901Y006401D03*
X034151Y006401D03*
X028401Y002401D03*
X033651Y010401D03*
X052651Y015651D03*
X061401Y012651D03*
X061901Y013651D03*
X059901Y009401D03*
X072526Y015151D03*
X094651Y010901D03*
X094651Y009901D03*
X098651Y013401D03*
X098151Y013901D03*
X122901Y013901D03*
X132901Y002901D03*
X133901Y003401D03*
X147901Y033151D03*
X146651Y041651D03*
X136401Y042401D03*
X114151Y045651D03*
X113901Y050901D03*
X119651Y056901D03*
X128401Y057901D03*
X129651Y059901D03*
X130901Y059401D03*
X131401Y060401D03*
X130901Y060901D03*
X128401Y062651D03*
X127651Y063401D03*
X126151Y061401D03*
X124651Y062401D03*
X123151Y062901D03*
X121401Y063901D03*
X117651Y061901D03*
X093401Y062401D03*
X076151Y068651D03*
X047651Y065651D03*
X046401Y065651D03*
X044901Y065651D03*
X043151Y065651D03*
X039151Y062401D03*
X038151Y061901D03*
X046401Y061651D03*
X071901Y050901D03*
X101151Y047401D03*
X043651Y027151D03*
X041901Y025651D03*
X038651Y027151D03*
X032651Y025651D03*
X032151Y028151D03*
X026651Y029151D03*
X025401Y028401D03*
X026151Y027151D03*
X023901Y025151D03*
X021401Y026151D03*
X020901Y027151D03*
X016901Y025401D03*
X017401Y024401D03*
X019901Y023151D03*
X020651Y021401D03*
X022151Y020401D03*
X030651Y021151D03*
X031651Y020651D03*
X011651Y026651D03*
X011151Y025901D03*
X009901Y024901D03*
X009401Y024401D03*
X008901Y023901D03*
X008901Y021901D03*
X008401Y020901D03*
X008401Y019901D03*
X004401Y027651D03*
X014651Y030151D03*
X015901Y031651D03*
X014401Y033151D03*
X033651Y032151D03*
D33*
X033151Y033901D02*
X033151Y034901D01*
X031901Y034901D01*
X025401Y034901D01*
X013651Y034901D01*
X013651Y032901D01*
X013901Y032651D01*
X014151Y032401D01*
X015401Y032401D01*
X020401Y033901D02*
X025401Y033901D01*
X025401Y033401D01*
X025401Y030901D01*
X025401Y028401D01*
X024401Y028401D01*
X015401Y028401D01*
X013901Y028401D01*
X012401Y028401D01*
X003401Y028401D01*
X000901Y028401D01*
X002151Y032401D02*
X002151Y033401D01*
X004401Y035401D01*
X013151Y035401D01*
X013151Y046901D01*
X013151Y048151D01*
X014401Y048151D01*
X013151Y048151D02*
X012151Y048151D01*
X026151Y055151D02*
X029651Y055151D01*
X031151Y056651D01*
X032401Y056651D01*
X033901Y055151D01*
X037151Y055151D01*
X039901Y055151D01*
X043901Y055151D01*
X044651Y055901D01*
X053401Y055901D01*
X053651Y055651D01*
X053651Y055151D01*
X059651Y066151D02*
X059651Y067401D01*
X060151Y067901D01*
X087151Y067901D01*
X087151Y066151D01*
X087151Y052901D02*
X092901Y052901D01*
X108151Y052901D01*
X137901Y052901D01*
X138526Y053526D01*
X139151Y054151D01*
X139151Y055901D01*
X137901Y055901D01*
X139151Y055901D02*
X139151Y058401D01*
X127901Y065151D02*
X126151Y065151D01*
X124901Y065151D01*
X124651Y065151D01*
X123151Y065151D01*
X122901Y065151D01*
X121651Y065151D01*
X120151Y065151D01*
X118401Y065151D01*
X116901Y065151D01*
X115151Y065151D01*
X087151Y052901D02*
X081151Y046901D01*
X081151Y038651D01*
X090151Y038651D01*
X091151Y038651D01*
X093151Y038651D01*
X095151Y040651D01*
X101651Y040651D01*
X108151Y040651D01*
X112901Y040651D01*
X124151Y040651D01*
X150151Y040651D01*
X152901Y041651D02*
X146651Y041651D01*
X143901Y041651D01*
X140151Y041651D01*
X124151Y041651D01*
X119401Y041651D01*
X112901Y041651D01*
X109901Y041651D01*
X102901Y041651D01*
X101651Y041651D01*
X100651Y041651D01*
X095151Y041651D01*
X094651Y041651D01*
X092651Y039651D01*
X091151Y039651D01*
X087151Y039651D01*
X082401Y039651D01*
X082401Y045901D01*
X082401Y046651D01*
X086026Y050276D01*
X087651Y051901D01*
X090151Y051901D01*
X098401Y051901D01*
X105901Y051901D01*
X110401Y051901D01*
X115151Y051901D01*
X112651Y050901D02*
X110401Y050901D01*
X108151Y050901D01*
X105901Y050901D01*
X098401Y050901D01*
X092901Y050901D01*
X090151Y050901D01*
X081151Y038651D02*
X079401Y038651D01*
X079151Y038651D01*
X076651Y038651D01*
X072401Y038651D01*
X071901Y038651D01*
X069401Y036151D01*
X064651Y036151D01*
X061651Y036151D01*
X060901Y035401D01*
X053651Y035401D01*
X052401Y035401D01*
X044901Y035401D01*
X042151Y035401D01*
X040151Y035401D01*
X039901Y035401D01*
X033901Y035401D01*
X033401Y034901D01*
X033151Y034901D01*
X039151Y030901D02*
X039151Y029901D01*
X043151Y029901D01*
X048151Y029901D01*
X053901Y029901D01*
X054151Y029651D01*
X058401Y029651D01*
X063651Y029651D01*
X070151Y029651D01*
X076151Y029651D01*
X079151Y029651D01*
X083901Y029651D01*
X087151Y029651D01*
X095401Y029651D01*
X098651Y029651D01*
X100901Y029651D01*
X102651Y029651D01*
X105151Y029651D01*
X106151Y030651D01*
X109901Y030651D01*
X115901Y030651D01*
X116901Y031401D01*
X121151Y031401D01*
X125151Y031401D01*
X131651Y031401D01*
X135401Y031401D01*
X136901Y031401D01*
X139901Y031401D01*
X143401Y031401D01*
X146651Y031401D01*
X149651Y031401D01*
X152901Y031401D01*
X150151Y030401D02*
X146651Y030401D01*
X143401Y030401D01*
X135401Y030401D01*
X131651Y030401D01*
X126151Y030401D01*
X125151Y030401D01*
X124151Y030401D01*
X117401Y030401D01*
X116561Y029771D01*
X116401Y029651D01*
X115901Y029651D01*
X113651Y029651D01*
X112151Y029651D01*
X106651Y029651D01*
X105651Y028651D01*
X102651Y028651D01*
X094151Y028651D01*
X079401Y028651D01*
X079151Y028651D01*
X071401Y028651D01*
X058401Y028651D01*
X059151Y012651D02*
X050901Y012651D01*
X050151Y012651D01*
X049901Y012651D02*
X042401Y012651D01*
X039151Y012651D01*
X033651Y012651D01*
X028151Y012651D01*
X027151Y012651D01*
X021901Y012651D01*
X021651Y012651D01*
X019651Y010651D01*
X012901Y010651D01*
X011901Y010651D01*
X011651Y010901D01*
X011651Y013651D01*
X011151Y014151D01*
X010651Y014151D01*
X008651Y014151D01*
X003401Y014151D01*
X000901Y014151D01*
X002151Y009651D02*
X002401Y009651D01*
X016151Y009651D01*
X016651Y009651D01*
X018901Y009651D01*
X020151Y009651D01*
X022151Y011651D01*
X025651Y011651D01*
X027151Y011651D01*
X032651Y011651D01*
X033651Y011651D01*
X041151Y011651D01*
X042401Y011651D01*
X048901Y011651D01*
X049901Y011651D01*
X058401Y011651D01*
X059524Y011651D01*
X062151Y011651D01*
X062901Y011651D01*
X063401Y011651D01*
X067901Y011651D01*
X068901Y011651D01*
X069651Y011651D01*
X076651Y011651D01*
X080151Y011651D01*
X084401Y011651D01*
X085651Y011651D01*
X093401Y011651D01*
X095151Y011651D01*
X101901Y011651D01*
X102901Y011651D01*
X119901Y011651D01*
X124151Y011651D01*
X125401Y011651D01*
X125651Y011651D01*
X128651Y011651D01*
X131651Y011651D01*
X132901Y011651D01*
X139151Y011651D01*
X140401Y011651D01*
X146651Y011651D01*
X147901Y011651D01*
X150151Y011651D01*
X147901Y012651D02*
X152901Y012651D01*
X147901Y012651D02*
X143651Y012651D01*
X140401Y012651D01*
X136151Y012651D01*
X132901Y012651D01*
X125401Y012651D01*
X119901Y012651D01*
X117651Y012651D01*
X109901Y012651D01*
X107651Y012651D01*
X102901Y012651D01*
X095151Y012651D01*
X087401Y012651D01*
X085651Y012651D01*
X080151Y012651D01*
X068901Y012651D01*
X067151Y012651D01*
X062151Y012651D01*
X061401Y012651D01*
X059151Y012651D01*
X025901Y010901D02*
X025651Y011651D01*
X013651Y034901D02*
X013151Y035401D01*
X009651Y065151D02*
X009651Y067096D01*
X135401Y030401D02*
X135401Y026651D01*
D34*
X136901Y031401D02*
X136901Y034901D01*
X136401Y035401D01*
X135651Y035401D01*
X146651Y035401D02*
X148901Y035401D01*
X149651Y034651D01*
X149651Y031401D01*
X146651Y030401D02*
X146651Y026651D01*
X124151Y029401D02*
X124151Y030401D01*
X121151Y031401D02*
X121151Y033401D01*
X113651Y029651D02*
X113651Y028901D01*
X109901Y030651D02*
X109901Y031401D01*
X102651Y028651D02*
X101901Y028651D01*
X101651Y028401D01*
X101651Y026651D01*
X094151Y027151D02*
X093651Y026651D01*
X093401Y026651D01*
X094151Y027151D02*
X094151Y027901D01*
X094151Y028651D01*
X098651Y029651D02*
X098651Y031401D01*
X087151Y031401D02*
X087151Y029651D01*
X079401Y028651D02*
X079151Y028401D01*
X076151Y029651D02*
X076151Y031401D01*
X064937Y036154D02*
X064654Y036154D01*
X064651Y036151D01*
X053651Y036151D02*
X053651Y035401D01*
X041401Y032901D02*
X032401Y032901D01*
X031901Y033401D01*
X030651Y033401D01*
X030151Y033901D01*
X025401Y033901D01*
X025269Y033769D02*
X025401Y033401D01*
X026551Y032901D02*
X027901Y032901D01*
X027901Y030901D02*
X026551Y030901D01*
X025401Y030901D01*
X024401Y029401D02*
X024401Y028401D01*
X033401Y029651D02*
X033651Y029901D01*
X039151Y029901D01*
X031901Y034401D02*
X031901Y034901D01*
X039901Y035401D02*
X039901Y036151D01*
X040151Y035401D02*
X040209Y035344D01*
X040459Y034689D01*
X056901Y028651D02*
X058401Y028651D01*
X079151Y037401D02*
X079151Y037651D01*
X079182Y037620D01*
X080652Y037620D01*
X079151Y037651D02*
X079151Y038651D01*
X079401Y038651D02*
X079401Y038652D01*
X087151Y039651D02*
X087151Y040401D01*
X090151Y038651D02*
X090151Y037401D01*
X095151Y041651D02*
X095401Y041901D01*
X095401Y043401D01*
X101651Y040651D02*
X101651Y038401D01*
X102901Y041651D02*
X102901Y043401D01*
X109901Y043401D02*
X109901Y041651D01*
X112901Y040651D02*
X112901Y038401D01*
X124151Y039401D02*
X124151Y040651D01*
X123651Y046901D02*
X123151Y046901D01*
X123651Y046901D02*
X124651Y047901D01*
X124651Y048901D01*
X112901Y049401D02*
X112901Y050651D01*
X112651Y050901D01*
X105901Y050901D02*
X105901Y049401D01*
X098401Y049401D02*
X098401Y050901D01*
X090151Y050901D02*
X090151Y049401D01*
X071901Y050901D02*
X070151Y049151D01*
X070151Y046151D01*
X069901Y045901D01*
X069151Y045151D01*
X067901Y045151D01*
X049401Y065651D02*
X049651Y065901D01*
X049651Y066846D01*
X073151Y069901D02*
X073651Y069901D01*
X087151Y067901D02*
X087901Y068776D01*
X097151Y068776D01*
X098151Y067901D01*
X098651Y067401D01*
X098651Y066651D01*
X116901Y067096D02*
X116901Y065251D01*
X116951Y065201D01*
X116901Y065151D01*
X118401Y065151D02*
X118451Y065201D01*
X118401Y065251D01*
X118401Y067096D01*
X119901Y067096D02*
X119901Y065501D01*
X120201Y065201D01*
X120151Y065151D01*
X121651Y065151D02*
X121701Y065201D01*
X121651Y065251D01*
X121651Y067096D01*
X123151Y067096D02*
X123151Y065401D01*
X122901Y065151D01*
X123151Y065151D02*
X123201Y065201D01*
X124651Y065151D02*
X124651Y067096D01*
X126151Y067096D02*
X126151Y065151D01*
X126451Y065201D02*
X127901Y065151D01*
X127901Y067096D01*
X124901Y065151D02*
X124701Y065101D01*
X137001Y062401D02*
X139151Y062401D01*
X146701Y053111D02*
X146651Y051901D01*
X144401Y049651D01*
X143651Y049651D01*
X137151Y049651D01*
X059524Y012666D02*
X059166Y012666D01*
X059151Y012651D01*
X059524Y011666D02*
X059524Y011651D01*
X058401Y011651D02*
X058401Y010901D01*
X063401Y010901D02*
X063401Y011651D01*
X067901Y011651D02*
X067901Y010901D01*
X084401Y010901D02*
X084401Y011651D01*
X093401Y011651D02*
X093401Y010901D01*
X101651Y010901D02*
X101651Y011401D01*
X101901Y011651D01*
X124151Y011651D02*
X124151Y010901D01*
X131651Y010901D02*
X131651Y011651D01*
X139151Y011651D02*
X139151Y010901D01*
X146651Y010901D02*
X146651Y011651D01*
X050151Y012651D02*
X049901Y012651D01*
X048901Y011651D02*
X048901Y010901D01*
X041151Y010901D02*
X041151Y011651D01*
X032651Y011651D02*
X032651Y010901D01*
X017901Y006901D02*
X016651Y006901D01*
X016651Y008401D02*
X016651Y009651D01*
X012901Y010651D02*
X012901Y011401D01*
X010651Y014151D02*
X010651Y015401D01*
X004651Y018401D02*
X003151Y018401D01*
X003151Y017401D02*
X003151Y014401D01*
X003401Y014151D01*
X002401Y009651D02*
X002401Y008401D01*
X011651Y022901D02*
X011901Y023151D01*
X015401Y023151D01*
X016151Y022401D01*
X018901Y022401D01*
X015401Y028401D02*
X015401Y029401D01*
X013901Y028401D02*
X013901Y031651D01*
X012401Y029401D02*
X012401Y028401D01*
X003401Y032401D02*
X002151Y032401D01*
X005651Y045901D02*
X003401Y048151D01*
X005651Y045901D02*
X011151Y045901D01*
X012151Y046901D01*
X013151Y048151D02*
X010651Y048151D01*
X009401Y049151D01*
X008151Y049151D01*
X001151Y065151D02*
X000901Y065151D01*
D35*
X009651Y065151D03*
X027901Y065401D03*
X036651Y061651D03*
X039901Y065401D03*
X048401Y064401D03*
X049401Y065651D03*
X050901Y065651D03*
X058301Y069901D03*
X073651Y069901D03*
X082151Y069901D03*
X087151Y066151D03*
X095151Y069901D03*
X110151Y069901D03*
X110151Y065401D03*
X115151Y065151D03*
X135151Y065151D03*
X140651Y069901D03*
X152901Y069901D03*
X152901Y058151D03*
X135151Y055901D03*
X152901Y049151D03*
X152901Y041651D03*
X150151Y040651D03*
X152901Y031401D03*
X150151Y030401D03*
X152901Y021151D03*
X152901Y012651D03*
X150151Y011651D03*
X143651Y012651D03*
X140651Y001251D03*
X152901Y001251D03*
X125026Y001251D03*
X113151Y001251D03*
X094651Y001251D03*
X087401Y012651D03*
X069651Y011651D03*
X067151Y012651D03*
X062901Y011651D03*
X050901Y012651D03*
X039151Y012651D03*
X028151Y012651D03*
X032401Y001251D03*
X019651Y001251D03*
X001151Y001251D03*
X002151Y009651D03*
X000901Y014151D03*
X000901Y028401D03*
X020401Y033901D03*
X041401Y032901D03*
X043151Y029901D03*
X048151Y029901D03*
X054151Y029651D03*
X063651Y029651D03*
X070151Y029651D03*
X083901Y029651D03*
X095401Y029651D03*
X109901Y030651D03*
X108151Y040651D03*
X108151Y050901D03*
X108151Y052901D03*
X115151Y051901D03*
X115151Y055901D03*
X092901Y052901D03*
X092901Y050901D03*
X087151Y052901D03*
X081151Y046901D03*
X082401Y045901D03*
X082401Y039651D03*
X076651Y038651D03*
X072401Y038651D03*
X044901Y035401D03*
X037151Y055151D03*
X000901Y056151D03*
X000901Y043651D03*
X050401Y001251D03*
X069901Y001251D03*
X107651Y012651D03*
X109901Y012651D03*
D36*
X016151Y009651D03*
X016151Y022401D03*
D37*
X018901Y009651D02*
X018901Y008901D01*
D38*
X139151Y058401D02*
X142401Y058401D01*
X143401Y059401D01*
X143401Y060151D01*
X141401Y060151D02*
X141401Y061901D01*
X140901Y062401D01*
X139151Y062401D01*
D39*
X000901Y043651D02*
X000901Y001401D01*
X000901Y043651D02*
X000901Y056151D01*
X000901Y065151D01*
X026651Y065901D02*
X027151Y065401D01*
X027901Y065401D01*
X039901Y065401D01*
X048401Y064401D02*
X050151Y064401D01*
X050901Y064901D01*
X050901Y065651D01*
X026651Y065901D02*
X026651Y067096D01*
X110151Y065401D02*
X110151Y065151D01*
X115151Y055901D02*
X135151Y055901D01*
X135151Y065151D01*
X146701Y054991D02*
X146701Y053111D01*
D40*
X151001Y068551D03*
X147851Y068701D03*
X071101Y063551D03*
X035001Y063551D03*
X003201Y063501D03*
X003301Y003251D03*
X079151Y003451D03*
X150951Y003351D03*
X152151Y024251D03*
D41*
X051151Y066846D02*
X050901Y066401D01*
X050901Y065651D01*
D42*
X058301Y069901D02*
X073151Y069901D01*
X082151Y069901D01*
X095151Y069901D01*
X110151Y069901D01*
X110151Y065401D01*
X110151Y065151D02*
X115151Y065151D01*
X135151Y065151D02*
X140651Y065151D01*
X140651Y069901D01*
X152901Y069901D01*
X152901Y061401D01*
X152151Y061401D01*
X152901Y061401D02*
X152901Y058151D01*
X152901Y049151D01*
X152901Y041651D01*
X152901Y031401D01*
X152901Y021151D01*
X152901Y001251D01*
X001151Y001251D01*
X001151Y065151D02*
X009401Y065151D01*
D43*
X148231Y059875D02*
X148281Y054991D01*
X148281Y053111D01*
X148231Y059875D02*
X149757Y061401D01*
M02*
