G75*
G70*
%OFA0B0*%
%FSLAX24Y24*%
%IPPOS*%
%LPD*%
%AMOC8*
5,1,8,0,0,1.08239X$1,22.5*
%
%ADD10C,0.0560*%
%ADD11OC8,0.0560*%
%ADD12C,0.0560*%
%ADD13OC8,0.0670*%
%ADD14C,0.0670*%
%ADD15C,0.0155*%
%ADD16R,2.0000X0.5000*%
%ADD17R,1.1000X0.5000*%
%ADD18C,0.0640*%
%ADD19C,0.0700*%
%ADD20C,0.1340*%
%ADD21C,0.0700*%
%ADD22OC8,0.0520*%
%ADD23C,0.0520*%
%ADD24OC8,0.0640*%
%ADD25C,0.0867*%
%ADD26C,0.1346*%
%ADD27C,0.0740*%
%ADD28C,0.0555*%
%ADD29OC8,0.1225*%
%ADD30C,0.0926*%
%ADD31C,0.1740*%
%ADD32C,0.0040*%
%ADD33R,0.0060X0.0720*%
%ADD34C,0.1940*%
D10*
X022641Y004901D02*
X023161Y004901D01*
X023161Y005901D02*
X022641Y005901D01*
X022641Y006901D02*
X023161Y006901D01*
X023161Y007901D02*
X022641Y007901D01*
X022641Y008901D02*
X023161Y008901D01*
X023161Y009901D02*
X022641Y009901D01*
X022641Y010901D02*
X023161Y010901D01*
X025641Y010901D02*
X026161Y010901D01*
X026161Y009901D02*
X025641Y009901D01*
X025641Y008901D02*
X026161Y008901D01*
X026161Y007901D02*
X025641Y007901D01*
X025641Y006901D02*
X026161Y006901D01*
X026161Y005901D02*
X025641Y005901D01*
X025641Y004901D02*
X026161Y004901D01*
X029391Y004901D02*
X029911Y004901D01*
X029911Y005901D02*
X029391Y005901D01*
X029391Y006901D02*
X029911Y006901D01*
X029911Y007901D02*
X029391Y007901D01*
X029391Y008901D02*
X029911Y008901D01*
X029911Y009901D02*
X029391Y009901D01*
X029391Y010901D02*
X029911Y010901D01*
X032391Y010901D02*
X032911Y010901D01*
X032911Y009901D02*
X032391Y009901D01*
X032391Y008901D02*
X032911Y008901D01*
X032911Y007901D02*
X032391Y007901D01*
X032391Y006901D02*
X032911Y006901D01*
X032911Y005901D02*
X032391Y005901D01*
X032391Y004901D02*
X032911Y004901D01*
X037891Y004901D02*
X038411Y004901D01*
X040891Y004901D02*
X041411Y004901D01*
X041411Y005901D02*
X040891Y005901D01*
X040891Y006901D02*
X041411Y006901D01*
X041411Y007901D02*
X040891Y007901D01*
X038411Y007901D02*
X037891Y007901D01*
X037891Y006901D02*
X038411Y006901D01*
X038411Y005901D02*
X037891Y005901D01*
X037891Y008901D02*
X038411Y008901D01*
X038411Y009901D02*
X037891Y009901D01*
X037891Y010901D02*
X038411Y010901D01*
X040891Y010901D02*
X041411Y010901D01*
X041411Y009901D02*
X040891Y009901D01*
X040891Y008901D02*
X041411Y008901D01*
X045641Y008901D02*
X046161Y008901D01*
X046161Y009901D02*
X045641Y009901D01*
X045641Y010901D02*
X046161Y010901D01*
X048641Y010901D02*
X049161Y010901D01*
X049161Y009901D02*
X048641Y009901D01*
X048641Y008901D02*
X049161Y008901D01*
X049161Y007901D02*
X048641Y007901D01*
X048641Y006901D02*
X049161Y006901D01*
X049161Y005901D02*
X048641Y005901D01*
X048641Y004901D02*
X049161Y004901D01*
X046161Y004901D02*
X045641Y004901D01*
X045641Y005901D02*
X046161Y005901D01*
X046161Y006901D02*
X045641Y006901D01*
X045641Y007901D02*
X046161Y007901D01*
X055141Y007901D02*
X055661Y007901D01*
X055661Y006901D02*
X055141Y006901D01*
X055141Y005901D02*
X055661Y005901D01*
X055661Y004901D02*
X055141Y004901D01*
X058141Y004901D02*
X058661Y004901D01*
X058661Y005901D02*
X058141Y005901D01*
X058141Y006901D02*
X058661Y006901D01*
X058661Y007901D02*
X058141Y007901D01*
X058141Y008901D02*
X058661Y008901D01*
X058661Y009901D02*
X058141Y009901D01*
X058141Y010901D02*
X058661Y010901D01*
X055661Y010901D02*
X055141Y010901D01*
X055141Y009901D02*
X055661Y009901D01*
X055661Y008901D02*
X055141Y008901D01*
X064641Y008901D02*
X065161Y008901D01*
X065161Y009901D02*
X064641Y009901D01*
X064641Y010901D02*
X065161Y010901D01*
X067641Y010901D02*
X068161Y010901D01*
X068161Y009901D02*
X067641Y009901D01*
X067641Y008901D02*
X068161Y008901D01*
X068161Y007901D02*
X067641Y007901D01*
X067641Y006901D02*
X068161Y006901D01*
X068161Y005901D02*
X067641Y005901D01*
X067641Y004901D02*
X068161Y004901D01*
X068161Y003901D02*
X067641Y003901D01*
X065161Y003901D02*
X064641Y003901D01*
X064641Y004901D02*
X065161Y004901D01*
X065161Y005901D02*
X064641Y005901D01*
X064641Y006901D02*
X065161Y006901D01*
X065161Y007901D02*
X064641Y007901D01*
X065641Y014401D02*
X066161Y014401D01*
X068391Y014401D02*
X068911Y014401D01*
X071391Y014401D02*
X071911Y014401D01*
X071911Y015401D02*
X071391Y015401D01*
X071391Y016401D02*
X071911Y016401D01*
X071911Y017401D02*
X071391Y017401D01*
X071391Y018401D02*
X071911Y018401D01*
X071911Y019401D02*
X071391Y019401D01*
X068911Y019401D02*
X068391Y019401D01*
X068391Y018401D02*
X068911Y018401D01*
X068911Y017401D02*
X068391Y017401D01*
X066161Y017401D02*
X065641Y017401D01*
X065641Y018401D02*
X066161Y018401D01*
X066161Y019401D02*
X065641Y019401D01*
X065641Y020401D02*
X066161Y020401D01*
X066161Y021401D02*
X065641Y021401D01*
X068391Y021401D02*
X068911Y021401D01*
X068911Y020401D02*
X068391Y020401D01*
X071391Y020401D02*
X071911Y020401D01*
X071911Y021401D02*
X071391Y021401D01*
X071391Y022401D02*
X071911Y022401D01*
X071911Y023401D02*
X071391Y023401D01*
X068911Y023401D02*
X068391Y023401D01*
X068391Y022401D02*
X068911Y022401D01*
X066161Y022401D02*
X065641Y022401D01*
X065641Y023401D02*
X066161Y023401D01*
X063161Y023401D02*
X062641Y023401D01*
X062641Y022401D02*
X063161Y022401D01*
X063161Y021401D02*
X062641Y021401D01*
X062641Y020401D02*
X063161Y020401D01*
X063161Y019401D02*
X062641Y019401D01*
X062641Y018401D02*
X063161Y018401D01*
X063161Y017401D02*
X062641Y017401D01*
X062641Y016401D02*
X063161Y016401D01*
X063161Y015401D02*
X062641Y015401D01*
X062641Y014401D02*
X063161Y014401D01*
X065641Y015401D02*
X066161Y015401D01*
X066161Y016401D02*
X065641Y016401D01*
X068391Y016401D02*
X068911Y016401D01*
X068911Y015401D02*
X068391Y015401D01*
X075891Y019651D02*
X076411Y019651D01*
X076411Y020651D02*
X075891Y020651D01*
X075891Y021651D02*
X076411Y021651D01*
X076411Y022651D02*
X075891Y022651D01*
X075891Y023651D02*
X076411Y023651D01*
X076411Y024651D02*
X075891Y024651D01*
X075891Y025651D02*
X076411Y025651D01*
X076411Y026651D02*
X075891Y026651D01*
X078891Y026651D02*
X079411Y026651D01*
X079411Y025651D02*
X078891Y025651D01*
X078891Y024651D02*
X079411Y024651D01*
X079411Y023651D02*
X078891Y023651D01*
X078891Y022651D02*
X079411Y022651D01*
X079411Y021651D02*
X078891Y021651D01*
X078891Y020651D02*
X079411Y020651D01*
X079411Y019651D02*
X078891Y019651D01*
X081391Y019401D02*
X081911Y019401D01*
X081911Y018401D02*
X081391Y018401D01*
X081391Y017401D02*
X081911Y017401D01*
X084391Y017401D02*
X084911Y017401D01*
X084911Y018401D02*
X084391Y018401D01*
X084391Y019401D02*
X084911Y019401D01*
X087141Y019651D02*
X087661Y019651D01*
X087661Y020651D02*
X087141Y020651D01*
X087141Y021651D02*
X087661Y021651D01*
X087661Y022651D02*
X087141Y022651D01*
X087141Y023651D02*
X087661Y023651D01*
X087661Y024651D02*
X087141Y024651D01*
X087141Y025651D02*
X087661Y025651D01*
X087661Y026651D02*
X087141Y026651D01*
X084911Y023401D02*
X084391Y023401D01*
X084391Y022401D02*
X084911Y022401D01*
X084911Y021401D02*
X084391Y021401D01*
X084391Y020401D02*
X084911Y020401D01*
X081911Y020401D02*
X081391Y020401D01*
X081391Y021401D02*
X081911Y021401D01*
X081911Y022401D02*
X081391Y022401D01*
X081391Y023401D02*
X081911Y023401D01*
X087141Y018651D02*
X087661Y018651D01*
X087661Y017651D02*
X087141Y017651D01*
X087141Y016651D02*
X087661Y016651D01*
X087661Y015651D02*
X087141Y015651D01*
X084911Y015401D02*
X084391Y015401D01*
X084391Y016401D02*
X084911Y016401D01*
X081911Y016401D02*
X081391Y016401D01*
X081391Y015401D02*
X081911Y015401D01*
X081911Y014401D02*
X081391Y014401D01*
X084391Y014401D02*
X084911Y014401D01*
X084661Y010901D02*
X084141Y010901D01*
X081661Y010901D02*
X081141Y010901D01*
X081141Y009901D02*
X081661Y009901D01*
X081661Y008901D02*
X081141Y008901D01*
X081141Y007901D02*
X081661Y007901D01*
X081661Y006901D02*
X081141Y006901D01*
X081141Y005901D02*
X081661Y005901D01*
X084141Y005901D02*
X084661Y005901D01*
X084661Y006901D02*
X084141Y006901D01*
X084141Y007901D02*
X084661Y007901D01*
X084661Y008901D02*
X084141Y008901D01*
X084141Y009901D02*
X084661Y009901D01*
X090141Y009901D02*
X090661Y009901D01*
X090661Y008901D02*
X090141Y008901D01*
X090141Y007901D02*
X090661Y007901D01*
X090661Y006901D02*
X090141Y006901D01*
X090141Y005901D02*
X090661Y005901D01*
X090661Y004901D02*
X090141Y004901D01*
X093141Y004901D02*
X093661Y004901D01*
X093661Y005901D02*
X093141Y005901D01*
X093141Y006901D02*
X093661Y006901D01*
X093661Y007901D02*
X093141Y007901D01*
X093141Y008901D02*
X093661Y008901D01*
X093661Y009901D02*
X093141Y009901D01*
X093141Y010901D02*
X093661Y010901D01*
X090661Y010901D02*
X090141Y010901D01*
X098391Y010901D02*
X098911Y010901D01*
X101391Y010901D02*
X101911Y010901D01*
X101911Y009901D02*
X101391Y009901D01*
X101391Y008901D02*
X101911Y008901D01*
X098911Y008901D02*
X098391Y008901D01*
X098391Y009901D02*
X098911Y009901D01*
X098911Y007901D02*
X098391Y007901D01*
X098391Y006901D02*
X098911Y006901D01*
X098911Y005901D02*
X098391Y005901D01*
X098391Y004901D02*
X098911Y004901D01*
X101391Y004901D02*
X101911Y004901D01*
X101911Y005901D02*
X101391Y005901D01*
X101391Y006901D02*
X101911Y006901D01*
X101911Y007901D02*
X101391Y007901D01*
X084661Y004901D02*
X084141Y004901D01*
X081661Y004901D02*
X081141Y004901D01*
X093141Y015651D02*
X093661Y015651D01*
X093661Y016651D02*
X093141Y016651D01*
X093141Y017651D02*
X093661Y017651D01*
X093661Y018651D02*
X093141Y018651D01*
X093141Y019651D02*
X093661Y019651D01*
X093661Y020651D02*
X093141Y020651D01*
X093141Y021651D02*
X093661Y021651D01*
X093661Y022651D02*
X093141Y022651D01*
X093141Y023651D02*
X093661Y023651D01*
X093661Y024651D02*
X093141Y024651D01*
X093141Y025651D02*
X093661Y025651D01*
X093661Y026651D02*
X093141Y026651D01*
X098391Y026651D02*
X098911Y026651D01*
X098911Y025651D02*
X098391Y025651D01*
X098391Y024651D02*
X098911Y024651D01*
X101391Y024651D02*
X101911Y024651D01*
X101911Y025651D02*
X101391Y025651D01*
X101391Y026651D02*
X101911Y026651D01*
X101911Y023651D02*
X101391Y023651D01*
X101391Y022651D02*
X101911Y022651D01*
X098911Y022651D02*
X098391Y022651D01*
X098391Y023651D02*
X098911Y023651D01*
X098911Y021651D02*
X098391Y021651D01*
X098391Y020651D02*
X098911Y020651D01*
X098911Y019651D02*
X098391Y019651D01*
X098391Y018651D02*
X098911Y018651D01*
X098911Y017651D02*
X098391Y017651D01*
X101391Y017651D02*
X101911Y017651D01*
X101911Y018651D02*
X101391Y018651D01*
X101391Y019651D02*
X101911Y019651D01*
X101911Y020651D02*
X101391Y020651D01*
X101391Y021651D02*
X101911Y021651D01*
X114891Y022401D02*
X115411Y022401D01*
X115411Y023401D02*
X114891Y023401D01*
X114891Y024401D02*
X115411Y024401D01*
X115411Y025401D02*
X114891Y025401D01*
X114891Y026401D02*
X115411Y026401D01*
X115411Y027401D02*
X114891Y027401D01*
X114891Y028401D02*
X115411Y028401D01*
X120891Y028401D02*
X121411Y028401D01*
X121411Y029401D02*
X120891Y029401D01*
X123891Y029401D02*
X124411Y029401D01*
X124411Y028401D02*
X123891Y028401D01*
X123891Y027401D02*
X124411Y027401D01*
X124411Y026401D02*
X123891Y026401D01*
X123891Y025401D02*
X124411Y025401D01*
X124411Y024401D02*
X123891Y024401D01*
X123891Y023401D02*
X124411Y023401D01*
X121411Y023401D02*
X120891Y023401D01*
X120891Y024401D02*
X121411Y024401D01*
X121411Y025401D02*
X120891Y025401D01*
X120891Y026401D02*
X121411Y026401D01*
X121411Y027401D02*
X120891Y027401D01*
X113161Y031401D02*
X112641Y031401D01*
X112641Y032401D02*
X113161Y032401D01*
X113161Y033401D02*
X112641Y033401D01*
X112641Y034401D02*
X113161Y034401D01*
X113161Y035401D02*
X112641Y035401D01*
X112641Y036401D02*
X113161Y036401D01*
X113161Y037401D02*
X112641Y037401D01*
X110161Y037401D02*
X109641Y037401D01*
X109641Y036401D02*
X110161Y036401D01*
X110161Y035401D02*
X109641Y035401D01*
X109641Y034401D02*
X110161Y034401D01*
X110161Y033401D02*
X109641Y033401D01*
X109641Y032401D02*
X110161Y032401D01*
X110161Y031401D02*
X109641Y031401D01*
X101911Y031401D02*
X101391Y031401D01*
X101391Y032401D02*
X101911Y032401D01*
X098911Y032401D02*
X098391Y032401D01*
X098391Y031401D02*
X098911Y031401D01*
X098911Y033401D02*
X098391Y033401D01*
X098391Y034401D02*
X098911Y034401D01*
X101391Y034401D02*
X101911Y034401D01*
X101911Y033401D02*
X101391Y033401D01*
X101391Y035401D02*
X101911Y035401D01*
X101911Y036401D02*
X101391Y036401D01*
X101391Y037401D02*
X101911Y037401D01*
X098911Y037401D02*
X098391Y037401D01*
X098391Y036401D02*
X098911Y036401D01*
X098911Y035401D02*
X098391Y035401D01*
X098391Y038401D02*
X098911Y038401D01*
X101391Y038401D02*
X101911Y038401D01*
X109641Y038401D02*
X110161Y038401D01*
X112641Y038401D02*
X113161Y038401D01*
X120891Y038401D02*
X121411Y038401D01*
X121411Y039401D02*
X120891Y039401D01*
X123891Y039401D02*
X124411Y039401D01*
X124411Y038401D02*
X123891Y038401D01*
X123891Y037401D02*
X124411Y037401D01*
X124411Y036401D02*
X123891Y036401D01*
X123891Y035401D02*
X124411Y035401D01*
X124411Y034401D02*
X123891Y034401D01*
X123891Y033401D02*
X124411Y033401D01*
X121411Y033401D02*
X120891Y033401D01*
X120891Y034401D02*
X121411Y034401D01*
X121411Y035401D02*
X120891Y035401D01*
X120891Y036401D02*
X121411Y036401D01*
X121411Y037401D02*
X120891Y037401D01*
X132391Y037401D02*
X132911Y037401D01*
X132911Y036401D02*
X132391Y036401D01*
X132391Y035401D02*
X132911Y035401D01*
X135391Y035401D02*
X135911Y035401D01*
X135911Y036401D02*
X135391Y036401D01*
X135391Y037401D02*
X135911Y037401D01*
X135911Y038401D02*
X135391Y038401D01*
X135391Y039401D02*
X135911Y039401D01*
X132911Y039401D02*
X132391Y039401D01*
X132391Y038401D02*
X132911Y038401D01*
X132911Y034401D02*
X132391Y034401D01*
X132391Y033401D02*
X132911Y033401D01*
X135391Y033401D02*
X135911Y033401D01*
X135911Y034401D02*
X135391Y034401D01*
X143391Y034401D02*
X143911Y034401D01*
X143911Y033401D02*
X143391Y033401D01*
X146391Y033401D02*
X146911Y033401D01*
X146911Y034401D02*
X146391Y034401D01*
X146391Y035401D02*
X146911Y035401D01*
X146911Y036401D02*
X146391Y036401D01*
X146391Y037401D02*
X146911Y037401D01*
X146911Y038401D02*
X146391Y038401D01*
X146391Y039401D02*
X146911Y039401D01*
X143911Y039401D02*
X143391Y039401D01*
X143391Y038401D02*
X143911Y038401D01*
X143911Y037401D02*
X143391Y037401D01*
X143391Y036401D02*
X143911Y036401D01*
X143911Y035401D02*
X143391Y035401D01*
X143391Y026651D02*
X143911Y026651D01*
X143911Y025651D02*
X143391Y025651D01*
X143391Y024651D02*
X143911Y024651D01*
X146391Y024651D02*
X146911Y024651D01*
X146911Y025651D02*
X146391Y025651D01*
X146391Y026651D02*
X146911Y026651D01*
X146911Y023651D02*
X146391Y023651D01*
X146391Y022651D02*
X146911Y022651D01*
X146911Y021651D02*
X146391Y021651D01*
X146391Y020651D02*
X146911Y020651D01*
X143911Y020651D02*
X143391Y020651D01*
X143391Y021651D02*
X143911Y021651D01*
X143911Y022651D02*
X143391Y022651D01*
X143391Y023651D02*
X143911Y023651D01*
X135661Y023651D02*
X135141Y023651D01*
X135141Y022651D02*
X135661Y022651D01*
X135661Y021651D02*
X135141Y021651D01*
X135141Y020651D02*
X135661Y020651D01*
X132661Y020651D02*
X132141Y020651D01*
X132141Y021651D02*
X132661Y021651D01*
X132661Y022651D02*
X132141Y022651D01*
X132141Y023651D02*
X132661Y023651D01*
X132661Y024651D02*
X132141Y024651D01*
X132141Y025651D02*
X132661Y025651D01*
X132661Y026651D02*
X132141Y026651D01*
X135141Y026651D02*
X135661Y026651D01*
X135661Y025651D02*
X135141Y025651D01*
X135141Y024651D02*
X135661Y024651D01*
X124411Y021651D02*
X123891Y021651D01*
X123891Y020651D02*
X124411Y020651D01*
X124411Y019651D02*
X123891Y019651D01*
X121411Y019651D02*
X120891Y019651D01*
X120891Y020651D02*
X121411Y020651D01*
X121411Y021651D02*
X120891Y021651D01*
X120891Y018651D02*
X121411Y018651D01*
X121411Y017651D02*
X120891Y017651D01*
X120891Y016651D02*
X121411Y016651D01*
X123891Y016651D02*
X124411Y016651D01*
X124411Y017651D02*
X123891Y017651D01*
X123891Y018651D02*
X124411Y018651D01*
X124411Y015651D02*
X123891Y015651D01*
X123891Y014651D02*
X124411Y014651D01*
X121411Y014651D02*
X120891Y014651D01*
X120891Y015651D02*
X121411Y015651D01*
X121411Y010901D02*
X120891Y010901D01*
X120891Y009901D02*
X121411Y009901D01*
X121411Y008901D02*
X120891Y008901D01*
X120891Y007901D02*
X121411Y007901D01*
X121411Y006901D02*
X120891Y006901D01*
X120891Y005901D02*
X121411Y005901D01*
X123891Y005901D02*
X124411Y005901D01*
X124411Y006901D02*
X123891Y006901D01*
X123891Y007901D02*
X124411Y007901D01*
X124411Y008901D02*
X123891Y008901D01*
X123891Y009901D02*
X124411Y009901D01*
X124411Y010901D02*
X123891Y010901D01*
X128391Y010901D02*
X128911Y010901D01*
X128911Y009901D02*
X128391Y009901D01*
X128391Y008901D02*
X128911Y008901D01*
X128911Y007901D02*
X128391Y007901D01*
X128391Y006901D02*
X128911Y006901D01*
X128911Y005901D02*
X128391Y005901D01*
X128391Y004901D02*
X128911Y004901D01*
X131391Y004901D02*
X131911Y004901D01*
X131911Y005901D02*
X131391Y005901D01*
X131391Y006901D02*
X131911Y006901D01*
X131911Y007901D02*
X131391Y007901D01*
X131391Y008901D02*
X131911Y008901D01*
X131911Y009901D02*
X131391Y009901D01*
X131391Y010901D02*
X131911Y010901D01*
X135891Y010901D02*
X136411Y010901D01*
X136411Y009901D02*
X135891Y009901D01*
X135891Y008901D02*
X136411Y008901D01*
X136411Y007901D02*
X135891Y007901D01*
X135891Y006901D02*
X136411Y006901D01*
X136411Y005901D02*
X135891Y005901D01*
X135891Y004901D02*
X136411Y004901D01*
X138891Y004901D02*
X139411Y004901D01*
X139411Y005901D02*
X138891Y005901D01*
X138891Y006901D02*
X139411Y006901D01*
X139411Y007901D02*
X138891Y007901D01*
X138891Y008901D02*
X139411Y008901D01*
X139411Y009901D02*
X138891Y009901D01*
X138891Y010901D02*
X139411Y010901D01*
X143391Y010901D02*
X143911Y010901D01*
X146391Y010901D02*
X146911Y010901D01*
X146911Y009901D02*
X146391Y009901D01*
X146391Y008901D02*
X146911Y008901D01*
X146911Y007901D02*
X146391Y007901D01*
X146391Y006901D02*
X146911Y006901D01*
X146911Y005901D02*
X146391Y005901D01*
X143911Y005901D02*
X143391Y005901D01*
X143391Y006901D02*
X143911Y006901D01*
X143911Y007901D02*
X143391Y007901D01*
X143391Y008901D02*
X143911Y008901D01*
X143911Y009901D02*
X143391Y009901D01*
X143391Y004901D02*
X143911Y004901D01*
X146391Y004901D02*
X146911Y004901D01*
X124411Y004901D02*
X123891Y004901D01*
X121411Y004901D02*
X120891Y004901D01*
X090411Y031401D02*
X089891Y031401D01*
X089891Y032401D02*
X090411Y032401D01*
X090411Y033401D02*
X089891Y033401D01*
X089891Y034401D02*
X090411Y034401D01*
X090411Y035401D02*
X089891Y035401D01*
X089891Y036401D02*
X090411Y036401D01*
X090411Y037401D02*
X089891Y037401D01*
X087411Y037401D02*
X086891Y037401D01*
X086891Y036401D02*
X087411Y036401D01*
X087411Y035401D02*
X086891Y035401D01*
X086891Y034401D02*
X087411Y034401D01*
X087411Y033401D02*
X086891Y033401D01*
X086891Y032401D02*
X087411Y032401D01*
X087411Y031401D02*
X086891Y031401D01*
X079411Y031401D02*
X078891Y031401D01*
X078891Y032401D02*
X079411Y032401D01*
X079411Y033401D02*
X078891Y033401D01*
X078891Y034401D02*
X079411Y034401D01*
X079411Y035401D02*
X078891Y035401D01*
X078891Y036401D02*
X079411Y036401D01*
X079411Y037401D02*
X078891Y037401D01*
X076411Y037401D02*
X075891Y037401D01*
X075891Y036401D02*
X076411Y036401D01*
X076411Y035401D02*
X075891Y035401D01*
X075891Y034401D02*
X076411Y034401D01*
X076411Y033401D02*
X075891Y033401D01*
X075891Y032401D02*
X076411Y032401D01*
X076411Y031401D02*
X075891Y031401D01*
X068161Y038151D02*
X067641Y038151D01*
X067641Y039151D02*
X068161Y039151D01*
X068161Y040151D02*
X067641Y040151D01*
X067641Y041151D02*
X068161Y041151D01*
X068161Y042151D02*
X067641Y042151D01*
X067641Y043151D02*
X068161Y043151D01*
X068161Y044151D02*
X067641Y044151D01*
X067641Y045151D02*
X068161Y045151D01*
X065161Y045151D02*
X064641Y045151D01*
X064641Y044151D02*
X065161Y044151D01*
X065161Y043151D02*
X064641Y043151D01*
X064641Y042151D02*
X065161Y042151D01*
X065161Y041151D02*
X064641Y041151D01*
X064641Y040151D02*
X065161Y040151D01*
X065161Y039151D02*
X064641Y039151D01*
X064641Y038151D02*
X065161Y038151D01*
X059911Y038151D02*
X059391Y038151D01*
X059391Y037151D02*
X059911Y037151D01*
X059911Y036151D02*
X059391Y036151D01*
X059391Y039151D02*
X059911Y039151D01*
X059911Y040151D02*
X059391Y040151D01*
X059391Y041151D02*
X059911Y041151D01*
X059911Y042151D02*
X059391Y042151D01*
X059391Y043151D02*
X059911Y043151D01*
X059911Y044151D02*
X059391Y044151D01*
X059391Y045151D02*
X059911Y045151D01*
X059911Y046151D02*
X059391Y046151D01*
X059391Y047151D02*
X059911Y047151D01*
X059911Y048151D02*
X059391Y048151D01*
X059391Y049151D02*
X059911Y049151D01*
X059911Y050151D02*
X059391Y050151D01*
X059391Y051151D02*
X059911Y051151D01*
X059911Y052151D02*
X059391Y052151D01*
X059391Y053151D02*
X059911Y053151D01*
X059911Y054151D02*
X059391Y054151D01*
X059391Y055151D02*
X059911Y055151D01*
X064641Y054151D02*
X065161Y054151D01*
X065161Y053151D02*
X064641Y053151D01*
X064641Y052151D02*
X065161Y052151D01*
X065161Y051151D02*
X064641Y051151D01*
X064641Y050151D02*
X065161Y050151D01*
X065161Y049151D02*
X064641Y049151D01*
X064641Y048151D02*
X065161Y048151D01*
X065161Y047151D02*
X064641Y047151D01*
X067641Y047151D02*
X068161Y047151D01*
X068161Y048151D02*
X067641Y048151D01*
X067641Y049151D02*
X068161Y049151D01*
X068161Y050151D02*
X067641Y050151D01*
X067641Y051151D02*
X068161Y051151D01*
X068161Y052151D02*
X067641Y052151D01*
X067641Y053151D02*
X068161Y053151D01*
X068161Y054151D02*
X067641Y054151D01*
X075391Y054151D02*
X075911Y054151D01*
X075911Y053151D02*
X075391Y053151D01*
X078391Y053151D02*
X078911Y053151D01*
X078911Y054151D02*
X078391Y054151D01*
X078391Y055151D02*
X078911Y055151D01*
X078911Y056151D02*
X078391Y056151D01*
X078391Y057151D02*
X078911Y057151D01*
X078911Y058151D02*
X078391Y058151D01*
X078391Y059151D02*
X078911Y059151D01*
X078911Y060151D02*
X078391Y060151D01*
X075911Y060151D02*
X075391Y060151D01*
X075391Y059151D02*
X075911Y059151D01*
X075911Y058151D02*
X075391Y058151D01*
X075391Y057151D02*
X075911Y057151D01*
X075911Y056151D02*
X075391Y056151D01*
X075391Y055151D02*
X075911Y055151D01*
X086891Y049401D02*
X087411Y049401D01*
X087411Y048401D02*
X086891Y048401D01*
X086891Y047401D02*
X087411Y047401D01*
X087411Y046401D02*
X086891Y046401D01*
X086891Y045401D02*
X087411Y045401D01*
X087411Y044401D02*
X086891Y044401D01*
X086891Y043401D02*
X087411Y043401D01*
X087411Y042401D02*
X086891Y042401D01*
X086891Y041401D02*
X087411Y041401D01*
X087411Y040401D02*
X086891Y040401D01*
X089891Y040401D02*
X090411Y040401D01*
X090411Y041401D02*
X089891Y041401D01*
X089891Y042401D02*
X090411Y042401D01*
X090411Y043401D02*
X089891Y043401D01*
X089891Y044401D02*
X090411Y044401D01*
X090411Y045401D02*
X089891Y045401D01*
X089891Y046401D02*
X090411Y046401D01*
X090411Y047401D02*
X089891Y047401D01*
X089891Y048401D02*
X090411Y048401D01*
X090411Y049401D02*
X089891Y049401D01*
X095141Y049401D02*
X095661Y049401D01*
X095661Y048401D02*
X095141Y048401D01*
X095141Y047401D02*
X095661Y047401D01*
X095661Y046401D02*
X095141Y046401D01*
X095141Y045401D02*
X095661Y045401D01*
X095661Y044401D02*
X095141Y044401D01*
X095141Y043401D02*
X095661Y043401D01*
X098141Y043401D02*
X098661Y043401D01*
X098661Y044401D02*
X098141Y044401D01*
X098141Y045401D02*
X098661Y045401D01*
X098661Y046401D02*
X098141Y046401D01*
X098141Y047401D02*
X098661Y047401D01*
X098661Y048401D02*
X098141Y048401D01*
X098141Y049401D02*
X098661Y049401D01*
X102641Y049401D02*
X103161Y049401D01*
X103161Y048401D02*
X102641Y048401D01*
X102641Y047401D02*
X103161Y047401D01*
X103161Y046401D02*
X102641Y046401D01*
X102641Y045401D02*
X103161Y045401D01*
X103161Y044401D02*
X102641Y044401D01*
X102641Y043401D02*
X103161Y043401D01*
X105641Y043401D02*
X106161Y043401D01*
X106161Y044401D02*
X105641Y044401D01*
X105641Y045401D02*
X106161Y045401D01*
X106161Y046401D02*
X105641Y046401D01*
X105641Y047401D02*
X106161Y047401D01*
X106161Y048401D02*
X105641Y048401D01*
X105641Y049401D02*
X106161Y049401D01*
X109641Y049401D02*
X110161Y049401D01*
X110161Y048401D02*
X109641Y048401D01*
X109641Y047401D02*
X110161Y047401D01*
X110161Y046401D02*
X109641Y046401D01*
X109641Y045401D02*
X110161Y045401D01*
X110161Y044401D02*
X109641Y044401D01*
X109641Y043401D02*
X110161Y043401D01*
X112641Y043401D02*
X113161Y043401D01*
X113161Y044401D02*
X112641Y044401D01*
X112641Y045401D02*
X113161Y045401D01*
X113161Y046401D02*
X112641Y046401D01*
X112641Y047401D02*
X113161Y047401D01*
X113161Y048401D02*
X112641Y048401D01*
X112641Y049401D02*
X113161Y049401D01*
X124651Y049161D02*
X124651Y048641D01*
X125651Y048641D02*
X125651Y049161D01*
X126651Y049161D02*
X126651Y048641D01*
X127651Y048641D02*
X127651Y049161D01*
X128651Y049161D02*
X128651Y048641D01*
X129651Y048641D02*
X129651Y049161D01*
X130651Y049161D02*
X130651Y048641D01*
X130651Y046161D02*
X130651Y045641D01*
X129651Y045641D02*
X129651Y046161D01*
X128651Y046161D02*
X128651Y045641D01*
X127651Y045641D02*
X127651Y046161D01*
X126651Y046161D02*
X126651Y045641D01*
X125651Y045641D02*
X125651Y046161D01*
X124651Y046161D02*
X124651Y045641D01*
X098911Y060651D02*
X098391Y060651D01*
X095911Y060651D02*
X095391Y060651D01*
X095391Y061651D02*
X095911Y061651D01*
X095911Y062651D02*
X095391Y062651D01*
X095391Y063651D02*
X095911Y063651D01*
X095911Y064651D02*
X095391Y064651D01*
X095391Y065651D02*
X095911Y065651D01*
X098391Y065651D02*
X098911Y065651D01*
X098911Y064651D02*
X098391Y064651D01*
X098391Y063651D02*
X098911Y063651D01*
X098911Y062651D02*
X098391Y062651D01*
X098391Y061651D02*
X098911Y061651D01*
X098911Y066651D02*
X098391Y066651D01*
X095911Y066651D02*
X095391Y066651D01*
X066651Y066411D02*
X066651Y065891D01*
X065651Y065891D02*
X065651Y066411D01*
X064651Y066411D02*
X064651Y065891D01*
X063651Y065891D02*
X063651Y066411D01*
X062651Y066411D02*
X062651Y065891D01*
X061651Y065891D02*
X061651Y066411D01*
X060651Y066411D02*
X060651Y065891D01*
X059651Y065891D02*
X059651Y066411D01*
X059651Y063411D02*
X059651Y062891D01*
X060651Y062891D02*
X060651Y063411D01*
X061651Y063411D02*
X061651Y062891D01*
X062651Y062891D02*
X062651Y063411D01*
X063651Y063411D02*
X063651Y062891D01*
X064651Y062891D02*
X064651Y063411D01*
X065651Y063411D02*
X065651Y062891D01*
X066651Y062891D02*
X066651Y063411D01*
X053911Y055151D02*
X053391Y055151D01*
X053391Y054151D02*
X053911Y054151D01*
X053911Y053151D02*
X053391Y053151D01*
X053391Y052151D02*
X053911Y052151D01*
X053911Y051151D02*
X053391Y051151D01*
X053391Y050151D02*
X053911Y050151D01*
X053911Y049151D02*
X053391Y049151D01*
X053391Y048151D02*
X053911Y048151D01*
X053911Y047151D02*
X053391Y047151D01*
X053391Y046151D02*
X053911Y046151D01*
X053911Y045151D02*
X053391Y045151D01*
X053391Y044151D02*
X053911Y044151D01*
X053911Y043151D02*
X053391Y043151D01*
X053391Y042151D02*
X053911Y042151D01*
X053911Y041151D02*
X053391Y041151D01*
X053391Y040151D02*
X053911Y040151D01*
X053911Y039151D02*
X053391Y039151D01*
X053391Y038151D02*
X053911Y038151D01*
X053911Y037151D02*
X053391Y037151D01*
X053391Y036151D02*
X053911Y036151D01*
X046161Y036151D02*
X045641Y036151D01*
X045641Y037151D02*
X046161Y037151D01*
X046161Y038151D02*
X045641Y038151D01*
X045641Y039151D02*
X046161Y039151D01*
X046161Y040151D02*
X045641Y040151D01*
X045641Y041151D02*
X046161Y041151D01*
X046161Y042151D02*
X045641Y042151D01*
X045641Y043151D02*
X046161Y043151D01*
X046161Y044151D02*
X045641Y044151D01*
X045641Y045151D02*
X046161Y045151D01*
X046161Y046151D02*
X045641Y046151D01*
X045641Y047151D02*
X046161Y047151D01*
X046161Y048151D02*
X045641Y048151D01*
X045641Y049151D02*
X046161Y049151D01*
X046161Y050151D02*
X045641Y050151D01*
X045641Y051151D02*
X046161Y051151D01*
X046161Y052151D02*
X045641Y052151D01*
X045641Y053151D02*
X046161Y053151D01*
X046161Y054151D02*
X045641Y054151D01*
X045641Y055151D02*
X046161Y055151D01*
X040161Y055151D02*
X039641Y055151D01*
X039641Y054151D02*
X040161Y054151D01*
X040161Y053151D02*
X039641Y053151D01*
X039641Y052151D02*
X040161Y052151D01*
X040161Y051151D02*
X039641Y051151D01*
X039641Y050151D02*
X040161Y050151D01*
X040161Y049151D02*
X039641Y049151D01*
X039641Y048151D02*
X040161Y048151D01*
X040161Y047151D02*
X039641Y047151D01*
X039641Y046151D02*
X040161Y046151D01*
X040161Y045151D02*
X039641Y045151D01*
X039641Y044151D02*
X040161Y044151D01*
X040161Y043151D02*
X039641Y043151D01*
X039641Y042151D02*
X040161Y042151D01*
X040161Y041151D02*
X039641Y041151D01*
X039641Y040151D02*
X040161Y040151D01*
X040161Y039151D02*
X039641Y039151D01*
X039641Y038151D02*
X040161Y038151D01*
X040161Y037151D02*
X039641Y037151D01*
X039641Y036151D02*
X040161Y036151D01*
X039151Y034161D02*
X039151Y033641D01*
X038151Y033641D02*
X038151Y034161D01*
X037151Y034161D02*
X037151Y033641D01*
X036151Y033641D02*
X036151Y034161D01*
X035151Y034161D02*
X035151Y033641D01*
X034151Y033641D02*
X034151Y034161D01*
X033151Y034161D02*
X033151Y033641D01*
X033151Y031161D02*
X033151Y030641D01*
X034151Y030641D02*
X034151Y031161D01*
X035151Y031161D02*
X035151Y030641D01*
X036151Y030641D02*
X036151Y031161D01*
X037151Y031161D02*
X037151Y030641D01*
X038151Y030641D02*
X038151Y031161D01*
X039151Y031161D02*
X039151Y030641D01*
X039641Y028651D02*
X040161Y028651D01*
X040161Y027651D02*
X039641Y027651D01*
X039641Y026651D02*
X040161Y026651D01*
X040161Y025651D02*
X039641Y025651D01*
X039641Y024651D02*
X040161Y024651D01*
X040161Y023651D02*
X039641Y023651D01*
X039641Y022651D02*
X040161Y022651D01*
X040161Y021651D02*
X039641Y021651D01*
X039641Y020651D02*
X040161Y020651D01*
X040161Y019651D02*
X039641Y019651D01*
X039641Y018651D02*
X040161Y018651D01*
X040161Y017651D02*
X039641Y017651D01*
X039641Y016651D02*
X040161Y016651D01*
X040161Y015651D02*
X039641Y015651D01*
X045641Y015651D02*
X046161Y015651D01*
X046161Y016651D02*
X045641Y016651D01*
X045641Y017651D02*
X046161Y017651D01*
X046161Y018651D02*
X045641Y018651D01*
X045641Y019651D02*
X046161Y019651D01*
X046161Y020651D02*
X045641Y020651D01*
X045641Y021651D02*
X046161Y021651D01*
X046161Y022651D02*
X045641Y022651D01*
X045641Y023651D02*
X046161Y023651D01*
X046161Y024651D02*
X045641Y024651D01*
X045641Y025651D02*
X046161Y025651D01*
X046161Y026651D02*
X045641Y026651D01*
X045641Y027651D02*
X046161Y027651D01*
X046161Y028651D02*
X045641Y028651D01*
X050641Y028651D02*
X051161Y028651D01*
X051161Y027651D02*
X050641Y027651D01*
X050641Y026651D02*
X051161Y026651D01*
X051161Y025651D02*
X050641Y025651D01*
X050641Y024651D02*
X051161Y024651D01*
X051161Y023651D02*
X050641Y023651D01*
X050641Y022651D02*
X051161Y022651D01*
X051161Y021651D02*
X050641Y021651D01*
X050641Y020651D02*
X051161Y020651D01*
X051161Y019651D02*
X050641Y019651D01*
X050641Y018651D02*
X051161Y018651D01*
X051161Y017651D02*
X050641Y017651D01*
X050641Y016651D02*
X051161Y016651D01*
X051161Y015651D02*
X050641Y015651D01*
X056641Y015651D02*
X057161Y015651D01*
X057161Y016651D02*
X056641Y016651D01*
X056641Y017651D02*
X057161Y017651D01*
X057161Y018651D02*
X056641Y018651D01*
X056641Y019651D02*
X057161Y019651D01*
X057161Y020651D02*
X056641Y020651D01*
X056641Y021651D02*
X057161Y021651D01*
X057161Y022651D02*
X056641Y022651D01*
X056641Y023651D02*
X057161Y023651D01*
X057161Y024651D02*
X056641Y024651D01*
X056641Y025651D02*
X057161Y025651D01*
X057161Y026651D02*
X056641Y026651D01*
X056641Y027651D02*
X057161Y027651D01*
X057161Y028651D02*
X056641Y028651D01*
X032411Y036151D02*
X031891Y036151D01*
X031891Y037151D02*
X032411Y037151D01*
X032411Y038151D02*
X031891Y038151D01*
X031891Y039151D02*
X032411Y039151D01*
X032411Y040151D02*
X031891Y040151D01*
X031891Y041151D02*
X032411Y041151D01*
X032411Y042151D02*
X031891Y042151D01*
X031891Y043151D02*
X032411Y043151D01*
X032411Y044151D02*
X031891Y044151D01*
X031891Y045151D02*
X032411Y045151D01*
X032411Y046151D02*
X031891Y046151D01*
X031891Y047151D02*
X032411Y047151D01*
X032411Y048151D02*
X031891Y048151D01*
X031891Y049151D02*
X032411Y049151D01*
X032411Y050151D02*
X031891Y050151D01*
X031891Y051151D02*
X032411Y051151D01*
X032411Y052151D02*
X031891Y052151D01*
X031891Y053151D02*
X032411Y053151D01*
X032411Y054151D02*
X031891Y054151D01*
X031891Y055151D02*
X032411Y055151D01*
X026411Y055151D02*
X025891Y055151D01*
X025891Y054151D02*
X026411Y054151D01*
X026411Y053151D02*
X025891Y053151D01*
X025891Y052151D02*
X026411Y052151D01*
X026411Y051151D02*
X025891Y051151D01*
X025891Y050151D02*
X026411Y050151D01*
X026411Y049151D02*
X025891Y049151D01*
X025891Y048151D02*
X026411Y048151D01*
X026411Y047151D02*
X025891Y047151D01*
X025891Y046151D02*
X026411Y046151D01*
X026411Y045151D02*
X025891Y045151D01*
X025891Y044151D02*
X026411Y044151D01*
X026411Y043151D02*
X025891Y043151D01*
X025891Y042151D02*
X026411Y042151D01*
X026411Y041151D02*
X025891Y041151D01*
X025891Y040151D02*
X026411Y040151D01*
X026411Y039151D02*
X025891Y039151D01*
X025891Y038151D02*
X026411Y038151D01*
X026411Y037151D02*
X025891Y037151D01*
X025891Y036151D02*
X026411Y036151D01*
X020661Y036151D02*
X020141Y036151D01*
X020141Y037151D02*
X020661Y037151D01*
X020661Y038151D02*
X020141Y038151D01*
X020141Y039151D02*
X020661Y039151D01*
X020661Y040151D02*
X020141Y040151D01*
X020141Y041151D02*
X020661Y041151D01*
X020661Y042151D02*
X020141Y042151D01*
X020141Y043151D02*
X020661Y043151D01*
X020661Y044151D02*
X020141Y044151D01*
X020141Y045151D02*
X020661Y045151D01*
X020661Y046151D02*
X020141Y046151D01*
X020141Y047151D02*
X020661Y047151D01*
X020661Y048151D02*
X020141Y048151D01*
X020141Y049151D02*
X020661Y049151D01*
X020661Y050151D02*
X020141Y050151D01*
X020141Y051151D02*
X020661Y051151D01*
X020661Y052151D02*
X020141Y052151D01*
X020141Y053151D02*
X020661Y053151D01*
X020661Y054151D02*
X020141Y054151D01*
X020141Y055151D02*
X020661Y055151D01*
X014661Y055151D02*
X014141Y055151D01*
X014141Y054151D02*
X014661Y054151D01*
X014661Y053151D02*
X014141Y053151D01*
X014141Y052151D02*
X014661Y052151D01*
X014661Y051151D02*
X014141Y051151D01*
X014141Y050151D02*
X014661Y050151D01*
X014661Y049151D02*
X014141Y049151D01*
X014141Y048151D02*
X014661Y048151D01*
X014661Y047151D02*
X014141Y047151D01*
X014141Y046151D02*
X014661Y046151D01*
X014661Y045151D02*
X014141Y045151D01*
X014141Y044151D02*
X014661Y044151D01*
X014661Y043151D02*
X014141Y043151D01*
X014141Y042151D02*
X014661Y042151D01*
X014661Y041151D02*
X014141Y041151D01*
X014141Y040151D02*
X014661Y040151D01*
X014661Y039151D02*
X014141Y039151D01*
X014141Y038151D02*
X014661Y038151D01*
X014661Y037151D02*
X014141Y037151D01*
X014141Y036151D02*
X014661Y036151D01*
X015401Y032661D02*
X015401Y032141D01*
X016401Y032141D02*
X016401Y032661D01*
X017401Y032661D02*
X017401Y032141D01*
X018401Y032141D02*
X018401Y032661D01*
X019401Y032661D02*
X019401Y032141D01*
X020401Y032141D02*
X020401Y032661D01*
X021401Y032661D02*
X021401Y032141D01*
X022401Y032141D02*
X022401Y032661D01*
X023401Y032661D02*
X023401Y032141D01*
X024401Y032141D02*
X024401Y032661D01*
X024401Y029661D02*
X024401Y029141D01*
X023401Y029141D02*
X023401Y029661D01*
X022401Y029661D02*
X022401Y029141D01*
X021401Y029141D02*
X021401Y029661D01*
X020401Y029661D02*
X020401Y029141D01*
X019401Y029141D02*
X019401Y029661D01*
X018401Y029661D02*
X018401Y029141D01*
X017401Y029141D02*
X017401Y029661D01*
X016401Y029661D02*
X016401Y029141D01*
X015401Y029141D02*
X015401Y029661D01*
X012401Y029661D02*
X012401Y029141D01*
X011401Y029141D02*
X011401Y029661D01*
X010401Y029661D02*
X010401Y029141D01*
X009401Y029141D02*
X009401Y029661D01*
X008401Y029661D02*
X008401Y029141D01*
X007401Y029141D02*
X007401Y029661D01*
X006401Y029661D02*
X006401Y029141D01*
X005401Y029141D02*
X005401Y029661D01*
X004401Y029661D02*
X004401Y029141D01*
X003401Y029141D02*
X003401Y029661D01*
X003401Y032141D02*
X003401Y032661D01*
X004401Y032661D02*
X004401Y032141D01*
X005401Y032141D02*
X005401Y032661D01*
X006401Y032661D02*
X006401Y032141D01*
X007401Y032141D02*
X007401Y032661D01*
X008401Y032661D02*
X008401Y032141D01*
X009401Y032141D02*
X009401Y032661D01*
X010401Y032661D02*
X010401Y032141D01*
X011401Y032141D02*
X011401Y032661D01*
X012401Y032661D02*
X012401Y032141D01*
X012641Y022401D02*
X013161Y022401D01*
X013161Y021401D02*
X012641Y021401D01*
X012641Y020401D02*
X013161Y020401D01*
X013161Y019401D02*
X012641Y019401D01*
X012641Y018401D02*
X013161Y018401D01*
X013161Y017401D02*
X012641Y017401D01*
X010651Y018141D02*
X010651Y018661D01*
X009651Y018661D02*
X009651Y018141D01*
X008651Y018141D02*
X008651Y018661D01*
X007651Y018661D02*
X007651Y018141D01*
X006651Y018141D02*
X006651Y018661D01*
X005651Y018661D02*
X005651Y018141D01*
X004651Y018141D02*
X004651Y018661D01*
X004651Y015661D02*
X004651Y015141D01*
X005651Y015141D02*
X005651Y015661D01*
X006651Y015661D02*
X006651Y015141D01*
X007651Y015141D02*
X007651Y015661D01*
X008651Y015661D02*
X008651Y015141D01*
X009651Y015141D02*
X009651Y015661D01*
X010651Y015661D02*
X010651Y015141D01*
X012641Y015401D02*
X013161Y015401D01*
X013161Y016401D02*
X012641Y016401D01*
X012641Y014401D02*
X013161Y014401D01*
X013161Y013401D02*
X012641Y013401D01*
X012641Y012401D02*
X013161Y012401D01*
X013161Y011401D02*
X012641Y011401D01*
X018641Y011401D02*
X019161Y011401D01*
X019161Y012401D02*
X018641Y012401D01*
X018641Y013401D02*
X019161Y013401D01*
X019161Y014401D02*
X018641Y014401D01*
X018641Y015401D02*
X019161Y015401D01*
X019161Y016401D02*
X018641Y016401D01*
X018641Y017401D02*
X019161Y017401D01*
X019161Y018401D02*
X018641Y018401D01*
X018641Y019401D02*
X019161Y019401D01*
X019161Y020401D02*
X018641Y020401D01*
X018641Y021401D02*
X019161Y021401D01*
X019161Y022401D02*
X018641Y022401D01*
X006661Y048151D02*
X006141Y048151D01*
X003661Y048151D02*
X003141Y048151D01*
X003141Y049151D02*
X003661Y049151D01*
X003661Y050151D02*
X003141Y050151D01*
X003141Y051151D02*
X003661Y051151D01*
X006141Y051151D02*
X006661Y051151D01*
X006661Y050151D02*
X006141Y050151D01*
X006141Y049151D02*
X006661Y049151D01*
X006661Y052151D02*
X006141Y052151D01*
X006141Y053151D02*
X006661Y053151D01*
X006661Y054151D02*
X006141Y054151D01*
X003661Y054151D02*
X003141Y054151D01*
X003141Y053151D02*
X003661Y053151D01*
X003661Y052151D02*
X003141Y052151D01*
X038651Y060391D02*
X038651Y060911D01*
X039651Y060911D02*
X039651Y060391D01*
X040651Y060391D02*
X040651Y060911D01*
X041651Y060911D02*
X041651Y060391D01*
X042651Y060391D02*
X042651Y060911D01*
X043651Y060911D02*
X043651Y060391D01*
X044651Y060391D02*
X044651Y060911D01*
X045651Y060911D02*
X045651Y060391D01*
X046651Y060391D02*
X046651Y060911D01*
X074641Y046651D02*
X075161Y046651D01*
X075161Y045651D02*
X074641Y045651D01*
X074641Y044651D02*
X075161Y044651D01*
X075161Y043651D02*
X074641Y043651D01*
X074641Y042651D02*
X075161Y042651D01*
X077641Y042651D02*
X078161Y042651D01*
X078161Y043651D02*
X077641Y043651D01*
X077641Y044651D02*
X078161Y044651D01*
X078161Y045651D02*
X077641Y045651D01*
X077641Y046651D02*
X078161Y046651D01*
X078161Y041651D02*
X077641Y041651D01*
X077641Y040651D02*
X078161Y040651D01*
X075161Y040651D02*
X074641Y040651D01*
X074641Y041651D02*
X075161Y041651D01*
D11*
X071401Y040151D03*
X071401Y036151D03*
X064937Y036154D03*
X064937Y035154D03*
X071401Y032651D03*
X079151Y029651D03*
X079151Y028651D03*
X071401Y028651D03*
X058401Y028651D03*
X058401Y029651D03*
X052401Y034401D03*
X052401Y035401D03*
X046401Y034151D03*
X042401Y034151D03*
X041459Y034689D03*
X040459Y034689D03*
X031901Y034401D03*
X031901Y033401D03*
X032401Y029651D03*
X033401Y029651D03*
X025401Y033901D03*
X025401Y034901D03*
X013901Y032651D03*
X013901Y031651D03*
X002151Y032401D03*
X001151Y032401D03*
X010651Y022901D03*
X011651Y022901D03*
X003151Y018401D03*
X003151Y017401D03*
X005651Y013151D03*
X007651Y013151D03*
X009651Y012651D03*
X010651Y012651D03*
X018901Y008901D03*
X019901Y008901D03*
X016651Y008401D03*
X017901Y006901D03*
X017901Y005901D03*
X018901Y004901D03*
X019901Y004901D03*
X019401Y003901D03*
X018401Y003901D03*
X011901Y005401D03*
X011901Y006401D03*
X012651Y008401D03*
X010651Y008651D03*
X009651Y008651D03*
X027151Y011651D03*
X027151Y012651D03*
X033651Y012651D03*
X033651Y011651D03*
X042401Y011651D03*
X042401Y012651D03*
X049901Y012651D03*
X049901Y011651D03*
X059524Y011666D03*
X059524Y012666D03*
X062151Y012651D03*
X062151Y011651D03*
X063401Y010901D03*
X068901Y011651D03*
X068901Y012651D03*
X076651Y011651D03*
X080151Y011651D03*
X080151Y012651D03*
X085651Y012651D03*
X085651Y011651D03*
X095151Y011651D03*
X095151Y012651D03*
X102901Y012651D03*
X102901Y011651D03*
X119901Y011651D03*
X119901Y012651D03*
X125401Y012651D03*
X125401Y011651D03*
X125651Y010901D03*
X132901Y011651D03*
X132901Y012651D03*
X140401Y012651D03*
X140401Y011651D03*
X147901Y011651D03*
X147901Y012651D03*
X125651Y006901D03*
X095151Y027901D03*
X094151Y027901D03*
X102651Y028651D03*
X102651Y029651D03*
X115901Y029651D03*
X115901Y030651D03*
X125151Y030401D03*
X125151Y031401D03*
X126151Y030401D03*
X131651Y030401D03*
X131651Y031401D03*
X135401Y031401D03*
X135401Y030401D03*
X126151Y034401D03*
X124151Y040651D03*
X124151Y041651D03*
X126901Y042901D03*
X127401Y044151D03*
X125401Y044151D03*
X123401Y044151D03*
X120651Y045401D03*
X119401Y045401D03*
X118151Y045401D03*
X119401Y044151D03*
X123151Y046901D03*
X123151Y047901D03*
X120651Y049401D03*
X119401Y049401D03*
X118151Y049401D03*
X110401Y050901D03*
X110401Y051901D03*
X105901Y051901D03*
X105901Y050901D03*
X098401Y050901D03*
X098401Y051901D03*
X090151Y051901D03*
X090151Y050901D03*
X076901Y047901D03*
X075901Y047901D03*
X069901Y045901D03*
X068901Y045901D03*
X073401Y053151D03*
X074401Y053151D03*
X067901Y058901D03*
X066651Y058901D03*
X065901Y059401D03*
X066651Y059901D03*
X061151Y059151D03*
X061151Y055151D03*
X067901Y062901D03*
X073401Y064151D03*
X074651Y064151D03*
X075401Y064651D03*
X074651Y065151D03*
X073401Y065151D03*
X073401Y066651D03*
X069401Y066651D03*
X059651Y067401D03*
X058651Y067401D03*
X027651Y061651D03*
X026651Y061651D03*
X026651Y057651D03*
X027651Y057651D03*
X012151Y054151D03*
X012151Y053151D03*
X012151Y052151D03*
X012151Y051151D03*
X012151Y050151D03*
X012151Y049151D03*
X012151Y048151D03*
X012151Y046901D03*
X013151Y046901D03*
X008151Y048151D03*
X008151Y049151D03*
X008151Y050151D03*
X008151Y051151D03*
X008151Y052151D03*
X008151Y053151D03*
X008151Y054151D03*
X007151Y055151D03*
X007151Y056151D03*
X047151Y028651D03*
X048151Y028651D03*
X080652Y037620D03*
X081652Y037620D03*
X091151Y038651D03*
X091151Y039651D03*
X101651Y040651D03*
X101651Y041651D03*
X112901Y041651D03*
X112901Y040651D03*
X129651Y044151D03*
X130651Y044151D03*
X130901Y042901D03*
X140151Y044151D03*
X140151Y045151D03*
X140151Y047151D03*
X143651Y047151D03*
X143651Y045151D03*
X143651Y044151D03*
X143651Y051151D03*
X140151Y051151D03*
X105151Y063401D03*
X104151Y063401D03*
X103151Y063401D03*
X102151Y064151D03*
X101151Y064151D03*
X103151Y067401D03*
X104151Y067401D03*
X105151Y067401D03*
X102151Y068151D03*
X101151Y068151D03*
X098151Y067901D03*
X098151Y068901D03*
X143401Y031401D03*
X143401Y030401D03*
X146651Y030401D03*
X146651Y031401D03*
X076651Y007651D03*
X063401Y006901D03*
D12*
X016651Y006901D03*
X016651Y005901D03*
X016651Y004901D03*
X016651Y003901D03*
X013651Y003901D03*
X013651Y004901D03*
X013651Y005901D03*
X013651Y006901D03*
X006401Y005551D03*
X005451Y011651D03*
X007351Y011651D03*
D13*
X021151Y003651D03*
X136901Y055901D03*
D14*
X137901Y055901D03*
X021151Y004651D03*
D15*
X020518Y066773D02*
X020518Y067419D01*
X020784Y067419D01*
X020784Y066773D01*
X020518Y066773D01*
X020518Y066927D02*
X020784Y066927D01*
X020784Y067081D02*
X020518Y067081D01*
X020518Y067235D02*
X020784Y067235D01*
X020784Y067389D02*
X020518Y067389D01*
X018768Y067419D02*
X018768Y066773D01*
X018768Y067419D02*
X019034Y067419D01*
X019034Y066773D01*
X018768Y066773D01*
X018768Y066927D02*
X019034Y066927D01*
X019034Y067081D02*
X018768Y067081D01*
X018768Y067235D02*
X019034Y067235D01*
X019034Y067389D02*
X018768Y067389D01*
X017268Y067419D02*
X017268Y066773D01*
X017268Y067419D02*
X017534Y067419D01*
X017534Y066773D01*
X017268Y066773D01*
X017268Y066927D02*
X017534Y066927D01*
X017534Y067081D02*
X017268Y067081D01*
X017268Y067235D02*
X017534Y067235D01*
X017534Y067389D02*
X017268Y067389D01*
X015768Y067419D02*
X015768Y066773D01*
X015768Y067419D02*
X016034Y067419D01*
X016034Y066773D01*
X015768Y066773D01*
X015768Y066927D02*
X016034Y066927D01*
X016034Y067081D02*
X015768Y067081D01*
X015768Y067235D02*
X016034Y067235D01*
X016034Y067389D02*
X015768Y067389D01*
X014268Y067419D02*
X014268Y066773D01*
X014268Y067419D02*
X014534Y067419D01*
X014534Y066773D01*
X014268Y066773D01*
X014268Y066927D02*
X014534Y066927D01*
X014534Y067081D02*
X014268Y067081D01*
X014268Y067235D02*
X014534Y067235D01*
X014534Y067389D02*
X014268Y067389D01*
X012518Y067419D02*
X012518Y066773D01*
X012518Y067419D02*
X012784Y067419D01*
X012784Y066773D01*
X012518Y066773D01*
X012518Y066927D02*
X012784Y066927D01*
X012784Y067081D02*
X012518Y067081D01*
X012518Y067235D02*
X012784Y067235D01*
X012784Y067389D02*
X012518Y067389D01*
X011018Y067419D02*
X011018Y066773D01*
X011018Y067419D02*
X011284Y067419D01*
X011284Y066773D01*
X011018Y066773D01*
X011018Y066927D02*
X011284Y066927D01*
X011284Y067081D02*
X011018Y067081D01*
X011018Y067235D02*
X011284Y067235D01*
X011284Y067389D02*
X011018Y067389D01*
X009518Y067419D02*
X009518Y066773D01*
X009518Y067419D02*
X009784Y067419D01*
X009784Y066773D01*
X009518Y066773D01*
X009518Y066927D02*
X009784Y066927D01*
X009784Y067081D02*
X009518Y067081D01*
X009518Y067235D02*
X009784Y067235D01*
X009784Y067389D02*
X009518Y067389D01*
X022018Y067419D02*
X022018Y066773D01*
X022018Y067419D02*
X022284Y067419D01*
X022284Y066773D01*
X022018Y066773D01*
X022018Y066927D02*
X022284Y066927D01*
X022284Y067081D02*
X022018Y067081D01*
X022018Y067235D02*
X022284Y067235D01*
X022284Y067389D02*
X022018Y067389D01*
X023518Y067419D02*
X023518Y066773D01*
X023518Y067419D02*
X023784Y067419D01*
X023784Y066773D01*
X023518Y066773D01*
X023518Y066927D02*
X023784Y066927D01*
X023784Y067081D02*
X023518Y067081D01*
X023518Y067235D02*
X023784Y067235D01*
X023784Y067389D02*
X023518Y067389D01*
X025284Y067419D02*
X025284Y066773D01*
X025018Y066773D01*
X025018Y067419D01*
X025284Y067419D01*
X025284Y066927D02*
X025018Y066927D01*
X025018Y067081D02*
X025284Y067081D01*
X025284Y067235D02*
X025018Y067235D01*
X025018Y067389D02*
X025284Y067389D01*
X026518Y067419D02*
X026518Y066773D01*
X026518Y067419D02*
X026784Y067419D01*
X026784Y066773D01*
X026518Y066773D01*
X026518Y066927D02*
X026784Y066927D01*
X026784Y067081D02*
X026518Y067081D01*
X026518Y067235D02*
X026784Y067235D01*
X026784Y067389D02*
X026518Y067389D01*
X043018Y067169D02*
X043018Y066523D01*
X043018Y067169D02*
X043284Y067169D01*
X043284Y066523D01*
X043018Y066523D01*
X043018Y066677D02*
X043284Y066677D01*
X043284Y066831D02*
X043018Y066831D01*
X043018Y066985D02*
X043284Y066985D01*
X043284Y067139D02*
X043018Y067139D01*
X044518Y067169D02*
X044518Y066523D01*
X044518Y067169D02*
X044784Y067169D01*
X044784Y066523D01*
X044518Y066523D01*
X044518Y066677D02*
X044784Y066677D01*
X044784Y066831D02*
X044518Y066831D01*
X044518Y066985D02*
X044784Y066985D01*
X044784Y067139D02*
X044518Y067139D01*
X046018Y067169D02*
X046018Y066523D01*
X046018Y067169D02*
X046284Y067169D01*
X046284Y066523D01*
X046018Y066523D01*
X046018Y066677D02*
X046284Y066677D01*
X046284Y066831D02*
X046018Y066831D01*
X046018Y066985D02*
X046284Y066985D01*
X046284Y067139D02*
X046018Y067139D01*
X047768Y067169D02*
X047768Y066523D01*
X047768Y067169D02*
X048034Y067169D01*
X048034Y066523D01*
X047768Y066523D01*
X047768Y066677D02*
X048034Y066677D01*
X048034Y066831D02*
X047768Y066831D01*
X047768Y066985D02*
X048034Y066985D01*
X048034Y067139D02*
X047768Y067139D01*
X049268Y067169D02*
X049268Y066523D01*
X049268Y067169D02*
X049534Y067169D01*
X049534Y066523D01*
X049268Y066523D01*
X049268Y066677D02*
X049534Y066677D01*
X049534Y066831D02*
X049268Y066831D01*
X049268Y066985D02*
X049534Y066985D01*
X049534Y067139D02*
X049268Y067139D01*
X050768Y067169D02*
X050768Y066523D01*
X050768Y067169D02*
X051034Y067169D01*
X051034Y066523D01*
X050768Y066523D01*
X050768Y066677D02*
X051034Y066677D01*
X051034Y066831D02*
X050768Y066831D01*
X050768Y066985D02*
X051034Y066985D01*
X051034Y067139D02*
X050768Y067139D01*
X116768Y067419D02*
X116768Y066773D01*
X116768Y067419D02*
X117034Y067419D01*
X117034Y066773D01*
X116768Y066773D01*
X116768Y066927D02*
X117034Y066927D01*
X117034Y067081D02*
X116768Y067081D01*
X116768Y067235D02*
X117034Y067235D01*
X117034Y067389D02*
X116768Y067389D01*
X118268Y067419D02*
X118268Y066773D01*
X118268Y067419D02*
X118534Y067419D01*
X118534Y066773D01*
X118268Y066773D01*
X118268Y066927D02*
X118534Y066927D01*
X118534Y067081D02*
X118268Y067081D01*
X118268Y067235D02*
X118534Y067235D01*
X118534Y067389D02*
X118268Y067389D01*
X119768Y067419D02*
X119768Y066773D01*
X119768Y067419D02*
X120034Y067419D01*
X120034Y066773D01*
X119768Y066773D01*
X119768Y066927D02*
X120034Y066927D01*
X120034Y067081D02*
X119768Y067081D01*
X119768Y067235D02*
X120034Y067235D01*
X120034Y067389D02*
X119768Y067389D01*
X121518Y067419D02*
X121518Y066773D01*
X121518Y067419D02*
X121784Y067419D01*
X121784Y066773D01*
X121518Y066773D01*
X121518Y066927D02*
X121784Y066927D01*
X121784Y067081D02*
X121518Y067081D01*
X121518Y067235D02*
X121784Y067235D01*
X121784Y067389D02*
X121518Y067389D01*
X123018Y067419D02*
X123018Y066773D01*
X123018Y067419D02*
X123284Y067419D01*
X123284Y066773D01*
X123018Y066773D01*
X123018Y066927D02*
X123284Y066927D01*
X123284Y067081D02*
X123018Y067081D01*
X123018Y067235D02*
X123284Y067235D01*
X123284Y067389D02*
X123018Y067389D01*
X124518Y067419D02*
X124518Y066773D01*
X124518Y067419D02*
X124784Y067419D01*
X124784Y066773D01*
X124518Y066773D01*
X124518Y066927D02*
X124784Y066927D01*
X124784Y067081D02*
X124518Y067081D01*
X124518Y067235D02*
X124784Y067235D01*
X124784Y067389D02*
X124518Y067389D01*
X126018Y067419D02*
X126018Y066773D01*
X126018Y067419D02*
X126284Y067419D01*
X126284Y066773D01*
X126018Y066773D01*
X126018Y066927D02*
X126284Y066927D01*
X126284Y067081D02*
X126018Y067081D01*
X126018Y067235D02*
X126284Y067235D01*
X126284Y067389D02*
X126018Y067389D01*
X127768Y067419D02*
X127768Y066773D01*
X127768Y067419D02*
X128034Y067419D01*
X128034Y066773D01*
X127768Y066773D01*
X127768Y066927D02*
X128034Y066927D01*
X128034Y067081D02*
X127768Y067081D01*
X127768Y067235D02*
X128034Y067235D01*
X128034Y067389D02*
X127768Y067389D01*
X129268Y067419D02*
X129268Y066773D01*
X129268Y067419D02*
X129534Y067419D01*
X129534Y066773D01*
X129268Y066773D01*
X129268Y066927D02*
X129534Y066927D01*
X129534Y067081D02*
X129268Y067081D01*
X129268Y067235D02*
X129534Y067235D01*
X129534Y067389D02*
X129268Y067389D01*
X130768Y067419D02*
X130768Y066773D01*
X130768Y067419D02*
X131034Y067419D01*
X131034Y066773D01*
X130768Y066773D01*
X130768Y066927D02*
X131034Y066927D01*
X131034Y067081D02*
X130768Y067081D01*
X130768Y067235D02*
X131034Y067235D01*
X131034Y067389D02*
X130768Y067389D01*
X132534Y067419D02*
X132534Y066773D01*
X132268Y066773D01*
X132268Y067419D01*
X132534Y067419D01*
X132534Y066927D02*
X132268Y066927D01*
X132268Y067081D02*
X132534Y067081D01*
X132534Y067235D02*
X132268Y067235D01*
X132268Y067389D02*
X132534Y067389D01*
X133768Y067419D02*
X133768Y066773D01*
X133768Y067419D02*
X134034Y067419D01*
X134034Y066773D01*
X133768Y066773D01*
X133768Y066927D02*
X134034Y066927D01*
X134034Y067081D02*
X133768Y067081D01*
X133768Y067235D02*
X134034Y067235D01*
X134034Y067389D02*
X133768Y067389D01*
D16*
X125401Y069096D03*
X018151Y069096D03*
D17*
X046901Y069096D03*
D18*
X046651Y059326D02*
X046651Y058726D01*
X045651Y058726D02*
X045651Y059326D01*
X044651Y059326D02*
X044651Y058726D01*
X043651Y058726D02*
X043651Y059326D01*
X042651Y059326D02*
X042651Y058726D01*
X041651Y058726D02*
X041651Y059326D01*
X040651Y059326D02*
X040651Y058726D01*
X039651Y058726D02*
X039651Y059326D01*
X047651Y059326D02*
X047651Y058726D01*
X048651Y058726D02*
X048651Y059326D01*
X049651Y059326D02*
X049651Y058726D01*
X050651Y058726D02*
X050651Y059326D01*
X051651Y059326D02*
X051651Y058726D01*
X052651Y058726D02*
X052651Y059326D01*
X053651Y059326D02*
X053651Y058726D01*
X054651Y058726D02*
X054651Y059326D01*
X055651Y059326D02*
X055651Y058726D01*
X056651Y058726D02*
X056651Y059326D01*
X058651Y059326D02*
X058651Y058726D01*
X028201Y032901D02*
X027601Y032901D01*
X026851Y032901D02*
X026251Y032901D01*
X026251Y031901D02*
X026851Y031901D01*
X027601Y031901D02*
X028201Y031901D01*
X028201Y030901D02*
X027601Y030901D01*
X026851Y030901D02*
X026251Y030901D01*
X060901Y031851D02*
X060901Y032451D01*
X061901Y032451D02*
X061901Y031851D01*
X062901Y031851D02*
X062901Y032451D01*
X053201Y007901D02*
X052601Y007901D01*
X052601Y006901D02*
X053201Y006901D01*
X053201Y005901D02*
X052601Y005901D01*
X010701Y005401D02*
X010101Y005401D01*
X010101Y006401D02*
X010701Y006401D01*
X132351Y042901D02*
X132951Y042901D01*
X132951Y043901D02*
X132351Y043901D01*
X132351Y044901D02*
X132951Y044901D01*
X132951Y045901D02*
X132351Y045901D01*
X132351Y046901D02*
X132951Y046901D01*
X132951Y047901D02*
X132351Y047901D01*
X132351Y048901D02*
X132951Y048901D01*
X136101Y045151D02*
X136701Y045151D01*
X136701Y044151D02*
X136101Y044151D01*
X141401Y059851D02*
X141401Y060451D01*
X142401Y060451D02*
X142401Y059851D01*
X143401Y059851D02*
X143401Y060451D01*
D19*
X077481Y064151D02*
X076821Y064151D01*
X076821Y065151D02*
X077481Y065151D01*
X077481Y066151D02*
X076821Y066151D01*
D20*
X084051Y065151D03*
D21*
X068901Y062901D03*
X068901Y058901D03*
X121901Y049401D03*
X121901Y045401D03*
X139151Y058401D03*
X139151Y062401D03*
D22*
X136301Y062401D03*
D23*
X137001Y062401D03*
D24*
X129651Y051901D03*
X128651Y051901D03*
X127651Y051901D03*
X126651Y051901D03*
X125651Y051901D03*
X124651Y051901D03*
X123651Y051901D03*
X122651Y051901D03*
X121651Y051901D03*
X135151Y049651D03*
X136151Y049651D03*
X137151Y049651D03*
X150151Y046401D03*
X151151Y046401D03*
X117401Y028401D03*
X116401Y028401D03*
X116401Y027401D03*
X116401Y026401D03*
X116401Y025401D03*
X117401Y025401D03*
X117401Y026401D03*
X117401Y027401D03*
X117401Y024401D03*
X116401Y024401D03*
X116401Y023401D03*
X117401Y023401D03*
X037651Y048651D03*
X023151Y041651D03*
X014401Y060651D03*
X012651Y060651D03*
X025901Y063151D03*
X002401Y008401D03*
X002401Y007401D03*
D25*
X090028Y068007D03*
X093374Y068007D03*
D26*
X091701Y066786D03*
X090244Y065329D03*
X093158Y065329D03*
D27*
X067135Y032401D03*
X065167Y032401D03*
D28*
X034409Y028651D02*
X033894Y028651D01*
X033894Y027651D02*
X034409Y027651D01*
X034409Y026651D02*
X033894Y026651D01*
X033894Y025651D02*
X034409Y025651D01*
X034409Y024651D02*
X033894Y024651D01*
X033894Y023651D02*
X034409Y023651D01*
X034409Y022651D02*
X033894Y022651D01*
X033894Y021651D02*
X034409Y021651D01*
X034409Y020651D02*
X033894Y020651D01*
X033894Y019651D02*
X034409Y019651D01*
X034409Y018651D02*
X033894Y018651D01*
X033894Y017651D02*
X034409Y017651D01*
X034409Y016651D02*
X033894Y016651D01*
X033894Y015651D02*
X034409Y015651D01*
X034409Y014651D02*
X033894Y014651D01*
X033894Y013651D02*
X034409Y013651D01*
X028409Y013651D02*
X027894Y013651D01*
X027894Y014651D02*
X028409Y014651D01*
X028409Y015651D02*
X027894Y015651D01*
X027894Y016651D02*
X028409Y016651D01*
X028409Y017651D02*
X027894Y017651D01*
X027894Y018651D02*
X028409Y018651D01*
X028409Y019651D02*
X027894Y019651D01*
X027894Y020651D02*
X028409Y020651D01*
X028409Y021651D02*
X027894Y021651D01*
X027894Y022651D02*
X028409Y022651D01*
X028409Y023651D02*
X027894Y023651D01*
X027894Y024651D02*
X028409Y024651D01*
X028409Y025651D02*
X027894Y025651D01*
X027894Y026651D02*
X028409Y026651D01*
X028409Y027651D02*
X027894Y027651D01*
X027894Y028651D02*
X028409Y028651D01*
X107394Y028901D02*
X107909Y028901D01*
X107909Y027901D02*
X107394Y027901D01*
X107394Y026901D02*
X107909Y026901D01*
X107909Y025901D02*
X107394Y025901D01*
X107394Y024901D02*
X107909Y024901D01*
X107909Y023901D02*
X107394Y023901D01*
X107394Y022901D02*
X107909Y022901D01*
X107909Y021901D02*
X107394Y021901D01*
X107394Y020901D02*
X107909Y020901D01*
X107909Y019901D02*
X107394Y019901D01*
X107394Y018901D02*
X107909Y018901D01*
X107909Y017901D02*
X107394Y017901D01*
X107394Y016901D02*
X107909Y016901D01*
X107909Y015901D02*
X107394Y015901D01*
X107394Y014901D02*
X107909Y014901D01*
X107909Y013901D02*
X107394Y013901D01*
X113394Y013901D02*
X113909Y013901D01*
X113909Y014901D02*
X113394Y014901D01*
X113394Y015901D02*
X113909Y015901D01*
X113909Y016901D02*
X113394Y016901D01*
X113394Y017901D02*
X113909Y017901D01*
X113909Y018901D02*
X113394Y018901D01*
X113394Y019901D02*
X113909Y019901D01*
X113909Y020901D02*
X113394Y020901D01*
X113394Y021901D02*
X113909Y021901D01*
X113909Y022901D02*
X113394Y022901D01*
X113394Y023901D02*
X113909Y023901D01*
X113909Y024901D02*
X113394Y024901D01*
X113394Y025901D02*
X113909Y025901D01*
X113909Y026901D02*
X113394Y026901D01*
X113394Y027901D02*
X113909Y027901D01*
X113909Y028901D02*
X113394Y028901D01*
D29*
X145121Y053111D03*
X146701Y053111D03*
X148281Y053111D03*
X148281Y054991D03*
X146701Y054991D03*
X145121Y054991D03*
D30*
X153201Y055051D03*
X153201Y053051D03*
D31*
X152120Y061401D03*
X150939Y063252D03*
X149757Y061401D03*
D32*
X013681Y051466D02*
X013221Y051466D01*
X013681Y051466D02*
X013681Y050836D01*
X013221Y050836D01*
X013221Y051466D01*
X013221Y050875D02*
X013681Y050875D01*
X013681Y050914D02*
X013221Y050914D01*
X013221Y050953D02*
X013681Y050953D01*
X013681Y050992D02*
X013221Y050992D01*
X013221Y051031D02*
X013681Y051031D01*
X013681Y051070D02*
X013221Y051070D01*
X013221Y051109D02*
X013681Y051109D01*
X013681Y051148D02*
X013221Y051148D01*
X013221Y051187D02*
X013681Y051187D01*
X013681Y051226D02*
X013221Y051226D01*
X013221Y051265D02*
X013681Y051265D01*
X013681Y051304D02*
X013221Y051304D01*
X013221Y051343D02*
X013681Y051343D01*
X013681Y051382D02*
X013221Y051382D01*
X013221Y051421D02*
X013681Y051421D01*
X013681Y051460D02*
X013221Y051460D01*
X013081Y051466D02*
X012621Y051466D01*
X013081Y051466D02*
X013081Y050836D01*
X012621Y050836D01*
X012621Y051466D01*
X012621Y050875D02*
X013081Y050875D01*
X013081Y050914D02*
X012621Y050914D01*
X012621Y050953D02*
X013081Y050953D01*
X013081Y050992D02*
X012621Y050992D01*
X012621Y051031D02*
X013081Y051031D01*
X013081Y051070D02*
X012621Y051070D01*
X012621Y051109D02*
X013081Y051109D01*
X013081Y051148D02*
X012621Y051148D01*
X012621Y051187D02*
X013081Y051187D01*
X013081Y051226D02*
X012621Y051226D01*
X012621Y051265D02*
X013081Y051265D01*
X013081Y051304D02*
X012621Y051304D01*
X012621Y051343D02*
X013081Y051343D01*
X013081Y051382D02*
X012621Y051382D01*
X012621Y051421D02*
X013081Y051421D01*
X013081Y051460D02*
X012621Y051460D01*
X012831Y054836D02*
X012371Y054836D01*
X012371Y055466D01*
X012831Y055466D01*
X012831Y054836D01*
X012831Y054875D02*
X012371Y054875D01*
X012371Y054914D02*
X012831Y054914D01*
X012831Y054953D02*
X012371Y054953D01*
X012371Y054992D02*
X012831Y054992D01*
X012831Y055031D02*
X012371Y055031D01*
X012371Y055070D02*
X012831Y055070D01*
X012831Y055109D02*
X012371Y055109D01*
X012371Y055148D02*
X012831Y055148D01*
X012831Y055187D02*
X012371Y055187D01*
X012371Y055226D02*
X012831Y055226D01*
X012831Y055265D02*
X012371Y055265D01*
X012371Y055304D02*
X012831Y055304D01*
X012831Y055343D02*
X012371Y055343D01*
X012371Y055382D02*
X012831Y055382D01*
X012831Y055421D02*
X012371Y055421D01*
X012371Y055460D02*
X012831Y055460D01*
X012971Y054836D02*
X013431Y054836D01*
X012971Y054836D02*
X012971Y055466D01*
X013431Y055466D01*
X013431Y054836D01*
X013431Y054875D02*
X012971Y054875D01*
X012971Y054914D02*
X013431Y054914D01*
X013431Y054953D02*
X012971Y054953D01*
X012971Y054992D02*
X013431Y054992D01*
X013431Y055031D02*
X012971Y055031D01*
X012971Y055070D02*
X013431Y055070D01*
X013431Y055109D02*
X012971Y055109D01*
X012971Y055148D02*
X013431Y055148D01*
X013431Y055187D02*
X012971Y055187D01*
X012971Y055226D02*
X013431Y055226D01*
X013431Y055265D02*
X012971Y055265D01*
X012971Y055304D02*
X013431Y055304D01*
X013431Y055343D02*
X012971Y055343D01*
X012971Y055382D02*
X013431Y055382D01*
X013431Y055421D02*
X012971Y055421D01*
X012971Y055460D02*
X013431Y055460D01*
X010056Y054836D02*
X009596Y054836D01*
X009596Y055466D01*
X010056Y055466D01*
X010056Y054836D01*
X010056Y054875D02*
X009596Y054875D01*
X009596Y054914D02*
X010056Y054914D01*
X010056Y054953D02*
X009596Y054953D01*
X009596Y054992D02*
X010056Y054992D01*
X010056Y055031D02*
X009596Y055031D01*
X009596Y055070D02*
X010056Y055070D01*
X010056Y055109D02*
X009596Y055109D01*
X009596Y055148D02*
X010056Y055148D01*
X010056Y055187D02*
X009596Y055187D01*
X009596Y055226D02*
X010056Y055226D01*
X010056Y055265D02*
X009596Y055265D01*
X009596Y055304D02*
X010056Y055304D01*
X010056Y055343D02*
X009596Y055343D01*
X009596Y055382D02*
X010056Y055382D01*
X010056Y055421D02*
X009596Y055421D01*
X009596Y055460D02*
X010056Y055460D01*
X009456Y054836D02*
X008996Y054836D01*
X008996Y055466D01*
X009456Y055466D01*
X009456Y054836D01*
X009456Y054875D02*
X008996Y054875D01*
X008996Y054914D02*
X009456Y054914D01*
X009456Y054953D02*
X008996Y054953D01*
X008996Y054992D02*
X009456Y054992D01*
X009456Y055031D02*
X008996Y055031D01*
X008996Y055070D02*
X009456Y055070D01*
X009456Y055109D02*
X008996Y055109D01*
X008996Y055148D02*
X009456Y055148D01*
X009456Y055187D02*
X008996Y055187D01*
X008996Y055226D02*
X009456Y055226D01*
X009456Y055265D02*
X008996Y055265D01*
X008996Y055304D02*
X009456Y055304D01*
X009456Y055343D02*
X008996Y055343D01*
X008996Y055382D02*
X009456Y055382D01*
X009456Y055421D02*
X008996Y055421D01*
X008996Y055460D02*
X009456Y055460D01*
D33*
X009526Y055151D03*
X012901Y055151D03*
X013151Y051151D03*
D34*
X003301Y003251D03*
X079151Y003451D03*
X150951Y003351D03*
X152151Y024251D03*
X071101Y063551D03*
X035001Y063551D03*
X003201Y063501D03*
X147851Y068701D03*
X151001Y068551D03*
M02*
