%
M48
M72
T01C0.0236
T02C0.0280
T03C0.0315
T04C0.0320
T05C0.0354
T06C0.0394
T07C0.0400
T08C0.0440
T09C0.0591
T10C0.0790
T11C0.0827
T12C0.0906
T13C0.1180
T14C0.1300
T15C0.1500
%
T01
X15151Y2651
X15651Y3151
X21401Y6651
X24651Y8901
X21901Y12651
X25151Y13651
X29901Y15151
X32901Y14151
X35651Y14901
X36651Y14901
X33151Y16401
X32651Y18151
X35901Y18651
X39151Y20151
X39151Y22151
X38651Y22151
X43151Y20151
X47901Y22151
X53651Y23151
X58401Y21651
X58901Y19151
X59901Y18151
X59401Y17151
X58901Y16151
X62151Y15901
X62151Y16901
X62151Y17901
X69401Y20901
X69901Y19901
X74401Y20401
X78401Y20151
X80151Y18401
X79901Y17401
X80651Y16401
X80401Y15526
X78401Y13901
X82901Y13901
X83901Y14901
X86151Y15401
X91151Y19651
X97651Y18651
X100901Y20151
X102901Y18151
X106151Y21151
X106651Y24401
X99651Y27651
X97151Y26651
X89651Y27651
X86401Y27901
X85901Y26151
X85151Y25901
X77901Y26151
X74901Y26151
X73901Y24151
X64151Y26901
X62901Y27901
X67901Y30651
X74401Y33651
X72901Y34151
X66151Y35401
X63151Y38651
X64151Y39651
X66651Y41651
X63151Y42651
X62651Y43651
X61651Y46651
X63651Y48151
X64151Y47651
X66401Y46651
X66901Y47151
X69151Y47651
X62151Y48651
X60651Y50151
X65651Y51651
X65901Y50651
X69901Y52901
X71401Y54651
X66151Y53651
X62901Y55651
X57151Y54901
X56151Y55651
X51151Y56651
X51151Y57151
X51151Y57651
X51151Y58151
X47151Y54651
X48151Y53651
X48401Y52651
X52401Y50651
X49151Y50151
X50151Y47651
X50901Y46651
X37151Y44651
X30651Y45651
X30151Y46151
X29651Y46651
X22151Y51151
X21651Y50901
X22651Y51401
X26901Y52651
X26901Y53651
X29401Y52651
X33151Y53651
X33901Y52651
X28401Y56151
X29151Y57401
X29151Y58151
X28651Y58401
X28401Y58901
X28401Y60401
X18901Y58151
X18401Y58151
X18401Y55151
X18901Y55151
X17151Y55151
X10401Y51651
X15901Y50651
X16401Y49651
X15901Y48651
X16901Y48651
X18901Y50651
X18401Y44651
X17901Y38651
X18901Y38651
X18151Y36151
X25151Y37651
X29151Y38651
X34151Y37651
X36651Y38651
X38651Y37151
X41651Y36651
X43151Y34651
X40901Y33901
X40151Y31151
X40651Y30651
X43901Y31651
X50651Y32401
X51901Y36651
X51651Y37651
X51901Y38651
X50151Y39151
X49651Y39151
X48651Y39651
X56401Y37151
X73651Y43151
X80151Y43401
X80151Y44901
X83151Y44901
X83651Y43901
X83401Y41651
X83401Y40901
X88901Y41151
X88901Y42401
X91651Y44651
X91151Y45901
X100651Y43401
X100651Y41651
X98401Y39151
X95401Y36901
X95651Y36401
X94651Y36901
X93401Y34901
X92651Y34901
X88401Y34901
X84651Y36401
X84151Y36151
X100901Y29651
X103651Y30401
X109901Y28651
X104151Y33401
X106651Y37901
X118401Y42401
X119401Y41651
X120401Y36901
X128401Y35901
X127401Y33151
X128901Y32651
X126901Y28901
X144901Y21151
X137401Y19151
X134901Y18651
X129901Y13401
X136151Y12651
X142151Y9901
X130401Y9151
X126651Y9901
X127151Y6401
X124651Y4151
X119401Y6401
X116151Y5901
X116651Y9401
X117651Y12651
X117401Y14401
X116651Y15901
X116151Y16401
X115151Y16901
X114901Y17901
X116401Y19151
X118401Y20151
X111901Y15901
X104651Y10901
X105651Y10401
X105151Y7401
X104151Y5401
X96651Y5401
X94901Y3776
X93401Y3401
X92651Y3151
X85651Y3276
X83151Y3401
X78401Y7401
X75651Y8151
X73401Y9901
X72901Y5901
X70901Y4401
X71651Y3401
X66401Y4401
X62151Y6401
X61151Y5901
X61151Y4401
X60651Y3401
X57401Y3901
X51401Y2401
X47901Y2901
X47401Y3401
X44651Y3901
X44651Y4651
X44651Y6401
X43651Y6901
X42901Y5401
X46651Y7401
X49901Y5901
X51901Y6901
X50901Y4901
X50401Y4401
X52651Y9901
X51151Y10901
X44401Y13526
X41901Y13526
X42901Y9401
X36901Y6401
X34151Y6401
X28401Y2401
X11401Y7901
X33651Y10401
X52651Y15651
X61401Y12651
X61901Y13651
X59901Y9401
X72526Y15151
X94651Y10901
X94651Y9901
X98651Y13401
X98151Y13901
X122901Y13901
X132901Y2901
X133901Y3401
X147901Y33151
X146651Y41651
X136401Y42401
X114151Y45651
X113901Y50901
X119651Y56901
X128401Y57901
X129651Y59901
X130901Y59401
X131401Y60401
X130901Y60901
X128401Y62651
X127651Y63401
X126151Y61401
X124651Y62401
X123151Y62901
X121401Y63901
X117651Y61901
X93401Y62401
X76151Y68651
X47651Y65651
X46401Y65651
X44901Y65651
X43151Y65651
X39151Y62401
X38151Y61901
X46401Y61651
X71901Y50901
X101151Y47401
X43651Y27151
X41901Y25651
X38651Y27151
X32651Y25651
X32151Y28151
X26651Y29151
X25401Y28401
X26151Y27151
X23901Y25151
X21401Y26151
X20901Y27151
X16901Y25401
X17401Y24401
X19901Y23151
X20651Y21401
X22151Y20401
X30651Y21151
X31651Y20651
X11651Y26651
X11151Y25901
X9901Y24901
X9401Y24401
X8901Y23901
X8901Y21901
X8401Y20901
X8401Y19901
X4401Y27651
X14651Y30151
X15901Y31651
X14401Y33151
X33651Y32151
T02
X136301Y62401
X137001Y62401
T03
X113651Y28901
X113651Y27901
X113651Y26901
X113651Y25901
X113651Y24901
X113651Y23901
X113651Y22901
X113651Y21901
X113651Y20901
X113651Y19901
X113651Y18901
X113651Y17901
X113651Y16901
X113651Y15901
X113651Y14901
X113651Y13901
X107651Y13901
X107651Y14901
X107651Y15901
X107651Y16901
X107651Y17901
X107651Y18901
X107651Y19901
X107651Y20901
X107651Y21901
X107651Y22901
X107651Y23901
X107651Y24901
X107651Y25901
X107651Y26901
X107651Y27901
X107651Y28901
X34151Y28651
X34151Y27651
X34151Y26651
X34151Y25651
X34151Y24651
X34151Y23651
X34151Y22651
X34151Y21651
X34151Y20651
X34151Y19651
X34151Y18651
X34151Y17651
X34151Y16651
X34151Y15651
X34151Y14651
X34151Y13651
X28151Y13651
X28151Y14651
X28151Y15651
X28151Y16651
X28151Y17651
X28151Y18651
X28151Y19651
X28151Y20651
X28151Y21651
X28151Y22651
X28151Y23651
X28151Y24651
X28151Y25651
X28151Y26651
X28151Y27651
X28151Y28651
X16151Y22401
X16151Y9651
T04
X18901Y8901
X19901Y8901
X22901Y8901
X22901Y9901
X22901Y10901
X25901Y10901
X27151Y11651
X27151Y12651
X29651Y10901
X29651Y9901
X29651Y8901
X29651Y7901
X29651Y6901
X29651Y5901
X29651Y4901
X32651Y4901
X32651Y5901
X32651Y6901
X32651Y7901
X32651Y8901
X32651Y9901
X32651Y10901
X33651Y11651
X33651Y12651
X38151Y10901
X38151Y9901
X38151Y8901
X38151Y7901
X38151Y6901
X38151Y5901
X38151Y4901
X41151Y4901
X41151Y5901
X41151Y6901
X41151Y7901
X41151Y8901
X41151Y9901
X41151Y10901
X42401Y11651
X42401Y12651
X45901Y10901
X45901Y9901
X45901Y8901
X45901Y7901
X45901Y6901
X45901Y5901
X45901Y4901
X48901Y4901
X48901Y5901
X48901Y6901
X48901Y7901
X48901Y8901
X48901Y9901
X48901Y10901
X49901Y11651
X49901Y12651
X55401Y10901
X55401Y9901
X55401Y8901
X55401Y7901
X55401Y6901
X55401Y5901
X55401Y4901
X58401Y4901
X58401Y5901
X58401Y6901
X58401Y7901
X58401Y8901
X58401Y9901
X58401Y10901
X59524Y11666
X59524Y12666
X62151Y12651
X62151Y11651
X63401Y10901
X64901Y10901
X64901Y9901
X64901Y8901
X64901Y7901
X64901Y6901
X64901Y5901
X63401Y6901
X64901Y4901
X64901Y3901
X67901Y3901
X67901Y4901
X67901Y5901
X67901Y6901
X67901Y7901
X67901Y8901
X67901Y9901
X67901Y10901
X68901Y11651
X68901Y12651
X68651Y14401
X71651Y14401
X71651Y15401
X71651Y16401
X68651Y16401
X68651Y15401
X65901Y15401
X65901Y16401
X65901Y17401
X65901Y18401
X65901Y19401
X65901Y20401
X65901Y21401
X65901Y22401
X65901Y23401
X68651Y23401
X68651Y22401
X71651Y22401
X71651Y23401
X71651Y21401
X71651Y20401
X68651Y20401
X68651Y21401
X68651Y19401
X68651Y18401
X68651Y17401
X71651Y17401
X71651Y18401
X71651Y19401
X76151Y19651
X76151Y20651
X76151Y21651
X76151Y22651
X76151Y23651
X76151Y24651
X76151Y25651
X76151Y26651
X79151Y26651
X79151Y25651
X79151Y24651
X79151Y23651
X79151Y22651
X79151Y21651
X79151Y20651
X79151Y19651
X81651Y19401
X81651Y18401
X81651Y17401
X81651Y16401
X81651Y15401
X81651Y14401
X80151Y12651
X80151Y11651
X81401Y10901
X84401Y10901
X85651Y11651
X85651Y12651
X84651Y14401
X84651Y15401
X84651Y16401
X87401Y16651
X87401Y17651
X87401Y18651
X84651Y18401
X84651Y17401
X84651Y19401
X87401Y19651
X87401Y20651
X87401Y21651
X84651Y21401
X84651Y20401
X81651Y20401
X81651Y21401
X81651Y22401
X81651Y23401
X84651Y23401
X84651Y22401
X87401Y22651
X87401Y23651
X87401Y24651
X87401Y25651
X87401Y26651
X93401Y26651
X93401Y25651
X93401Y24651
X93401Y23651
X93401Y22651
X93401Y21651
X93401Y20651
X93401Y19651
X93401Y18651
X93401Y17651
X93401Y16651
X93401Y15651
X98651Y17651
X98651Y18651
X98651Y19651
X98651Y20651
X98651Y21651
X98651Y22651
X98651Y23651
X98651Y24651
X98651Y25651
X98651Y26651
X101651Y26651
X101651Y25651
X101651Y24651
X101651Y23651
X101651Y22651
X101651Y21651
X101651Y20651
X101651Y19651
X101651Y18651
X101651Y17651
X102901Y12651
X102901Y11651
X101651Y10901
X101651Y9901
X101651Y8901
X101651Y7901
X101651Y6901
X101651Y5901
X101651Y4901
X98651Y4901
X98651Y5901
X98651Y6901
X98651Y7901
X98651Y8901
X98651Y9901
X98651Y10901
X95151Y11651
X95151Y12651
X93401Y10901
X93401Y9901
X93401Y8901
X93401Y7901
X93401Y6901
X93401Y5901
X93401Y4901
X90401Y4901
X90401Y5901
X90401Y6901
X90401Y7901
X90401Y8901
X90401Y9901
X90401Y10901
X84401Y9901
X84401Y8901
X81401Y8901
X81401Y9901
X81401Y7901
X81401Y6901
X81401Y5901
X84401Y5901
X84401Y6901
X84401Y7901
X84401Y4901
X81401Y4901
X76651Y7651
X76651Y11651
X87401Y15651
X65901Y14401
X62901Y14401
X62901Y15401
X62901Y16401
X62901Y17401
X62901Y18401
X62901Y19401
X62901Y20401
X62901Y21401
X62901Y22401
X62901Y23401
X56901Y23651
X56901Y22651
X56901Y21651
X56901Y20651
X56901Y19651
X56901Y18651
X56901Y17651
X56901Y16651
X56901Y15651
X50901Y15651
X50901Y16651
X50901Y17651
X50901Y18651
X50901Y19651
X50901Y20651
X50901Y21651
X50901Y22651
X50901Y23651
X50901Y24651
X50901Y25651
X50901Y26651
X50901Y27651
X50901Y28651
X48151Y28651
X47151Y28651
X45901Y28651
X45901Y27651
X45901Y26651
X45901Y25651
X45901Y24651
X45901Y23651
X45901Y22651
X45901Y21651
X45901Y20651
X45901Y19651
X45901Y18651
X45901Y17651
X45901Y16651
X45901Y15651
X39901Y15651
X39901Y16651
X39901Y17651
X39901Y18651
X39901Y19651
X39901Y20651
X39901Y21651
X39901Y22651
X39901Y23651
X39901Y24651
X39901Y25651
X39901Y26651
X39901Y27651
X39901Y28651
X39151Y30901
X38151Y30901
X37151Y30901
X36151Y30901
X35151Y30901
X34151Y30901
X33151Y30901
X33401Y29651
X32401Y29651
X31901Y33401
X31901Y34401
X33151Y33901
X34151Y33901
X35151Y33901
X36151Y33901
X37151Y33901
X38151Y33901
X39151Y33901
X40459Y34689
X41459Y34689
X42401Y34151
X39901Y36151
X39901Y37151
X39901Y38151
X39901Y39151
X39901Y40151
X39901Y41151
X39901Y42151
X39901Y43151
X39901Y44151
X39901Y45151
X39901Y46151
X39901Y47151
X39901Y48151
X39901Y49151
X39901Y50151
X39901Y51151
X39901Y52151
X39901Y53151
X39901Y54151
X39901Y55151
X45901Y55151
X45901Y54151
X45901Y53151
X45901Y52151
X45901Y51151
X45901Y50151
X45901Y49151
X45901Y48151
X45901Y47151
X45901Y46151
X45901Y45151
X45901Y44151
X45901Y43151
X45901Y42151
X45901Y41151
X45901Y40151
X45901Y39151
X45901Y38151
X45901Y37151
X45901Y36151
X46401Y34151
X52401Y34401
X52401Y35401
X53651Y36151
X53651Y37151
X53651Y38151
X53651Y39151
X53651Y40151
X53651Y41151
X53651Y42151
X53651Y43151
X53651Y44151
X53651Y45151
X53651Y46151
X53651Y47151
X53651Y48151
X53651Y49151
X53651Y50151
X53651Y51151
X53651Y52151
X53651Y53151
X53651Y54151
X53651Y55151
X59651Y55151
X61151Y55151
X59651Y54151
X59651Y53151
X59651Y52151
X59651Y51151
X59651Y50151
X59651Y49151
X59651Y48151
X59651Y47151
X59651Y46151
X59651Y45151
X59651Y44151
X59651Y43151
X59651Y42151
X59651Y41151
X59651Y40151
X59651Y39151
X59651Y38151
X59651Y37151
X59651Y36151
X64937Y36154
X64937Y35154
X64901Y38151
X64901Y39151
X64901Y40151
X64901Y41151
X64901Y42151
X64901Y43151
X64901Y44151
X64901Y45151
X67901Y45151
X67901Y44151
X67901Y43151
X67901Y42151
X67901Y41151
X67901Y40151
X67901Y39151
X67901Y38151
X71401Y36151
X76151Y36401
X76151Y35401
X76151Y34401
X76151Y33401
X76151Y32401
X76151Y31401
X79151Y31401
X79151Y32401
X79151Y33401
X79151Y34401
X79151Y35401
X79151Y36401
X79151Y37401
X80652Y37620
X81652Y37620
X87151Y37401
X87151Y36401
X87151Y35401
X87151Y34401
X87151Y33401
X87151Y32401
X87151Y31401
X90151Y31401
X90151Y32401
X90151Y33401
X90151Y34401
X90151Y35401
X90151Y36401
X90151Y37401
X91151Y38651
X91151Y39651
X90151Y40401
X90151Y41401
X90151Y42401
X90151Y43401
X90151Y44401
X90151Y45401
X90151Y46401
X90151Y47401
X90151Y48401
X90151Y49401
X90151Y50901
X90151Y51901
X87151Y49401
X87151Y48401
X87151Y47401
X87151Y46401
X87151Y45401
X87151Y44401
X87151Y43401
X87151Y42401
X87151Y41401
X87151Y40401
X95401Y43401
X95401Y44401
X95401Y45401
X95401Y46401
X95401Y47401
X95401Y48401
X95401Y49401
X98401Y49401
X98401Y48401
X98401Y47401
X98401Y46401
X98401Y45401
X98401Y44401
X98401Y43401
X101651Y41651
X101651Y40651
X101651Y38401
X101651Y37401
X101651Y36401
X101651Y35401
X101651Y34401
X101651Y33401
X101651Y32401
X101651Y31401
X102651Y29651
X102651Y28651
X98651Y31401
X98651Y32401
X98651Y33401
X98651Y34401
X98651Y35401
X98651Y36401
X98651Y37401
X98651Y38401
X102901Y43401
X102901Y44401
X102901Y45401
X102901Y46401
X102901Y47401
X102901Y48401
X102901Y49401
X105901Y49401
X105901Y48401
X105901Y47401
X105901Y46401
X105901Y45401
X105901Y44401
X105901Y43401
X109901Y43401
X109901Y44401
X109901Y45401
X109901Y46401
X109901Y47401
X109901Y48401
X109901Y49401
X110401Y50901
X110401Y51901
X112901Y49401
X112901Y48401
X112901Y47401
X112901Y46401
X112901Y45401
X112901Y44401
X112901Y43401
X112901Y41651
X112901Y40651
X112901Y38401
X112901Y37401
X112901Y36401
X112901Y35401
X112901Y34401
X112901Y33401
X112901Y32401
X112901Y31401
X109901Y31401
X109901Y32401
X109901Y33401
X109901Y34401
X109901Y35401
X109901Y36401
X109901Y37401
X109901Y38401
X119401Y44151
X119401Y45401
X118151Y45401
X120651Y45401
X123151Y46901
X124651Y45901
X125651Y45901
X126651Y45901
X127651Y45901
X128651Y45901
X129651Y45901
X130651Y45901
X130651Y44151
X129651Y44151
X130901Y42901
X127401Y44151
X125401Y44151
X123401Y44151
X126901Y42901
X124151Y41651
X124151Y40651
X124151Y39401
X124151Y38401
X121151Y38401
X121151Y39401
X121151Y37401
X121151Y36401
X121151Y35401
X124151Y35401
X124151Y36401
X124151Y37401
X124151Y34401
X124151Y33401
X121151Y33401
X121151Y34401
X126151Y34401
X125151Y31401
X125151Y30401
X126151Y30401
X124151Y29401
X124151Y28401
X121151Y28401
X121151Y29401
X121151Y27401
X121151Y26401
X121151Y25401
X124151Y25401
X124151Y26401
X124151Y27401
X124151Y24401
X124151Y23401
X121151Y23401
X121151Y24401
X121151Y21651
X121151Y20651
X121151Y19651
X124151Y19651
X124151Y20651
X124151Y21651
X124151Y18651
X124151Y17651
X124151Y16651
X121151Y16651
X121151Y17651
X121151Y18651
X121151Y15651
X121151Y14651
X124151Y14651
X124151Y15651
X125401Y12651
X125401Y11651
X125651Y10901
X124151Y10901
X121151Y10901
X119901Y11651
X119901Y12651
X121151Y9901
X121151Y8901
X124151Y8901
X124151Y9901
X124151Y7901
X124151Y6901
X124151Y5901
X125651Y6901
X128651Y6901
X128651Y5901
X128651Y4901
X131651Y4901
X131651Y5901
X131651Y6901
X131651Y7901
X131651Y8901
X131651Y9901
X131651Y10901
X132901Y11651
X132901Y12651
X136151Y10901
X136151Y9901
X136151Y8901
X136151Y7901
X136151Y6901
X136151Y5901
X136151Y4901
X139151Y4901
X139151Y5901
X139151Y6901
X139151Y7901
X139151Y8901
X139151Y9901
X139151Y10901
X140401Y11651
X140401Y12651
X143651Y10901
X143651Y9901
X143651Y8901
X143651Y7901
X143651Y6901
X143651Y5901
X143651Y4901
X146651Y4901
X146651Y5901
X146651Y6901
X146651Y7901
X146651Y8901
X146651Y9901
X146651Y10901
X147901Y11651
X147901Y12651
X146651Y20651
X146651Y21651
X146651Y22651
X146651Y23651
X146651Y24651
X146651Y25651
X146651Y26651
X143651Y26651
X143651Y25651
X143651Y24651
X143651Y23651
X143651Y22651
X143651Y21651
X143651Y20651
X135401Y20651
X135401Y21651
X132401Y21651
X132401Y20651
X132401Y22651
X132401Y23651
X135401Y23651
X135401Y22651
X135401Y24651
X135401Y25651
X135401Y26651
X132401Y26651
X132401Y25651
X132401Y24651
X131651Y30401
X131651Y31401
X135401Y31401
X135401Y30401
X135651Y33401
X135651Y34401
X135651Y35401
X135651Y36401
X135651Y37401
X135651Y38401
X135651Y39401
X132651Y39401
X132651Y38401
X132651Y37401
X132651Y36401
X132651Y35401
X132651Y34401
X132651Y33401
X143401Y31401
X143401Y30401
X146651Y30401
X146651Y31401
X146651Y33401
X146651Y34401
X146651Y35401
X146651Y36401
X146651Y37401
X146651Y38401
X146651Y39401
X143651Y39401
X143651Y38401
X143651Y37401
X143651Y36401
X143651Y35401
X143651Y34401
X143651Y33401
X143651Y44151
X143651Y45151
X143651Y47151
X140151Y47151
X140151Y45151
X140151Y44151
X130651Y48901
X129651Y48901
X128651Y48901
X127651Y48901
X126651Y48901
X125651Y48901
X124651Y48901
X123151Y47901
X120651Y49401
X119401Y49401
X118151Y49401
X105901Y50901
X105901Y51901
X98401Y51901
X98401Y50901
X78651Y53151
X78651Y54151
X78651Y55151
X78651Y56151
X78651Y57151
X78651Y58151
X78651Y59151
X78651Y60151
X75651Y60151
X75651Y59151
X75651Y58151
X75651Y57151
X75651Y56151
X75651Y55151
X75651Y54151
X75651Y53151
X74401Y53151
X73401Y53151
X67901Y53151
X67901Y52151
X67901Y51151
X67901Y50151
X67901Y49151
X67901Y48151
X67901Y47151
X68901Y45901
X69901Y45901
X64901Y47151
X64901Y48151
X64901Y49151
X64901Y50151
X64901Y51151
X64901Y52151
X64901Y53151
X64901Y54151
X67901Y54151
X67901Y58901
X66651Y58901
X65901Y59401
X66651Y59901
X61151Y59151
X60651Y63151
X59651Y63151
X61651Y63151
X62651Y63151
X63651Y63151
X64651Y63151
X65651Y63151
X66651Y63151
X67901Y62901
X66651Y66151
X65651Y66151
X64651Y66151
X63651Y66151
X62651Y66151
X61651Y66151
X60651Y66151
X59651Y66151
X59651Y67401
X58651Y67401
X69401Y66651
X73401Y66651
X73401Y65151
X74651Y65151
X75401Y64651
X74651Y64151
X73401Y64151
X95651Y63651
X95651Y64651
X95651Y65651
X98651Y65651
X98651Y64651
X98651Y63651
X98651Y62651
X98651Y61651
X95651Y61651
X95651Y62651
X95651Y60651
X98651Y60651
X103151Y63401
X104151Y63401
X105151Y63401
X102151Y64151
X101151Y64151
X98651Y66651
X95651Y66651
X98151Y67901
X98151Y68901
X101151Y68151
X102151Y68151
X103151Y67401
X104151Y67401
X105151Y67401
X136901Y55901
X137901Y55901
X140151Y51151
X143651Y51151
X115901Y30651
X115901Y29651
X115151Y28401
X115151Y27401
X115151Y26401
X115151Y25401
X115151Y24401
X115151Y23401
X115151Y22401
X95151Y27901
X94151Y27901
X79151Y28651
X79151Y29651
X71401Y28651
X71401Y32651
X76151Y37401
X71401Y40151
X74901Y40651
X74901Y41651
X77901Y41651
X77901Y40651
X77901Y42651
X77901Y43651
X77901Y44651
X74901Y44651
X74901Y43651
X74901Y42651
X74901Y45651
X74901Y46651
X77901Y46651
X77901Y45651
X76901Y47901
X75901Y47901
X46651Y60651
X45651Y60651
X44651Y60651
X43651Y60651
X42651Y60651
X41651Y60651
X40651Y60651
X39651Y60651
X38651Y60651
X32151Y55151
X32151Y54151
X32151Y53151
X32151Y52151
X32151Y51151
X32151Y50151
X32151Y49151
X32151Y48151
X32151Y47151
X32151Y46151
X32151Y45151
X32151Y44151
X32151Y43151
X32151Y42151
X32151Y41151
X32151Y40151
X32151Y39151
X32151Y38151
X32151Y37151
X32151Y36151
X26151Y36151
X26151Y37151
X26151Y38151
X26151Y39151
X26151Y40151
X26151Y41151
X26151Y42151
X26151Y43151
X26151Y44151
X26151Y45151
X26151Y46151
X26151Y47151
X26151Y48151
X26151Y49151
X26151Y50151
X26151Y51151
X26151Y52151
X26151Y53151
X26151Y54151
X26151Y55151
X26651Y57651
X27651Y57651
X20401Y55151
X20401Y54151
X20401Y53151
X20401Y52151
X20401Y51151
X20401Y50151
X20401Y49151
X20401Y48151
X20401Y47151
X20401Y46151
X20401Y45151
X20401Y44151
X20401Y43151
X20401Y42151
X20401Y41151
X20401Y40151
X20401Y39151
X20401Y38151
X20401Y37151
X20401Y36151
X25401Y34901
X25401Y33901
X24401Y32401
X23401Y32401
X22401Y32401
X21401Y32401
X20401Y32401
X19401Y32401
X18401Y32401
X17401Y32401
X16401Y32401
X15401Y32401
X13901Y32651
X12401Y32401
X11401Y32401
X10401Y32401
X9401Y32401
X8401Y32401
X7401Y32401
X6401Y32401
X5401Y32401
X4401Y32401
X3401Y32401
X2151Y32401
X1151Y32401
X3401Y29401
X4401Y29401
X5401Y29401
X6401Y29401
X7401Y29401
X8401Y29401
X9401Y29401
X10401Y29401
X11401Y29401
X12401Y29401
X15401Y29401
X16401Y29401
X17401Y29401
X18401Y29401
X19401Y29401
X20401Y29401
X21401Y29401
X22401Y29401
X23401Y29401
X24401Y29401
X13901Y31651
X14401Y36151
X14401Y37151
X14401Y38151
X14401Y39151
X14401Y40151
X14401Y41151
X14401Y42151
X14401Y43151
X14401Y44151
X14401Y45151
X14401Y46151
X13151Y46901
X12151Y46901
X12151Y48151
X12151Y49151
X12151Y50151
X12151Y51151
X12151Y52151
X12151Y53151
X12151Y54151
X14401Y54151
X14401Y53151
X14401Y52151
X14401Y51151
X14401Y50151
X14401Y49151
X14401Y48151
X14401Y47151
X8151Y48151
X6401Y48151
X6401Y49151
X6401Y50151
X6401Y51151
X8151Y51151
X8151Y50151
X8151Y49151
X3401Y49151
X3401Y50151
X3401Y51151
X3401Y52151
X3401Y53151
X3401Y54151
X6401Y54151
X6401Y53151
X6401Y52151
X8151Y52151
X8151Y53151
X8151Y54151
X7151Y55151
X7151Y56151
X14401Y55151
X26651Y61651
X27651Y61651
X3401Y48151
X56901Y28651
X56901Y27651
X58401Y28651
X58401Y29651
X56901Y26651
X56901Y25651
X56901Y24651
X25901Y9901
X25901Y8901
X25901Y7901
X25901Y6901
X25901Y5901
X25901Y4901
X22901Y4901
X21151Y4651
X21151Y3651
X19401Y3901
X18401Y3901
X18901Y4901
X19901Y4901
X17901Y5901
X17901Y6901
X16651Y6901
X16651Y5901
X16651Y4901
X16651Y3901
X13651Y3901
X13651Y4901
X11901Y5401
X11901Y6401
X13651Y5901
X13651Y6901
X12651Y8401
X10651Y8651
X9651Y8651
X12901Y11401
X12901Y12401
X12901Y13401
X12901Y14401
X12901Y15401
X12901Y16401
X12901Y17401
X12901Y18401
X12901Y19401
X12901Y20401
X12901Y21401
X12901Y22401
X11651Y22901
X10651Y22901
X18901Y22401
X18901Y21401
X18901Y20401
X18901Y19401
X18901Y18401
X18901Y17401
X18901Y16401
X18901Y15401
X18901Y14401
X18901Y13401
X18901Y12401
X18901Y11401
X16651Y8401
X22901Y7901
X22901Y6901
X22901Y5901
X10651Y12651
X9651Y12651
X7651Y13151
X5651Y13151
X5451Y11651
X7351Y11651
X7651Y15401
X6651Y15401
X5651Y15401
X4651Y15401
X3151Y17401
X3151Y18401
X4651Y18401
X5651Y18401
X6651Y18401
X7651Y18401
X8651Y18401
X9651Y18401
X10651Y18401
X10651Y15401
X9651Y15401
X8651Y15401
X6401Y5551
X121151Y5901
X121151Y6901
X121151Y7901
X121151Y4901
X124151Y4901
X128651Y7901
X128651Y8901
X128651Y9901
X128651Y10901
T05
X67135Y32401
X65167Y32401
T06
X1151Y1251
X2151Y9651
X901Y14151
X28151Y12651
X39151Y12651
X50901Y12651
X62901Y11651
X67151Y12651
X69651Y11651
X87401Y12651
X107651Y12651
X109901Y12651
X113151Y1251
X125026Y1251
X140651Y1251
X152901Y1251
X150151Y11651
X152901Y12651
X143651Y12651
X152901Y21151
X150151Y30401
X152901Y31401
X150151Y40651
X152901Y41651
X152901Y49151
X135151Y55901
X152901Y58151
X135151Y65151
X140651Y69901
X152901Y69901
X115151Y65151
X110151Y65401
X110151Y69901
X95151Y69901
X87151Y66151
X82151Y69901
X73651Y69901
X58301Y69901
X50901Y65651
X49401Y65651
X48401Y64401
X39901Y65401
X36651Y61651
X27901Y65401
X9651Y65151
X901Y56151
X901Y43651
X20401Y33901
X901Y28401
X41401Y32901
X43151Y29901
X48151Y29901
X54151Y29651
X63651Y29651
X70151Y29651
X83901Y29651
X95401Y29651
X109901Y30651
X108151Y40651
X108151Y50901
X108151Y52901
X115151Y51901
X115151Y55901
X92901Y52901
X92901Y50901
X87151Y52901
X81151Y46901
X82401Y45901
X82401Y39651
X76651Y38651
X72401Y38651
X44901Y35401
X37151Y55151
X32401Y1251
X19651Y1251
X50401Y1251
X69901Y1251
X94651Y1251
T07
X52901Y5901
X52901Y6901
X52901Y7901
X10401Y6401
X10401Y5401
X2401Y7401
X2401Y8401
X26551Y30901
X27901Y30901
X27901Y31901
X27901Y32901
X26551Y32901
X26551Y31901
X23151Y41651
X37651Y48651
X39651Y59026
X40651Y59026
X41651Y59026
X42651Y59026
X43651Y59026
X44651Y59026
X45651Y59026
X46651Y59026
X47651Y59026
X48651Y59026
X49651Y59026
X50651Y59026
X51651Y59026
X52651Y59026
X53651Y59026
X54651Y59026
X55651Y59026
X56651Y59026
X58651Y59026
X25901Y63151
X14401Y60651
X12651Y60651
X60901Y32151
X61901Y32151
X62901Y32151
X116401Y28401
X117401Y28401
X117401Y27401
X116401Y27401
X116401Y26401
X116401Y25401
X117401Y25401
X117401Y26401
X117401Y24401
X116401Y24401
X116401Y23401
X117401Y23401
X132651Y42901
X132651Y43901
X132651Y44901
X132651Y45901
X132651Y46901
X132651Y47901
X132651Y48901
X135151Y49651
X136151Y49651
X137151Y49651
X129651Y51901
X128651Y51901
X127651Y51901
X126651Y51901
X125651Y51901
X124651Y51901
X123651Y51901
X122651Y51901
X121651Y51901
X136401Y45151
X136401Y44151
X150151Y46401
X151151Y46401
X143401Y60151
X142401Y60151
X141401Y60151
T08
X139151Y58401
X139151Y62401
X121901Y49401
X121901Y45401
X77151Y64151
X77151Y65151
X77151Y66151
X68901Y62901
X68901Y58901
T09
X153201Y55051
X153201Y53051
T10
X148281Y53111
X146701Y53111
X145121Y53111
X145121Y54991
X146701Y54991
X148281Y54991
T11
X93374Y68007
X90028Y68007
T12
X91701Y66786
X90244Y65329
X93158Y65329
T13
X149757Y61401
X150939Y63252
X152120Y61401
T14
X84051Y65151
T15
X71101Y63551
X35001Y63551
X3201Y63501
X3301Y3251
X79151Y3451
X150951Y3351
X152151Y24251
X151001Y68551
X147851Y68701
M30
