G75*
G70*
%OFA0B0*%
%FSLAX24Y24*%
%IPPOS*%
%LPD*%
%AMOC8*
5,1,8,0,0,1.08239X$1,22.5*
%
%ADD10C,0.0114*%
%ADD11R,0.0630X0.0460*%
D10*
X009518Y066773D02*
X009518Y067419D01*
X009784Y067419D01*
X009784Y066773D01*
X009518Y066773D01*
X009518Y066886D02*
X009784Y066886D01*
X009784Y066999D02*
X009518Y066999D01*
X009518Y067112D02*
X009784Y067112D01*
X009784Y067225D02*
X009518Y067225D01*
X009518Y067338D02*
X009784Y067338D01*
X011018Y067419D02*
X011018Y066773D01*
X011018Y067419D02*
X011284Y067419D01*
X011284Y066773D01*
X011018Y066773D01*
X011018Y066886D02*
X011284Y066886D01*
X011284Y066999D02*
X011018Y066999D01*
X011018Y067112D02*
X011284Y067112D01*
X011284Y067225D02*
X011018Y067225D01*
X011018Y067338D02*
X011284Y067338D01*
X012518Y067419D02*
X012518Y066773D01*
X012518Y067419D02*
X012784Y067419D01*
X012784Y066773D01*
X012518Y066773D01*
X012518Y066886D02*
X012784Y066886D01*
X012784Y066999D02*
X012518Y066999D01*
X012518Y067112D02*
X012784Y067112D01*
X012784Y067225D02*
X012518Y067225D01*
X012518Y067338D02*
X012784Y067338D01*
X014268Y067419D02*
X014268Y066773D01*
X014268Y067419D02*
X014534Y067419D01*
X014534Y066773D01*
X014268Y066773D01*
X014268Y066886D02*
X014534Y066886D01*
X014534Y066999D02*
X014268Y066999D01*
X014268Y067112D02*
X014534Y067112D01*
X014534Y067225D02*
X014268Y067225D01*
X014268Y067338D02*
X014534Y067338D01*
X015768Y067419D02*
X015768Y066773D01*
X015768Y067419D02*
X016034Y067419D01*
X016034Y066773D01*
X015768Y066773D01*
X015768Y066886D02*
X016034Y066886D01*
X016034Y066999D02*
X015768Y066999D01*
X015768Y067112D02*
X016034Y067112D01*
X016034Y067225D02*
X015768Y067225D01*
X015768Y067338D02*
X016034Y067338D01*
X017268Y067419D02*
X017268Y066773D01*
X017268Y067419D02*
X017534Y067419D01*
X017534Y066773D01*
X017268Y066773D01*
X017268Y066886D02*
X017534Y066886D01*
X017534Y066999D02*
X017268Y066999D01*
X017268Y067112D02*
X017534Y067112D01*
X017534Y067225D02*
X017268Y067225D01*
X017268Y067338D02*
X017534Y067338D01*
X018768Y067419D02*
X018768Y066773D01*
X018768Y067419D02*
X019034Y067419D01*
X019034Y066773D01*
X018768Y066773D01*
X018768Y066886D02*
X019034Y066886D01*
X019034Y066999D02*
X018768Y066999D01*
X018768Y067112D02*
X019034Y067112D01*
X019034Y067225D02*
X018768Y067225D01*
X018768Y067338D02*
X019034Y067338D01*
X020518Y067419D02*
X020518Y066773D01*
X020518Y067419D02*
X020784Y067419D01*
X020784Y066773D01*
X020518Y066773D01*
X020518Y066886D02*
X020784Y066886D01*
X020784Y066999D02*
X020518Y066999D01*
X020518Y067112D02*
X020784Y067112D01*
X020784Y067225D02*
X020518Y067225D01*
X020518Y067338D02*
X020784Y067338D01*
X022018Y067419D02*
X022018Y066773D01*
X022018Y067419D02*
X022284Y067419D01*
X022284Y066773D01*
X022018Y066773D01*
X022018Y066886D02*
X022284Y066886D01*
X022284Y066999D02*
X022018Y066999D01*
X022018Y067112D02*
X022284Y067112D01*
X022284Y067225D02*
X022018Y067225D01*
X022018Y067338D02*
X022284Y067338D01*
X023518Y067419D02*
X023518Y066773D01*
X023518Y067419D02*
X023784Y067419D01*
X023784Y066773D01*
X023518Y066773D01*
X023518Y066886D02*
X023784Y066886D01*
X023784Y066999D02*
X023518Y066999D01*
X023518Y067112D02*
X023784Y067112D01*
X023784Y067225D02*
X023518Y067225D01*
X023518Y067338D02*
X023784Y067338D01*
X025018Y067419D02*
X025018Y066773D01*
X025018Y067419D02*
X025284Y067419D01*
X025284Y066773D01*
X025018Y066773D01*
X025018Y066886D02*
X025284Y066886D01*
X025284Y066999D02*
X025018Y066999D01*
X025018Y067112D02*
X025284Y067112D01*
X025284Y067225D02*
X025018Y067225D01*
X025018Y067338D02*
X025284Y067338D01*
X026784Y067419D02*
X026784Y066773D01*
X026518Y066773D01*
X026518Y067419D01*
X026784Y067419D01*
X026784Y066886D02*
X026518Y066886D01*
X026518Y066999D02*
X026784Y066999D01*
X026784Y067112D02*
X026518Y067112D01*
X026518Y067225D02*
X026784Y067225D01*
X026784Y067338D02*
X026518Y067338D01*
X043268Y067169D02*
X043268Y066523D01*
X043268Y067169D02*
X043534Y067169D01*
X043534Y066523D01*
X043268Y066523D01*
X043268Y066636D02*
X043534Y066636D01*
X043534Y066749D02*
X043268Y066749D01*
X043268Y066862D02*
X043534Y066862D01*
X043534Y066975D02*
X043268Y066975D01*
X043268Y067088D02*
X043534Y067088D01*
X044768Y067169D02*
X044768Y066523D01*
X044768Y067169D02*
X045034Y067169D01*
X045034Y066523D01*
X044768Y066523D01*
X044768Y066636D02*
X045034Y066636D01*
X045034Y066749D02*
X044768Y066749D01*
X044768Y066862D02*
X045034Y066862D01*
X045034Y066975D02*
X044768Y066975D01*
X044768Y067088D02*
X045034Y067088D01*
X046268Y067169D02*
X046268Y066523D01*
X046268Y067169D02*
X046534Y067169D01*
X046534Y066523D01*
X046268Y066523D01*
X046268Y066636D02*
X046534Y066636D01*
X046534Y066749D02*
X046268Y066749D01*
X046268Y066862D02*
X046534Y066862D01*
X046534Y066975D02*
X046268Y066975D01*
X046268Y067088D02*
X046534Y067088D01*
X047518Y067169D02*
X047518Y066523D01*
X047518Y067169D02*
X047784Y067169D01*
X047784Y066523D01*
X047518Y066523D01*
X047518Y066636D02*
X047784Y066636D01*
X047784Y066749D02*
X047518Y066749D01*
X047518Y066862D02*
X047784Y066862D01*
X047784Y066975D02*
X047518Y066975D01*
X047518Y067088D02*
X047784Y067088D01*
X049518Y067169D02*
X049518Y066523D01*
X049518Y067169D02*
X049784Y067169D01*
X049784Y066523D01*
X049518Y066523D01*
X049518Y066636D02*
X049784Y066636D01*
X049784Y066749D02*
X049518Y066749D01*
X049518Y066862D02*
X049784Y066862D01*
X049784Y066975D02*
X049518Y066975D01*
X049518Y067088D02*
X049784Y067088D01*
X051018Y067169D02*
X051018Y066523D01*
X051018Y067169D02*
X051284Y067169D01*
X051284Y066523D01*
X051018Y066523D01*
X051018Y066636D02*
X051284Y066636D01*
X051284Y066749D02*
X051018Y066749D01*
X051018Y066862D02*
X051284Y066862D01*
X051284Y066975D02*
X051018Y066975D01*
X051018Y067088D02*
X051284Y067088D01*
X116768Y066773D02*
X116768Y067419D01*
X117034Y067419D01*
X117034Y066773D01*
X116768Y066773D01*
X116768Y066886D02*
X117034Y066886D01*
X117034Y066999D02*
X116768Y066999D01*
X116768Y067112D02*
X117034Y067112D01*
X117034Y067225D02*
X116768Y067225D01*
X116768Y067338D02*
X117034Y067338D01*
X118268Y067419D02*
X118268Y066773D01*
X118268Y067419D02*
X118534Y067419D01*
X118534Y066773D01*
X118268Y066773D01*
X118268Y066886D02*
X118534Y066886D01*
X118534Y066999D02*
X118268Y066999D01*
X118268Y067112D02*
X118534Y067112D01*
X118534Y067225D02*
X118268Y067225D01*
X118268Y067338D02*
X118534Y067338D01*
X119768Y067419D02*
X119768Y066773D01*
X119768Y067419D02*
X120034Y067419D01*
X120034Y066773D01*
X119768Y066773D01*
X119768Y066886D02*
X120034Y066886D01*
X120034Y066999D02*
X119768Y066999D01*
X119768Y067112D02*
X120034Y067112D01*
X120034Y067225D02*
X119768Y067225D01*
X119768Y067338D02*
X120034Y067338D01*
X121518Y067419D02*
X121518Y066773D01*
X121518Y067419D02*
X121784Y067419D01*
X121784Y066773D01*
X121518Y066773D01*
X121518Y066886D02*
X121784Y066886D01*
X121784Y066999D02*
X121518Y066999D01*
X121518Y067112D02*
X121784Y067112D01*
X121784Y067225D02*
X121518Y067225D01*
X121518Y067338D02*
X121784Y067338D01*
X123018Y067419D02*
X123018Y066773D01*
X123018Y067419D02*
X123284Y067419D01*
X123284Y066773D01*
X123018Y066773D01*
X123018Y066886D02*
X123284Y066886D01*
X123284Y066999D02*
X123018Y066999D01*
X123018Y067112D02*
X123284Y067112D01*
X123284Y067225D02*
X123018Y067225D01*
X123018Y067338D02*
X123284Y067338D01*
X124518Y067419D02*
X124518Y066773D01*
X124518Y067419D02*
X124784Y067419D01*
X124784Y066773D01*
X124518Y066773D01*
X124518Y066886D02*
X124784Y066886D01*
X124784Y066999D02*
X124518Y066999D01*
X124518Y067112D02*
X124784Y067112D01*
X124784Y067225D02*
X124518Y067225D01*
X124518Y067338D02*
X124784Y067338D01*
X126018Y067419D02*
X126018Y066773D01*
X126018Y067419D02*
X126284Y067419D01*
X126284Y066773D01*
X126018Y066773D01*
X126018Y066886D02*
X126284Y066886D01*
X126284Y066999D02*
X126018Y066999D01*
X126018Y067112D02*
X126284Y067112D01*
X126284Y067225D02*
X126018Y067225D01*
X126018Y067338D02*
X126284Y067338D01*
X127768Y067419D02*
X127768Y066773D01*
X127768Y067419D02*
X128034Y067419D01*
X128034Y066773D01*
X127768Y066773D01*
X127768Y066886D02*
X128034Y066886D01*
X128034Y066999D02*
X127768Y066999D01*
X127768Y067112D02*
X128034Y067112D01*
X128034Y067225D02*
X127768Y067225D01*
X127768Y067338D02*
X128034Y067338D01*
X129268Y067419D02*
X129268Y066773D01*
X129268Y067419D02*
X129534Y067419D01*
X129534Y066773D01*
X129268Y066773D01*
X129268Y066886D02*
X129534Y066886D01*
X129534Y066999D02*
X129268Y066999D01*
X129268Y067112D02*
X129534Y067112D01*
X129534Y067225D02*
X129268Y067225D01*
X129268Y067338D02*
X129534Y067338D01*
X130768Y067419D02*
X130768Y066773D01*
X130768Y067419D02*
X131034Y067419D01*
X131034Y066773D01*
X130768Y066773D01*
X130768Y066886D02*
X131034Y066886D01*
X131034Y066999D02*
X130768Y066999D01*
X130768Y067112D02*
X131034Y067112D01*
X131034Y067225D02*
X130768Y067225D01*
X130768Y067338D02*
X131034Y067338D01*
X132268Y067419D02*
X132268Y066773D01*
X132268Y067419D02*
X132534Y067419D01*
X132534Y066773D01*
X132268Y066773D01*
X132268Y066886D02*
X132534Y066886D01*
X132534Y066999D02*
X132268Y066999D01*
X132268Y067112D02*
X132534Y067112D01*
X132534Y067225D02*
X132268Y067225D01*
X132268Y067338D02*
X132534Y067338D01*
X134034Y067419D02*
X134034Y066773D01*
X133768Y066773D01*
X133768Y067419D01*
X134034Y067419D01*
X134034Y066886D02*
X133768Y066886D01*
X133768Y066999D02*
X134034Y066999D01*
X134034Y067112D02*
X133768Y067112D01*
X133768Y067225D02*
X134034Y067225D01*
X134034Y067338D02*
X133768Y067338D01*
D11*
X032901Y026301D03*
X032901Y026901D03*
X032901Y027501D03*
X112151Y027301D03*
X112151Y027901D03*
X112151Y028501D03*
M02*
